<svg xmlns="http://www.w3.org/2000/svg" width="33.346" height="33.346" viewBox="0 0 33.346 33.346"><path d="M18.173,3A16.673,16.673,0,1,1,1.5,19.673,16.673,16.673,0,0,1,18.173,3ZM28.858,14.246a2.8,2.8,0,0,0-1.969-1.981c-1.737-.468-8.7-.468-8.7-.468s-6.963,0-8.7.468a2.8,2.8,0,0,0-1.969,1.981,29.35,29.35,0,0,0-.465,5.394,29.35,29.35,0,0,0,.465,5.394A2.8,2.8,0,0,0,9.49,27.016c1.737.468,8.7.468,8.7.468s6.963,0,8.7-.468a2.8,2.8,0,0,0,1.969-1.981,29.35,29.35,0,0,0,.465-5.394A29.35,29.35,0,0,0,28.858,14.246ZM15.912,22.951V16.329l5.82,3.311Z" transform="translate(-1.5 -3)" fill="#fff" fill-rule="evenodd"/></svg>