<svg xmlns="http://www.w3.org/2000/svg" viewBox="0 0 112.11 89.49"><defs><style>.cls-1,.cls-2{fill:#fff;}.cls-1{opacity:0.1;}</style></defs><g id="Calque_2" data-name="Calque 2"><g id="Calque_10" data-name="Calque 10"><g id="_01" data-name="01"><path id="Question-01" class="cls-1" d="M32.72,88.49c24.7,0,31.46-19.37,31.46-43.55C64.18,20.37,57.42,1,32.72,1S1,20.37,1,44.94C1,69.12,7.89,88.49,32.72,88.49Zm0-15.86c-11,0-14.43-12.22-14.43-27.69,0-15.73,3.38-28.08,14.43-28.08S46.89,29.21,46.89,44.94C46.89,60.41,43.64,72.63,32.72,72.63ZM109.68,1,74.32,15.69v16L94,24.14V87.32h17.16V1Z"/><path class="cls-2" d="M32.72,89.49C10.7,89.49,0,74.92,0,44.94,0,14.7,10.7,0,32.72,0,54.56,0,65.18,14.7,65.18,44.94,65.18,74.92,54.56,89.49,32.72,89.49ZM32.72,2C11.76,2,2,15.64,2,44.94,2,73.57,12.05,87.49,32.72,87.49S63.18,74,63.18,44.94C63.18,15.64,53.5,2,32.72,2Zm79.39,86.32H93V25.6L73.32,33.14V15L109.48,0h2.63ZM95,86.32h15.16V2h-.23L75.32,16.36V30.22L95,22.68ZM32.72,73.63c-10.24,0-15.43-9.65-15.43-28.69,0-19.3,5.19-29.08,15.43-29.08,10.07,0,15.17,9.78,15.17,29.08C47.89,64,42.79,73.63,32.72,73.63Zm0-55.77c-8.91,0-13.43,9.11-13.43,27.08,0,17.71,4.52,26.69,13.43,26.69S45.89,62.9,45.89,44.94C45.89,26.72,41.58,17.86,32.72,17.86Z"/></g></g></g></svg>