<svg xmlns="http://www.w3.org/2000/svg" viewBox="0 0 135.25 89.49"><defs><style>.cls-1,.cls-2{fill:#fff;}.cls-1{opacity:0.1;}</style></defs><g id="Calque_2" data-name="Calque 2"><g id="Calque_10" data-name="Calque 10"><g id="_02" data-name="02"><path id="Question-02" class="cls-1" d="M32.72,88.49c24.7,0,31.46-19.37,31.46-43.55C64.18,20.37,57.42,1,32.72,1S1,20.37,1,44.94C1,69.12,7.89,88.49,32.72,88.49Zm0-15.86c-11,0-14.43-12.22-14.43-27.69,0-15.73,3.38-28.08,14.43-28.08S46.89,29.21,46.89,44.94C46.89,60.41,43.64,72.63,32.72,72.63Zm71.37-1.3,20-23c5.46-6.11,9.36-13.39,9.36-21.58,0-15.47-11-25.74-28.08-25.74s-26.91,10.4-29,25.61l15.47,2.6c1-7.41,5.33-12.35,12.87-12.35,6.63,0,11.31,4,11.31,9.75,0,2.86-2.34,7.28-5.85,11.57L76.92,78.09v9.23h57.33v-16Z"/><path class="cls-2" d="M32.72,89.49C10.7,89.49,0,74.92,0,44.94,0,14.7,10.7,0,32.72,0,54.56,0,65.18,14.7,65.18,44.94,65.18,74.92,54.56,89.49,32.72,89.49ZM32.72,2C11.76,2,2,15.64,2,44.94,2,73.57,12.05,87.49,32.72,87.49S63.18,74,63.18,44.94C63.18,15.64,53.5,2,32.72,2ZM135.25,88.32H75.92V77.73l33.51-40.19c3.47-4.23,5.62-8.42,5.62-10.93,0-5.15-4.24-8.75-10.31-8.75-6.62,0-10.84,4.08-11.88,11.49l-.14,1L75.28,27.44l.13-1C77.68,9.9,88.88,0,105.39,0c17.39,0,29.08,10.75,29.08,26.74,0,7.62-3.23,15.11-9.61,22.25L106.29,70.33h29Zm-57.33-2h55.33v-14H101.9l21.46-24.67c6-6.77,9.11-13.8,9.11-20.92,0-15-10.63-24.74-27.08-24.74C90.07,2,80,10.65,77.53,25.79L91,28.06c1.44-7.77,6.38-12.2,13.7-12.2,7.13,0,12.31,4.52,12.31,10.75,0,3-2.27,7.55-6.08,12.2l-33,39.64ZM32.72,73.63c-10.24,0-15.43-9.65-15.43-28.69,0-19.3,5.19-29.08,15.43-29.08,10.07,0,15.17,9.78,15.17,29.08C47.89,64,42.79,73.63,32.72,73.63Zm0-55.77c-8.91,0-13.43,9.11-13.43,27.08,0,17.71,4.52,26.69,13.43,26.69S45.89,62.9,45.89,44.94C45.89,26.72,41.58,17.86,32.72,17.86Z"/></g></g></g></svg>