<svg xmlns="http://www.w3.org/2000/svg" viewBox="0 0 134.73 89.49"><defs><style>.cls-1,.cls-2{fill:#fff;}.cls-1{opacity:0.1;}</style></defs><g id="Calque_2" data-name="Calque 2"><g id="Calque_10" data-name="Calque 10"><g id="_03" data-name="03"><path id="Question-03" class="cls-1" d="M32.72,88.49c24.7,0,31.46-19.37,31.46-43.55C64.18,20.37,57.42,1,32.72,1S1,20.37,1,44.94C1,69.12,7.89,88.49,32.72,88.49Zm0-15.86c-11,0-14.43-12.22-14.43-27.69,0-15.73,3.38-28.08,14.43-28.08S46.89,29.21,46.89,44.94C46.89,60.41,43.64,72.63,32.72,72.63Zm85.93-31.2c6.89-3.51,11.18-9.75,11.18-16.9C130.09,10.1,118.39,1,103.44,1A33.34,33.34,0,0,0,77.7,13l9.36,10.66a19.19,19.19,0,0,1,14.43-6.89c6.24,0,10.66,3.25,10.92,8.45.39,6-4.94,10.92-14.17,10.92H93.43V49.23h8.19c8.71,0,14.69,4.94,14.69,12.09,0,6.89-5.85,11.57-14.82,11.57-6.24,0-11.18-3.12-15.21-8.58l-12,9.23c6.11,9.75,15.86,14.95,28,14.95,18.46,0,31.46-10.53,31.46-25.87C133.73,52.61,127.88,44.81,118.65,41.43Z"/><path class="cls-2" d="M102.27,89.49c-12.52,0-22.48-5.33-28.8-15.42L73,73.3,86.48,62.89l.6.83c4.06,5.5,8.78,8.17,14.41,8.17,8.4,0,13.82-4.15,13.82-10.57,0-6.63-5.5-11.09-13.69-11.09H92.43V35.1h5.81c4.76,0,8.67-1.37,11-3.87a7.79,7.79,0,0,0,2.17-6c-.23-4.58-4.12-7.52-9.92-7.52a18.17,18.17,0,0,0-13.66,6.53l-.75.9L76.38,13l.55-.66A34.21,34.21,0,0,1,103.27,0h.18c8.5,0,16,2.83,21,8a22.5,22.5,0,0,1,6.38,16.59c0,6.74-3.66,12.88-9.89,16.74a22.74,22.74,0,0,1,13.79,21.33C134.73,78.44,121.38,89.49,102.27,89.49ZM75.66,73.77c6,9,15.14,13.72,26.61,13.72,17.94,0,30.46-10.23,30.46-24.87,0-9.37-5.39-16.94-14.42-20.25l-2.16-.79,2-1c6.65-3.39,10.63-9.38,10.63-16A20.56,20.56,0,0,0,123,9.36C118.36,4.61,111.41,2,103.44,2A32.21,32.21,0,0,0,79,13l8,9.16a20.21,20.21,0,0,1,14.41-6.38c6.87,0,11.66,3.78,11.94,9.4a9.76,9.76,0,0,1-2.71,7.47c-2.72,2.9-7.14,4.5-12.46,4.5H94.43V48.23h7.19c9.24,0,15.69,5.38,15.69,13.09,0,7.52-6.36,12.57-15.82,12.57-6,0-11.07-2.68-15.4-8.17ZM32.72,89.49C10.7,89.49,0,74.92,0,44.94,0,14.7,10.7,0,32.72,0,54.56,0,65.18,14.7,65.18,44.94,65.18,74.92,54.56,89.49,32.72,89.49ZM32.72,2C11.76,2,2,15.65,2,44.94,2,73.57,12.05,87.49,32.72,87.49S63.18,74,63.18,44.94C63.18,15.65,53.5,2,32.72,2Zm0,71.63c-10.24,0-15.43-9.65-15.43-28.69,0-19.3,5.19-29.08,15.43-29.08,10.07,0,15.17,9.78,15.17,29.08C47.89,64,42.79,73.63,32.72,73.63Zm0-55.77c-8.91,0-13.43,9.11-13.43,27.08,0,17.71,4.52,26.69,13.43,26.69S45.89,62.9,45.89,44.94C45.89,26.72,41.58,17.86,32.72,17.86Z"/></g></g></g></svg>