<svg xmlns="http://www.w3.org/2000/svg" viewBox="0 0 144.61 89.49"><defs><style>.cls-1,.cls-2{fill:#fff;}.cls-1{opacity:0.1;}</style></defs><g id="Calque_2" data-name="Calque 2"><g id="Calque_10" data-name="Calque 10"><g id="_04" data-name="04"><path id="Question-04" class="cls-1" d="M32.72,88.49c24.7,0,31.46-19.37,31.46-43.55C64.18,20.37,57.42,1,32.72,1S1,20.37,1,44.94C1,69.12,7.89,88.49,32.72,88.49Zm0-15.86c-11,0-14.43-12.22-14.43-27.69,0-15.73,3.38-28.08,14.43-28.08S46.89,29.21,46.89,44.94C46.89,60.41,43.64,72.63,32.72,72.63ZM143.61,55.86h-13V2.17H120.47L72.24,66v5.07h41.08V87.32h17.29V71.07h13Zm-47.06,0,16.77-22.49V55.86Z"/><path class="cls-2" d="M32.72,89.49C10.7,89.49,0,74.92,0,44.94,0,14.7,10.7,0,32.72,0,54.56,0,65.18,14.7,65.18,44.94,65.18,74.92,54.56,89.49,32.72,89.49ZM32.72,2C11.76,2,2,15.64,2,44.94,2,73.57,12.05,87.49,32.72,87.49S63.18,74,63.18,44.94C63.18,15.64,53.5,2,32.72,2Zm98.89,86.32H112.32V72.07H71.24V65.66L120,1.17h11.64V54.86h13V72.07h-13Zm-17.29-2h15.29V70.07h13V56.86h-13V3.17H121L73.24,66.34v3.73h41.08ZM32.72,73.63c-10.24,0-15.43-9.65-15.43-28.69,0-19.3,5.19-29.08,15.43-29.08,10.07,0,15.17,9.78,15.17,29.08C47.89,64,42.79,73.63,32.72,73.63Zm0-55.77c-8.91,0-13.43,9.11-13.43,27.08,0,17.71,4.52,26.69,13.43,26.69S45.89,62.9,45.89,44.94C45.89,26.72,41.58,17.86,32.72,17.86Zm81.6,39H94.56l19.76-26.5Zm-15.78-2h13.78V36.38Z"/></g></g></g></svg>