<?xml version="1.0" encoding="utf-8"?>
<!-- Generator: Adobe Illustrator 24.1.3, SVG Export Plug-In . SVG Version: 6.00 Build 0)  -->
<svg version="1.1" id="Calque_1" xmlns="http://www.w3.org/2000/svg" xmlns:xlink="http://www.w3.org/1999/xlink" x="0px" y="0px"
	 viewBox="0 0 9 105" style="enable-background:new 0 0 9 105;" xml:space="preserve">
<style type="text/css">
	.st0{fill:#BEDB39;}
</style>
<path id="_3-points-elements" transform="translate(1 1)" class="st0" d="M4,92H3v-3h1V92z M4,86H3v-3h1V86z M4,80H3v-3h1V80z M4,74
	H3v-3h1V74z M4,68H3v-3h1V68z M4,62H3v-3h1V62z M4,44H3v-3h1V44z M4,38H3v-3h1V38z M4,32H3v-3h1V32z M4,26H3v-3h1V26z M4,20H3v-3h1
	V20z M4,14H3v-3h1V14z M3.5,8C1,8-1,6-1,3.5S1-1,3.5-1S8,1,8,3.5S6,8,3.5,8z M3.5,1C2.1,1,1,2.1,1,3.5S2.1,6,3.5,6
	C4.9,6,6,4.9,6,3.5S4.9,1,3.5,1z M3.5,56C1,56-1,54-1,51.5S1,47,3.5,47S8,49,8,51.5S6,56,3.5,56z M3.5,49C2.1,49,1,50.1,1,51.5
	C1,52.9,2.1,54,3.5,54C4.9,54,6,52.9,6,51.5C6,50.1,4.9,49,3.5,49z M3.5,104C1,104-1,102-1,99.5S1,95,3.5,95S8,97,8,99.5
	S6,104,3.5,104z M3.5,97C2.1,97,1,98.1,1,99.5s1.1,2.5,2.5,2.5c1.4,0,2.5-1.1,2.5-2.5S4.9,97,3.5,97z"/>
</svg>
