<?xml version="1.0" encoding="utf-8"?>
<!-- Generator: Adobe Illustrator 24.1.3, SVG Export Plug-In . SVG Version: 6.00 Build 0)  -->
<svg version="1.1" id="Calque_1" xmlns="http://www.w3.org/2000/svg" xmlns:xlink="http://www.w3.org/1999/xlink" x="0px" y="0px"
	 viewBox="0 0 417.4 222.7" style="enable-background:new 0 0 417.4 222.7;" xml:space="preserve">
<style type="text/css">
	.st0{fill:#EAE7E1;}
</style>
<g id="_30min" transform="translate(1.328 1.224)">
	<path class="st0" d="M255.7,221.5c-53.2,0-79.1-35.4-79.1-108.2c0-73.5,25.9-109.2,79.1-109.2c28.6,0,49.6,10.7,62.4,31.9
		c10.8,17.9,16.1,43.2,16.1,77.3C334.1,186.1,308.5,221.5,255.7,221.5z M255.7,6.1c-28.4,0-48.4,10.1-61.1,30.9
		c-10.7,17.6-16,42.6-16,76.2c0,71.5,25.2,106.2,77.1,106.2c28.2,0,48.1-10.1,60.7-30.8c10.6-17.5,15.8-42.1,15.8-75.4
		c0-33.7-5.2-58.7-15.8-76.2C303.8,16.2,283.9,6.1,255.7,6.1z M68.8,221.5c-30.3,0-54.4-12.9-69.6-37.3l-0.5-0.8l31-23.9l0.6,0.8
		c10.3,13.9,22.3,20.7,36.6,20.7c21.2,0,35.5-11,35.5-27.5c0-16.9-14.5-28.8-35.2-28.8H46V90.5h12.8C71,90.5,81,87,87,80.5
		c4.1-4.4,6.1-9.9,5.7-15.8C92.2,52.6,82,44.8,66.9,44.8c-13,0-27,6.7-34.7,16.6l-0.7,1L7,34.6l0.6-0.7C23.9,14.7,46.7,4.1,71.7,4.1
		c20.5,0,38.5,6.8,50.7,19.1c10.3,10.5,15.6,24.2,15.3,39.8c0,17-9.7,32.3-26.1,41.4c22.4,9,35.7,28.4,35.7,52.3
		C147.2,194.9,115,221.5,68.8,221.5z M1.3,183.9c14.9,23.3,38.2,35.6,67.5,35.6c45,0,76.4-25.8,76.4-62.7
		c0-23.7-13.6-42.9-36.5-51.2l-2.2-0.8l2-1c16.9-8.6,27-23.8,27-40.7c0.3-15-4.8-28.3-14.7-38.4c-11.7-12-29.2-18.5-49.2-18.5
		c-24.1,0-46.1,10.1-62,28.4l21.7,24.7c8.2-9.9,22.4-16.4,35.6-16.4c16.3,0,27.2,8.5,27.9,21.8c0.4,6.5-1.7,12.5-6.3,17.3
		c-6.4,6.8-16.9,10.6-29.6,10.6H48v30.3h19.2c21.9,0,37.2,12.6,37.2,30.8c0,17.6-15.1,29.5-37.5,29.5c-14.8,0-27.1-6.8-37.6-20.7
		L1.3,183.9z M255.7,182.4c-24.2,0-36.5-23.3-36.5-69.2c0-46.5,12.3-70.1,36.5-70.1c13,0,22.5,6.9,28.4,20.6
		c5,11.6,7.4,27.8,7.4,49.5c0,21-2.5,37.4-7.4,48.8C278.2,175.6,268.6,182.4,255.7,182.4z M255.7,45.2c-22.9,0-34.5,22.9-34.5,68.1
		c0,44.6,11.6,67.2,34.5,67.2c22.8,0,33.9-22,33.9-67.2C289.6,67.4,278.5,45.2,255.7,45.2z M390.1,77l-29.4-7.9l0.3-1l18.2-69.5
		L416,8.6L390.1,77z M363.1,67.8l25.7,6.9L413.4,10l-32.8-8.7L363.1,67.8z"/>
</g>
</svg>
