<svg xmlns="http://www.w3.org/2000/svg" width="20.758" height="20.757" viewBox="0 0 20.758 20.757">
  <path id="pic-acces-client" d="M404.283,209.136h-4.228a.4.4,0,0,1-.349-.594c.019-.035,1.921-3.519.146-5.04a1.582,1.582,0,0,0-1.045-.29,1.444,1.444,0,0,0-1.014.307c-1.8,1.528.212,4.979.232,5.014a.4.4,0,0,1-.344.6h-4.334a.4.4,0,1,1,0-.8h3.676c-.567-1.205-1.54-3.9.252-5.427a2.228,2.228,0,0,1,1.532-.5,2.344,2.344,0,0,1,1.566.482c1.771,1.517.855,4.239.322,5.443h3.588a.4.4,0,1,1,0,.8Zm4.911-2.408a10.379,10.379,0,1,0-10.379,10.379A10.39,10.39,0,0,0,409.194,206.728Zm-.987,0a9.392,9.392,0,1,1-9.392-9.391A9.4,9.4,0,0,1,408.207,206.728Z" transform="translate(-388.436 -196.35)" fill="#ec6557"/>
</svg>
