<svg xmlns="http://www.w3.org/2000/svg" viewBox="0 0 104.3 104.3"><defs><style>.cls-1{fill:#c4aad2;}</style></defs><g id="Calque_2" data-name="Calque 2"><g id="Elements"><path id="pic-Air" class="cls-1" d="M52.66,10a42.17,42.17,0,0,0-4.19,84.14c.07,0,1.94.21,3.8.21s4.1-.16,4.12-.16h0A42.18,42.18,0,0,0,52.66,10Zm3.65,83.19c-.09,0-2.25.16-4,.16s-3.68-.2-3.7-.2A41,41,0,0,1,14.33,67.27s0-.07,0-.1c-4.16-10.75-1.42-23.66,7.16-33.71A37.89,37.89,0,0,1,58.7,20.62,31.13,31.13,0,0,1,82,40.93c4,10.83,2.71,23.37-3.25,31.21C68.62,85.47,49.86,88.59,36.92,79.08c-7.69-5.64-12.31-16.9-11-26.76,1.19-8.94,6.92-15.83,16.15-19.39a22.73,22.73,0,0,1,23.08,3.59c6.31,5.12,9.62,13.09,8.44,20.3a19.68,19.68,0,0,1-12.16,15.1,19.34,19.34,0,0,1-18.66-2,15.73,15.73,0,0,1-6.32-15.69A14.76,14.76,0,0,1,46.72,42.45c5.86-1.7,11.29.22,14.52,5.15,2.84,4.34,3,9.59.32,12.79a9.33,9.33,0,0,1-11,3,7.55,7.55,0,0,1-5-7.62,5.93,5.93,0,0,1,2.7-4.48,5.81,5.81,0,0,1,4.85-.8,4.53,4.53,0,0,1,2.71,5c-.35,1.42-1.64,2-3.65,1.68a.49.49,0,0,0-.57.41.5.5,0,0,0,.41.58c2.51.42,4.3-.49,4.78-2.44a5.54,5.54,0,0,0-3.37-6.14,7,7,0,0,0-8.85,6.14,8.52,8.52,0,0,0,5.57,8.63A10.41,10.41,0,0,0,62.33,61c2.93-3.53,2.83-9.28-.26-14-3.48-5.31-9.32-7.39-15.63-5.56a15.77,15.77,0,0,0-11,12.62,16.71,16.71,0,0,0,6.72,16.66,20.33,20.33,0,0,0,19.63,2.08A20.67,20.67,0,0,0,74.59,57c1.25-7.67-2.12-15.81-8.8-21.24A23.71,23.71,0,0,0,41.72,32c-9.58,3.7-15.54,10.87-16.78,20.18C23.55,62.55,28.24,74,36.32,79.89a29.55,29.55,0,0,0,17.59,5.7A32.3,32.3,0,0,0,79.54,72.74c6.15-8.1,7.51-21,3.39-32.16a32.14,32.14,0,0,0-24-20.94,38.86,38.86,0,0,0-38.2,13.17,37.91,37.91,0,0,0-9.18,21.12c0-.59,0-1.18,0-1.77a41.17,41.17,0,1,1,44.82,41Zm48-41A52.17,52.17,0,0,1,91.93,85.88a.5.5,0,1,1-.76-.65,51.12,51.12,0,1,0-9.8,8.91.51.51,0,0,1,.7.13.49.49,0,0,1-.13.69A52.15,52.15,0,1,1,104.3,52.15Z"/></g></g></svg>