<svg xmlns="http://www.w3.org/2000/svg" viewBox="0 0 104.8 104.8"><defs><style>.cls-1{fill:#c4aad2;}</style></defs><g id="Calque_2" data-name="Calque 2"><g id="Elements"><path id="pic-Air" class="cls-1" d="M104.8,52.4A52.39,52.39,0,0,1,92.37,86.29a.74.74,0,0,1-.51.27.79.79,0,0,1-.55-.18.77.77,0,0,1-.26-.51.79.79,0,0,1,.18-.55,50.82,50.82,0,1,0-9.75,8.87.75.75,0,0,1,1,.18.77.77,0,0,1,.13.57.81.81,0,0,1-.31.48,52.41,52.41,0,1,1,22.46-43Zm-9.47,0A42.67,42.67,0,0,1,56.67,94.66s-2.29.17-4.15.17-3.63-.19-3.83-.21A42.42,42.42,0,1,1,95.33,52.41ZM56.54,93.17A40.93,40.93,0,1,0,12,50.66a39.2,39.2,0,0,1,8.74-17.77A39.12,39.12,0,0,1,59.21,19.65a32.36,32.36,0,0,1,24.2,21.09C87.57,52,86.19,65,80,73.15A32.68,32.68,0,0,1,54.16,86.09a29.68,29.68,0,0,1-17.73-5.75c-8.16-6-12.89-17.48-11.49-27.94C26.19,43,32.21,35.75,41.88,32A24,24,0,0,1,66.2,35.8C73,41.28,76.35,49.51,75.08,57.27A20.92,20.92,0,0,1,62.17,73.33a20.58,20.58,0,0,1-19.88-2.11,16.94,16.94,0,0,1-6.81-16.91A16,16,0,0,1,46.62,41.5C53,39.64,59,41.76,62.53,47.16c3.14,4.8,3.24,10.67.24,14.28A10.66,10.66,0,0,1,50.34,64.8a8.76,8.76,0,0,1-5.72-8.89,7.29,7.29,0,0,1,9.18-6.35A5.8,5.8,0,0,1,57.33,56c-.51,2.09-2.4,3.07-5.06,2.62a.75.75,0,0,1-.49-.3.74.74,0,0,1-.13-.56.78.78,0,0,1,.31-.49.71.71,0,0,1,.56-.12c1.3.21,2.95.13,3.36-1.5A4.26,4.26,0,0,0,53.33,51a5.57,5.57,0,0,0-4.64.77,5.7,5.7,0,0,0-2.58,4.29,7.31,7.31,0,0,0,4.81,7.37,9.07,9.07,0,0,0,10.7-2.94c2.58-3.11,2.44-8.25-.34-12.5-3.17-4.82-8.49-6.7-14.24-5A14.51,14.51,0,0,0,37,54.58,15.46,15.46,0,0,0,43.18,70,19.06,19.06,0,0,0,61.6,71.94,19.41,19.41,0,0,0,73.6,57c1.17-7.12-2.11-15-8.35-20.07a22.5,22.5,0,0,0-22.83-3.55c-9.14,3.53-14.82,10.35-16,19.19-1.3,9.78,3.28,20.94,10.89,26.53,12.83,9.43,31.44,6.33,41.48-6.89C84.7,64.46,86,52,82,41.27A30.93,30.93,0,0,0,58.89,21.11a38.41,38.41,0,0,0-8.08-.86,37.82,37.82,0,0,0-28.9,13.62c-8.52,10-11.25,22.8-7.12,33.46a.39.39,0,0,1,0,.13,40.64,40.64,0,0,0,34,25.67c.2,0,2,.2,3.68.2S56.47,93.17,56.54,93.17Z"/></g></g></svg>