<svg id="pic-Bienveillance" xmlns="http://www.w3.org/2000/svg" width="153.297" height="236.454" viewBox="0 0 153.297 236.454">
  <path id="Bienveillance" d="M73.05,103.961c-1.336-2.928-3.458-9.122.721-12.729a5.367,5.367,0,0,1,3.649-1.188,5.643,5.643,0,0,1,3.755,1.146c4.116,3.543,2.121,9.78.87,12.729h8.189a1.061,1.061,0,1,1,0,2.121H80.348a1.018,1.018,0,0,1-.912-.53,1.061,1.061,0,0,1,0-1.04s4.455-8.146.382-11.647a3.649,3.649,0,0,0-2.376-.636,3.246,3.246,0,0,0-2.291.679c-4.094,3.5.53,11.5.573,11.562a1.146,1.146,0,0,1,0,1.082,1.1,1.1,0,0,1-.933.53H64.65a1.061,1.061,0,1,1,0-2.121ZM90.022,5.166a11.411,11.411,0,1,0,.042.021Zm1.7,0a2.591,2.591,0,1,1,.042.021Zm6.852,34.876,1.782-3.246a.891.891,0,0,1,1.485,0l1.8,3.246,3.628.7a.849.849,0,0,1,.445,1.421l-2.482,2.715.467,3.67a.806.806,0,0,1-.339.785.849.849,0,0,1-.87,0l-3.352-1.57-3.352,1.57a.7.7,0,0,1-.361,0,.849.849,0,0,1-.488-.17.806.806,0,0,1-.339-.785l.445-3.67-2.524-2.694a.891.891,0,0,1-.191-.849.87.87,0,0,1,.658-.573Zm.721,1.591-2.524.488,1.761,1.867a.806.806,0,0,1,.212.679l-.318,2.546,2.312-1.082a.806.806,0,0,1,.361,0,.7.7,0,0,1,.361,0l2.334,1.082-.318-2.546a.806.806,0,0,1,.212-.679l1.761-1.867-2.524-.488a.743.743,0,0,1-.573-.424L101.1,38.982l-1.23,2.227a.827.827,0,0,1-.53.445ZM120.931,75H123.6v2.673a.849.849,0,0,0,1.7,0V75H128a.849.849,0,1,0,0-1.7h-2.821V70.633a.849.849,0,1,0-1.7,0v2.673h-2.546a.849.849,0,0,0,0,1.7Zm-18.859,39.9a1.145,1.145,0,0,0,.233-.87L98.189,90.363a1.078,1.078,0,0,0-2.121.382l3.882,22.423H83.191a1.04,1.04,0,0,0-.87.446,1.061,1.061,0,0,0-.127.976l16,43.489a1.061,1.061,0,0,0,1,.679.722.722,0,0,0,.361,0,1.061,1.061,0,0,0,.636-1.358l-15.465-42.11h16.547a1.124,1.124,0,0,0,.806-.382ZM53.045,58.181a.891.891,0,0,1-.191-.849.87.87,0,0,1,.658-.573l4.646-.891,2.291-4.137a.87.87,0,0,1,1.485,0l2.291,4.137,4.646.891a.87.87,0,0,1,.467,1.421l-3.246,3.458.594,4.71a.87.87,0,0,1-.361.785.806.806,0,0,1-.488.17.7.7,0,0,1-.361,0l-4.243-2.015L56.991,67.3a.849.849,0,0,1-.87,0,.806.806,0,0,1-.339-.785l.594-4.71Zm2.291,0L57.8,60.811a.827.827,0,0,1,.212.679l-.446,3.585,3.267-1.527a.7.7,0,0,1,.361,0,.743.743,0,0,1,.361,0L64.8,65.075l-.382-3.543a.912.912,0,0,1,.233-.679l2.461-2.631-3.458-.764a.742.742,0,0,1-.573-.424L61.34,53.9l-1.74,3.14a.827.827,0,0,1-.594.424Zm-1.464,57.151H70.441L55.4,157.357a.93.93,0,0,0,1,1.358,1.018,1.018,0,0,0,1-.7l15.614-43.447a1.061,1.061,0,0,0-.127-.976,1.082,1.082,0,0,0-.87-.446H55.167L59.41,90.384a1.04,1.04,0,0,0-.849-1.23,1.061,1.061,0,0,0-1.23.849l-4.455,24.014a1.018,1.018,0,0,0,.233.87,1.04,1.04,0,0,0,.827.4Zm88.039-9.08a2.758,2.758,0,0,0-3.9-1.931,16.5,16.5,0,0,0-6.831,8.825c-2.121,5.919,0,17.778,1.252,24.142l.233,1.294c.233,1.273.4,3.012.552,4.964a8.995,8.995,0,0,0-7.149,1.23c-1.888,1.4-3.67,5.537-5.77,10.353a55.156,55.156,0,0,1-4.731,9.419,47.372,47.372,0,0,1-6.873,6.682,144.255,144.255,0,0,0-12.389,11.8c-7.446,8.125-9.546,17.2-6.152,27.006a190.929,190.929,0,0,1,6.767,25.457,1.082,1.082,0,0,0,1.061.891h.17a1.061,1.061,0,0,0,.87-1.23,193.046,193.046,0,0,0-6.873-25.9c-3.14-9.1-1.252-17.247,5.791-24.884a141.39,141.39,0,0,1,12.219-11.647,49.282,49.282,0,0,0,7.17-7,56.409,56.409,0,0,0,4.985-9.865c1.718-3.946,3.67-8.486,5.07-9.462a7.213,7.213,0,0,1,6.025-.721,117.118,117.118,0,0,1,0,14.362c-.276,1.549-7.764,12.071-14.85,21.32a1.061,1.061,0,1,0,1.676,1.294c2.482-3.246,14.85-19.538,15.253-22.3a127.516,127.516,0,0,0-.721-22.254l-.233-1.273c-1.04-5.749-3.182-17.693-1.337-23.1a14.659,14.659,0,0,1,5.728-7.595.7.7,0,0,1,.552,0,.636.636,0,0,1,.361.467c3.585,16.271,11.816,56.769,11.392,60.418-.318,2.864-10.9,17.841-17.926,27.769a146.376,146.376,0,0,0-8.783,12.983c-1.1,2.652,0,7.658,1.443,13.98.615,2.652,1.23,5.41,1.718,8.125a1.039,1.039,0,0,0,1.039.891h.17a1.061,1.061,0,0,0,.87-1.23c-.488-2.779-1.1-5.537-1.718-8.231-1.23-5.473-2.4-10.607-1.57-12.729.467-1.124,4.413-6.682,8.486-12.559,10.162-14.362,17.947-25.606,18.308-28.766.658-5.2-11.116-60.482-11.286-61.033ZM91.846,158.757a1.018,1.018,0,0,0,.552-.148,1.061,1.061,0,0,0,.361-1.464L80.985,137.9a3.543,3.543,0,0,0-3.055-1.7h0a3.543,3.543,0,0,0-3.034,1.7l-11.88,19.241a1.063,1.063,0,1,0,1.8,1.124L76.7,139.007a1.443,1.443,0,0,1,1.23-.679h0a1.443,1.443,0,0,1,1.252.7l11.774,19.241a1.04,1.04,0,0,0,.891.488ZM30.325,94.16H33v2.673a.849.849,0,1,0,1.7,0V94.16h2.673a.849.849,0,0,0,0-1.7H34.653V89.79a.849.849,0,1,0-1.7,0v2.673H30.283a.849.849,0,1,0,0,1.7Zm26.73,88.824a141.032,141.032,0,0,0-12.5-11.8,48.177,48.177,0,0,1-6.852-6.682,53.565,53.565,0,0,1-4.731-9.419c-2.121-4.816-3.9-8.952-5.77-10.353a8.995,8.995,0,0,0-7.149-1.23c.149-1.952.318-3.691.552-4.964l.233-1.294c1.146-6.364,3.267-18.223,1.252-24.142a16.59,16.59,0,0,0-6.831-8.825,2.758,2.758,0,0,0-3.9,1.93c-.085.552-11.9,55.836-11.35,61.033.361,3.161,8.146,14.383,18.308,28.766,4.243,5.876,8.1,11.434,8.486,12.559.827,2.121-.339,7.213-1.57,12.729-.615,2.694-1.23,5.452-1.718,8.231a1.061,1.061,0,0,0,.849,1.23h.191a1.04,1.04,0,0,0,1.039-.891c.488-2.715,1.1-5.473,1.7-8.125,1.443-6.364,2.567-11.328,1.464-13.98a146.372,146.372,0,0,0-8.783-12.983c-6.916-9.928-17.5-24.905-17.841-27.769-.4-3.649,7.828-44.147,11.35-60.354a.636.636,0,0,1,.361-.467.7.7,0,0,1,.552,0,14.659,14.659,0,0,1,5.728,7.595c1.846,5.41-.3,17.353-1.336,23.081l-.233,1.294a125.46,125.46,0,0,0-.721,22.254c.424,2.758,12.729,19.093,15.253,22.3a1.061,1.061,0,1,0,1.676-1.294c-7.064-9.249-14.553-19.772-14.85-21.32a117.122,117.122,0,0,1,0-14.362,7.213,7.213,0,0,1,6.025.721c1.4,1.04,3.352,5.516,5.07,9.462a54.244,54.244,0,0,0,5.07,9.865,49.282,49.282,0,0,0,7.17,7,144.575,144.575,0,0,1,12.219,11.647c7.043,7.637,8.931,15.783,5.791,24.884a189.928,189.928,0,0,0-6.873,25.9,1.061,1.061,0,0,0,.87,1.23h.17a1.039,1.039,0,0,0,1.039-.891,194.136,194.136,0,0,1,6.767-25.521c3.394-9.8,1.294-18.881-6.216-27.048ZM5.038,54.553A4.031,4.031,0,1,1,9.068,58.6a4.031,4.031,0,0,1-4.031-4.052Zm1.7,0a2.334,2.334,0,1,0,2.334-2.312,2.334,2.334,0,0,0-2.334,2.312Z" transform="translate(0.009 0.01)" fill="#fff"/>
</svg>
