<?xml version="1.0" encoding="utf-8"?>
<!-- Generator: Adobe Illustrator 24.1.3, SVG Export Plug-In . SVG Version: 6.00 Build 0)  -->
<svg version="1.1" id="Calque_1" xmlns="http://www.w3.org/2000/svg" xmlns:xlink="http://www.w3.org/1999/xlink" x="0px" y="0px"
	 viewBox="0 0 39 31" style="enable-background:new 0 0 39 31;" xml:space="preserve">
<style type="text/css">
	.st0{fill:#EC6557;}
	.st1{fill:#77736B;}
</style>
<g id="Burger" transform="translate(1.5 1.5)">
	<path class="st0" d="M36,1.5H0c-0.8,0-1.5-0.7-1.5-1.5S-0.8-1.5,0-1.5h36c0.8,0,1.5,0.7,1.5,1.5S36.8,1.5,36,1.5z"/>
	<path class="st1" d="M36,16.1H0c-0.8,0-1.5-0.7-1.5-1.5c0-0.8,0.7-1.5,1.5-1.5h36c0.8,0,1.5,0.7,1.5,1.5
		C37.5,15.4,36.8,16.1,36,16.1z"/>
	<path class="st1" d="M36,29.5H0c-0.8,0-1.5-0.7-1.5-1.5s0.7-1.5,1.5-1.5h36c0.8,0,1.5,0.7,1.5,1.5S36.8,29.5,36,29.5z"/>
</g>
</svg>
