<?xml version="1.0" encoding="utf-8"?>
<!-- Generator: Adobe Illustrator 24.1.3, SVG Export Plug-In . SVG Version: 6.00 Build 0)  -->
<svg version="1.1" id="Calque_1" xmlns="http://www.w3.org/2000/svg" xmlns:xlink="http://www.w3.org/1999/xlink" x="0px" y="0px"
	 viewBox="0 0 29.7 29.7" style="enable-background:new 0 0 29.7 29.7;" xml:space="preserve">
<style type="text/css">
	.st0{fill:#77736B;}
	.st1{fill:#EC6557;}
</style>
<g id="Burger-Fermer" transform="translate(2.122 2.121)">
	<g id="Burger" transform="translate(0 0) rotate(45)">
		<path class="st0" d="M37.1,1.1c-0.3,0.3-0.6,0.4-1.1,0.4H0c-0.8,0-1.5-0.7-1.5-1.5c0-0.8,0.7-1.5,1.5-1.5h36
			c0.8,0,1.5,0.7,1.5,1.5C37.5,0.4,37.3,0.8,37.1,1.1z"/>
	</g>
	<g id="Burger-2" transform="translate(0 25.456) rotate(-45)">
		<path class="st1" d="M-1.1,1.1C-1.3,0.8-1.5,0.4-1.5,0c0-0.8,0.7-1.5,1.5-1.5h36c0.8,0,1.5,0.7,1.5,1.5c0,0.8-0.7,1.5-1.5,1.5H0
			C-0.4,1.5-0.8,1.3-1.1,1.1z"/>
	</g>
</g>
</svg>
