<svg xmlns="http://www.w3.org/2000/svg" viewBox="0 0 104.8 104.8"><path fill="#EAE7E1" id="pic-Eau" d="M104.8,52.4A52.4,52.4,0,1,1,12.43,18.51a.75.75,0,0,1,.52-.26.71.71,0,0,1,.54.17.76.76,0,0,1,.09,1.06,50.91,50.91,0,1,0,9.75-8.86.76.76,0,0,1-1-.19.73.73,0,0,1-.12-.56.69.69,0,0,1,.31-.48,52.4,52.4,0,0,1,82.33,43ZM12,39a42.55,42.55,0,0,1,80.9.26l.1.3a42.31,42.31,0,0,1,1.67,7.82c0,.4.09.79.12,1.18.12,1.35.18,2.59.18,3.8a43.9,43.9,0,0,1-.49,6.49,42.3,42.3,0,0,1-3,10.3c-.15.36-.31.71-.47,1A43.16,43.16,0,0,1,79.28,85.38h0l-.09.08c-.56.44-1.15.9-1.76,1.34l-.16.12c-.56.41-1.14.8-1.71,1.17l-.15.1c-.58.38-1.19.75-1.82,1.11l-.09,0c-.64.37-1.31.73-2,1.06A42,42,0,0,1,52.4,95a42.45,42.45,0,0,1-21-5.58l-.09,0c-.6-.34-1.21-.71-1.81-1.1l-.07,0c-.64-.42-1.23-.82-1.79-1.22l-.1-.07A42.83,42.83,0,0,1,19,78.71l-.2-.25c-.14-.17-.29-.35-.42-.54a42.47,42.47,0,0,1-8-19.07l0-.27,0-.15a42.61,42.61,0,0,1-.44-6,43.24,43.24,0,0,1,.31-5,41.24,41.24,0,0,1,1.67-7.81C11.87,39.41,11.93,39.22,12,39Zm79.16-.18a41.05,41.05,0,0,0-77.53,0,4.28,4.28,0,0,0,.87.09,6.69,6.69,0,0,0,4.66-2,7.21,7.21,0,0,1,4.89-2.13c2.38,0,3.91,1.16,5.38,2.28a6.94,6.94,0,0,0,4,1.85,6.73,6.73,0,0,0,4.48-2,7.21,7.21,0,0,1,4.89-2.13c2.38,0,3.91,1.16,5.38,2.28,1.25.94,2.43,1.83,4.07,1.85a6.67,6.67,0,0,0,4.58-2,7.21,7.21,0,0,1,4.89-2.13c2.39,0,3.91,1.16,5.38,2.28a7,7,0,0,0,4,1.85,6.73,6.73,0,0,0,4.48-2,7.21,7.21,0,0,1,4.89-2.13c2.39,0,3.91,1.16,5.38,2.28C87.1,38.07,88.29,39,90,39A5.88,5.88,0,0,0,91.16,38.86ZM14.5,40.48a5.74,5.74,0,0,1-1.35-.17A40.81,40.81,0,0,0,11.57,48a5.19,5.19,0,0,0,2.93,1,6.69,6.69,0,0,0,4.66-2,7.21,7.21,0,0,1,4.89-2.13c2.38,0,3.91,1.16,5.38,2.28a6.94,6.94,0,0,0,4,1.85,6.73,6.73,0,0,0,4.48-2,7.21,7.21,0,0,1,4.89-2.13c2.38,0,3.91,1.16,5.38,2.28,1.25.94,2.43,1.83,4.07,1.85a6.67,6.67,0,0,0,4.58-2,7.21,7.21,0,0,1,4.89-2.13c2.39,0,3.91,1.16,5.38,2.28a7,7,0,0,0,4,1.85,6.73,6.73,0,0,0,4.48-2,7.21,7.21,0,0,1,4.89-2.13c2.39,0,3.91,1.16,5.38,2.28C87.1,48.07,88.29,49,90,49a5.68,5.68,0,0,0,3.28-1,41,41,0,0,0-1.6-7.73,7.21,7.21,0,0,1-1.68.19c-2.17,0-3.63-1.1-5-2.17s-2.6-2-4.48-2a5.79,5.79,0,0,0-3.93,1.79,8.44,8.44,0,0,1-5,2.32h0l-.25,0h-.56v0a8.63,8.63,0,0,1-4.47-2.13c-1.34-1-2.6-2-4.48-2s-2.76.83-3.94,1.79a8.25,8.25,0,0,1-5.22,2.33h-.26l-.31,0a8.33,8.33,0,0,1-4.71-2.15c-1.34-1-2.6-2-4.48-2a5.81,5.81,0,0,0-3.94,1.79,8.41,8.41,0,0,1-5,2.32h0l-.25,0H33v0a8.64,8.64,0,0,1-4.46-2.13c-1.34-1-2.6-2-4.48-2a5.81,5.81,0,0,0-3.94,1.79A8.09,8.09,0,0,1,14.5,40.48Zm0,10a6.18,6.18,0,0,1-3.06-.83c-.07,1-.11,1.9-.11,2.75a42.29,42.29,0,0,0,.4,5.68,5,5,0,0,0,2.77.9,6.69,6.69,0,0,0,4.66-2,7.21,7.21,0,0,1,4.89-2.13c2.38,0,3.91,1.16,5.38,2.28a6.94,6.94,0,0,0,4,1.85,6.73,6.73,0,0,0,4.48-2,7.21,7.21,0,0,1,4.89-2.13c2.38,0,3.91,1.16,5.38,2.28,1.25.94,2.43,1.83,4.07,1.85a6.67,6.67,0,0,0,4.58-2,7.21,7.21,0,0,1,4.89-2.13c2.39,0,3.91,1.16,5.38,2.28a7,7,0,0,0,4,1.85,6.73,6.73,0,0,0,4.48-2,7.21,7.21,0,0,1,4.89-2.13c2.39,0,3.91,1.16,5.38,2.28C87.1,58.07,88.29,59,90,59a5.62,5.62,0,0,0,3.1-.86,41.19,41.19,0,0,0,.41-5.72c0-.84,0-1.72-.1-2.73a7.15,7.15,0,0,1-3.41.81c-2.17,0-3.63-1.1-5-2.17s-2.6-2-4.48-2a5.79,5.79,0,0,0-3.93,1.79,8.44,8.44,0,0,1-5,2.32h0l-.25,0h-.56v0a8.63,8.63,0,0,1-4.47-2.13c-1.34-1-2.6-2-4.48-2s-2.76.83-3.94,1.79a8.25,8.25,0,0,1-5.22,2.33h-.26l-.31,0a8.33,8.33,0,0,1-4.71-2.15c-1.34-1-2.6-2-4.48-2a5.81,5.81,0,0,0-3.94,1.79,8.41,8.41,0,0,1-5,2.32h0l-.25,0H33v0a8.64,8.64,0,0,1-4.46-2.13c-1.34-1-2.6-2-4.48-2a5.81,5.81,0,0,0-3.94,1.79A8.09,8.09,0,0,1,14.5,50.48ZM35.91,90a40.92,40.92,0,0,0,33,0,12.26,12.26,0,0,1-2.7-1.69c-1.34-1-2.6-2-4.48-2s-2.76.83-3.94,1.79a8.25,8.25,0,0,1-5.22,2.33h-.26l-.31,0a8.33,8.33,0,0,1-4.71-2.15c-1.34-1-2.6-2-4.48-2a5.81,5.81,0,0,0-3.94,1.79A10.41,10.41,0,0,1,35.91,90ZM84.49,78a6.44,6.44,0,0,0-4-1.64,5.79,5.79,0,0,0-3.93,1.79,8.44,8.44,0,0,1-5,2.32h0l-.25,0h-.56v0a8.63,8.63,0,0,1-4.47-2.13c-1.34-1-2.6-2-4.48-2s-2.76.83-3.94,1.79a8.25,8.25,0,0,1-5.22,2.33h-.26l-.31,0a8.33,8.33,0,0,1-4.71-2.15c-1.34-1-2.6-2-4.48-2a5.81,5.81,0,0,0-3.94,1.79,8.41,8.41,0,0,1-5,2.32h0l-.25,0H33v0a8.64,8.64,0,0,1-4.46-2.13c-1.34-1-2.6-2-4.48-2A5.52,5.52,0,0,0,20.3,78,41.91,41.91,0,0,0,33.7,89a6.87,6.87,0,0,0,4.2-2,7.21,7.21,0,0,1,4.89-2.13c2.38,0,3.91,1.16,5.38,2.28,1.25.94,2.43,1.83,4.07,1.85a6.67,6.67,0,0,0,4.58-2,7.21,7.21,0,0,1,4.89-2.13c2.39,0,3.91,1.16,5.38,2.28a7,7,0,0,0,4,1.85A41.61,41.61,0,0,0,84.49,78Zm-8.93-1a7.21,7.21,0,0,1,4.89-2.13,7.9,7.9,0,0,1,5,2,41.83,41.83,0,0,0,3.88-6.37,8.76,8.76,0,0,1-4.37-2.12c-1.34-1-2.6-2-4.48-2a5.79,5.79,0,0,0-3.93,1.79,8.44,8.44,0,0,1-5,2.32h0l-.25,0h-.56v0a8.63,8.63,0,0,1-4.47-2.13c-1.34-1-2.6-2-4.48-2s-2.76.83-3.94,1.79a8.25,8.25,0,0,1-5.22,2.33h-.26l-.31,0a8.33,8.33,0,0,1-4.71-2.15c-1.34-1-2.6-2-4.48-2a5.81,5.81,0,0,0-3.94,1.79,8.41,8.41,0,0,1-5,2.32h0l-.25,0h-.11l0-.24v.24H33v0a8.64,8.64,0,0,1-4.46-2.13c-1.34-1-2.6-2-4.48-2a5.81,5.81,0,0,0-3.94,1.79,8.56,8.56,0,0,1-4.61,2.28,40.67,40.67,0,0,0,3.88,6.38,7,7,0,0,1,4.67-2c2.38,0,3.91,1.16,5.38,2.28a6.94,6.94,0,0,0,4,1.85,6.73,6.73,0,0,0,4.48-2,7.21,7.21,0,0,1,4.89-2.13c2.38,0,3.91,1.16,5.38,2.28,1.25.94,2.43,1.83,4.07,1.85a6.67,6.67,0,0,0,4.58-2,7.21,7.21,0,0,1,4.89-2.13c2.39,0,3.91,1.16,5.38,2.28a7,7,0,0,0,4,1.85A6.73,6.73,0,0,0,75.56,77Zm4.89-12.13c2.39,0,3.91,1.16,5.38,2.28C87.1,68.07,88.29,69,90,69h0a40.74,40.74,0,0,0,2.8-9,7.38,7.38,0,0,1-2.8.53c-2.17,0-3.63-1.1-5-2.17s-2.6-2-4.48-2a5.79,5.79,0,0,0-3.93,1.79,8.44,8.44,0,0,1-5,2.32h0l-.25,0h-.56v0a8.63,8.63,0,0,1-4.47-2.13c-1.34-1-2.6-2-4.48-2s-2.76.83-3.94,1.79a8.25,8.25,0,0,1-5.22,2.33h-.26l-.31,0a8.33,8.33,0,0,1-4.71-2.15c-1.34-1-2.6-2-4.48-2a5.81,5.81,0,0,0-3.94,1.79,8.41,8.41,0,0,1-5,2.32h0l-.25,0H33v0a8.64,8.64,0,0,1-4.46-2.13c-1.34-1-2.6-2-4.48-2a5.81,5.81,0,0,0-3.94,1.79,8.09,8.09,0,0,1-5.61,2.35A6.12,6.12,0,0,1,12,60a41.08,41.08,0,0,0,2.79,9,6.75,6.75,0,0,0,4.33-2,7.21,7.21,0,0,1,4.89-2.13c2.38,0,3.91,1.16,5.38,2.28a6.94,6.94,0,0,0,4,1.85,6.73,6.73,0,0,0,4.48-2,7.21,7.21,0,0,1,4.89-2.13c2.38,0,3.91,1.16,5.38,2.28,1.25.94,2.43,1.83,4.07,1.85a6.67,6.67,0,0,0,4.58-2,7.21,7.21,0,0,1,4.89-2.13c2.39,0,3.91,1.16,5.38,2.28a7,7,0,0,0,4,1.85,6.73,6.73,0,0,0,4.48-2A7.21,7.21,0,0,1,80.45,64.84Z"/></svg>