<svg xmlns="http://www.w3.org/2000/svg" viewBox="0 0 104.3 104.3"><defs><style>.cls-1{fill:#56bcb0;}</style></defs><g id="Calque_2" data-name="Calque 2"><g id="Elements"><path id="Pic-Eau" class="cls-1" d="M92.41,39.13A42.31,42.31,0,0,0,12,38.87l-.19.55h0a42.47,42.47,0,0,0-1.65,7.76h0a41.14,41.14,0,0,0,.14,11c0,.13,0,.27.05.41h0a42,42,0,0,0,8,19h0c.2.27.41.53.61.79h0a42.82,42.82,0,0,0,8.49,8.14l.11.08c.56.4,1.14.8,1.73,1.18l.11.07c.6.38,1.2.75,1.81,1.1l.08.05a42.17,42.17,0,0,0,39.91,1h0c.67-.33,1.32-.69,2-1.06l.09,0c.61-.35,1.21-.72,1.8-1.1l.16-.1c.57-.38,1.14-.76,1.69-1.16l.16-.12c.6-.43,1.18-.88,1.75-1.34h0A42.6,42.6,0,0,0,90.56,69.89c.16-.35.32-.7.47-1h0A41.91,41.91,0,0,0,94,58.6h0a42.76,42.76,0,0,0,.49-6.45c0-1.27-.07-2.53-.18-3.77h0q0-.59-.12-1.17h0a41.77,41.77,0,0,0-1.66-7.77h0C92.48,39.33,92.45,39.23,92.41,39.13ZM52.15,10.83a41.38,41.38,0,0,1,39.09,28,5.87,5.87,0,0,1-1.53.19c-1.75,0-3-.93-4.28-1.91s-2.93-2.23-5.23-2.23a7,7,0,0,0-4.73,2.08,7,7,0,0,1-4.64,2,7.15,7.15,0,0,1-4.14-1.9c-1.44-1.1-2.93-2.23-5.23-2.23a7,7,0,0,0-4.73,2.08A6.9,6.9,0,0,1,52,39c-1.72,0-2.94-.93-4.22-1.9-1.44-1.1-2.93-2.23-5.23-2.23a7,7,0,0,0-4.73,2.08,7,7,0,0,1-4.65,2A7.15,7.15,0,0,1,29,37.07c-1.44-1.1-2.93-2.23-5.23-2.23a7,7,0,0,0-4.73,2.08A6.88,6.88,0,0,1,14.25,39a4.64,4.64,0,0,1-1.2-.16A41.39,41.39,0,0,1,52.15,10.83ZM33.16,70h.15v0a8,8,0,0,0,5.13-2.27c1.21-1,2.26-1.85,4.1-1.85s3.26,1,4.63,2A8,8,0,0,0,51.92,70h.13a8,8,0,0,0,5.32-2.28,6,6,0,0,1,4.09-1.85c2,0,3.26,1,4.63,2A8.16,8.16,0,0,0,70.66,70v0H71v0a8,8,0,0,0,5.14-2.27c1.21-1,2.25-1.85,4.09-1.85s3.26,1,4.63,2a8.12,8.12,0,0,0,4.6,2.1,41.4,41.4,0,0,1-4.21,6.94,8,8,0,0,0-5-2.06,7,7,0,0,0-4.73,2.08,7,7,0,0,1-4.64,2,7.15,7.15,0,0,1-4.14-1.9c-1.44-1.1-2.93-2.23-5.23-2.23a7,7,0,0,0-4.73,2.08A6.9,6.9,0,0,1,52,79c-1.72,0-2.94-.93-4.22-1.9-1.44-1.1-2.93-2.23-5.23-2.23a7,7,0,0,0-4.73,2.08,7,7,0,0,1-4.65,2A7.15,7.15,0,0,1,29,77.07c-1.44-1.1-2.93-2.23-5.23-2.23a7,7,0,0,0-4.71,2.06,40.58,40.58,0,0,1-4.22-7,8.09,8.09,0,0,0,4.83-2.25c1.21-1,2.26-1.85,4.1-1.85s3.26,1,4.63,2A8.16,8.16,0,0,0,33,70v0ZM35,89.71a9.15,9.15,0,0,0,3.47-2c1.21-1,2.26-1.85,4.1-1.85s3.26,1,4.63,2A8,8,0,0,0,51.92,90h.13a8,8,0,0,0,5.32-2.28,6,6,0,0,1,4.09-1.85c2,0,3.26,1,4.63,2a10.21,10.21,0,0,0,3.22,1.86,41.13,41.13,0,0,1-34.34,0ZM70.88,89h0a7.15,7.15,0,0,1-4.14-1.9c-1.44-1.1-2.93-2.23-5.23-2.23a7,7,0,0,0-4.73,2.08A6.9,6.9,0,0,1,52,89c-1.72,0-2.94-.93-4.22-1.9-1.44-1.1-2.93-2.23-5.23-2.23a7,7,0,0,0-4.73,2.08,7,7,0,0,1-4.41,2A41.51,41.51,0,0,1,19.71,77.69a6,6,0,0,1,4.09-1.85c2,0,3.26,1,4.63,2A8.16,8.16,0,0,0,33,80v0h.32v0a8,8,0,0,0,5.13-2.27c1.21-1,2.26-1.85,4.1-1.85s3.26,1,4.63,2A8,8,0,0,0,51.92,80h.13a8,8,0,0,0,5.32-2.28,6,6,0,0,1,4.09-1.85c2,0,3.26,1,4.63,2A8.16,8.16,0,0,0,70.66,80v0H71v0a8,8,0,0,0,5.14-2.27c1.21-1,2.25-1.85,4.09-1.85a7,7,0,0,1,4.4,1.85A41.52,41.52,0,0,1,70.88,89Zm19-20h-.17c-1.75,0-3-.93-4.28-1.91s-2.93-2.23-5.23-2.23a7,7,0,0,0-4.73,2.08,7,7,0,0,1-4.64,2,7.15,7.15,0,0,1-4.14-1.9c-1.44-1.1-2.93-2.23-5.23-2.23a7,7,0,0,0-4.73,2.08A6.9,6.9,0,0,1,52,69c-1.72,0-2.94-.93-4.22-1.9-1.44-1.1-2.93-2.23-5.23-2.23a7,7,0,0,0-4.73,2.08,7,7,0,0,1-4.65,2A7.15,7.15,0,0,1,29,67.07c-1.44-1.1-2.93-2.23-5.23-2.23a7,7,0,0,0-4.73,2.08,7,7,0,0,1-4.64,2,40.81,40.81,0,0,1-3-9.71,5.92,5.92,0,0,0,2.79.72,7.88,7.88,0,0,0,5.45-2.29c1.21-1,2.26-1.85,4.1-1.85s3.26,1,4.63,2A8.16,8.16,0,0,0,33,60v0h.32v0a8,8,0,0,0,5.13-2.27c1.21-1,2.26-1.85,4.1-1.85s3.26,1,4.63,2A8,8,0,0,0,51.92,60h.13a8,8,0,0,0,5.32-2.28,6,6,0,0,1,4.09-1.85c2,0,3.26,1,4.63,2A8.16,8.16,0,0,0,70.66,60v0H71v0a8,8,0,0,0,5.14-2.27c1.21-1,2.25-1.85,4.09-1.85s3.26,1,4.63,2S87.62,60,89.71,60a7,7,0,0,0,3.13-.7A40.78,40.78,0,0,1,89.88,69Zm3.59-16.82A41.92,41.92,0,0,1,93.05,58a5.9,5.9,0,0,1-3.34,1c-1.75,0-3-.93-4.28-1.91s-2.93-2.23-5.23-2.23a7,7,0,0,0-4.73,2.08,7,7,0,0,1-4.64,2,7.15,7.15,0,0,1-4.14-1.9c-1.44-1.1-2.93-2.23-5.23-2.23a7,7,0,0,0-4.73,2.08A6.9,6.9,0,0,1,52,59c-1.72,0-2.94-.93-4.22-1.9-1.44-1.1-2.93-2.23-5.23-2.23a7,7,0,0,0-4.73,2.08,7,7,0,0,1-4.65,2A7.15,7.15,0,0,1,29,57.07c-1.44-1.1-2.93-2.23-5.23-2.23a7,7,0,0,0-4.73,2.08A6.88,6.88,0,0,1,14.25,59a5.39,5.39,0,0,1-3-1,41.56,41.56,0,0,1-.42-5.83c0-1.06.06-2.12.14-3.17a6.11,6.11,0,0,0,3.28,1,7.88,7.88,0,0,0,5.45-2.29c1.21-1,2.26-1.85,4.1-1.85s3.26,1,4.63,2A8.16,8.16,0,0,0,33,50v0h.32v0a8,8,0,0,0,5.13-2.27c1.21-1,2.26-1.85,4.1-1.85s3.26,1,4.63,2A8,8,0,0,0,51.92,50h.13a8,8,0,0,0,5.32-2.28,6,6,0,0,1,4.09-1.85c2,0,3.26,1,4.63,2A8.16,8.16,0,0,0,70.66,50v0H71v0a8,8,0,0,0,5.14-2.27c1.21-1,2.25-1.85,4.09-1.85s3.26,1,4.63,2S87.62,50,89.71,50a7,7,0,0,0,3.63-1C93.42,50.05,93.47,51.1,93.47,52.15Zm-.22-4.25A6,6,0,0,1,89.71,49c-1.75,0-3-.93-4.28-1.91s-2.93-2.23-5.23-2.23a7,7,0,0,0-4.73,2.08,7,7,0,0,1-4.64,2,7.15,7.15,0,0,1-4.14-1.9c-1.44-1.1-2.93-2.23-5.23-2.23a7,7,0,0,0-4.73,2.08A6.9,6.9,0,0,1,52,49c-1.72,0-2.94-.93-4.22-1.9-1.44-1.1-2.93-2.23-5.23-2.23a7,7,0,0,0-4.73,2.08,7,7,0,0,1-4.65,2A7.15,7.15,0,0,1,29,47.07c-1.44-1.1-2.93-2.23-5.23-2.23a7,7,0,0,0-4.73,2.08A6.88,6.88,0,0,1,14.25,49a5.51,5.51,0,0,1-3.19-1.13,41.79,41.79,0,0,1,1.67-8.09,5.63,5.63,0,0,0,1.52.22,7.88,7.88,0,0,0,5.45-2.29c1.21-1,2.26-1.85,4.1-1.85s3.26,1,4.63,2A8.16,8.16,0,0,0,33,40v0h.32v0a8,8,0,0,0,5.13-2.27c1.21-1,2.26-1.85,4.1-1.85s3.26,1,4.63,2A8,8,0,0,0,51.92,40h.13a8,8,0,0,0,5.32-2.28,6,6,0,0,1,4.09-1.85c2,0,3.26,1,4.63,2A8.16,8.16,0,0,0,70.66,40v0H71v0a8,8,0,0,0,5.14-2.27c1.21-1,2.25-1.85,4.09-1.85s3.26,1,4.63,2S87.62,40,89.71,40a7.35,7.35,0,0,0,1.85-.24A40.76,40.76,0,0,1,93.25,47.9Zm11,4.25A52.15,52.15,0,1,1,12.38,18.42a.49.49,0,0,1,.7-.06.51.51,0,0,1,.06.71,51.05,51.05,0,1,0,9.79-8.91.5.5,0,0,1-.57-.82A52.16,52.16,0,0,1,104.3,52.15Z"/></g></g></svg>