<?xml version="1.0" encoding="utf-8"?>
<!-- Generator: Adobe Illustrator 24.1.3, SVG Export Plug-In . SVG Version: 6.00 Build 0)  -->
<svg version="1.1" id="Calque_1" xmlns="http://www.w3.org/2000/svg" xmlns:xlink="http://www.w3.org/1999/xlink" x="0px" y="0px"
	 viewBox="0 0 155.2 267.9" style="enable-background:new 0 0 155.2 267.9;" xml:space="preserve">
<style type="text/css">
	.st0{fill:#fff;}
</style>
<path id="Eclair-eclairage" transform="translate(1.5 1.976)" class="st0" d="M54.7,262.9c-0.1,0-0.2,0-0.3,0
	c-0.8-0.2-1.4-0.9-1.2-1.7l17.3-93.8H0c-0.5,0-1-0.3-1.3-0.7s-0.3-1-0.1-1.4L71.4-0.6c0.3-0.8,1.2-1.1,2-0.8s1.1,1.2,0.8,2
	L2.3,164.3h70c0.4,0,0.9,0.2,1.2,0.5c0.3,0.3,0.4,0.8,0.3,1.2l-17.7,95.6C56,262.4,55.4,262.9,54.7,262.9z M80.3,265.5
	c-0.2,0-0.4,0-0.6-0.1c-0.8-0.3-1.1-1.2-0.8-2l71-163.3h-70c-0.4,0-0.9-0.2-1.2-0.5c-0.3-0.3-0.4-0.8-0.3-1.2l19-96.9
	c0.2-0.8,0.9-1.3,1.8-1.2c0.8,0.2,1.3,0.9,1.2,1.8l-18.7,95h70.5c0.5,0,1,0.3,1.3,0.7c0.3,0.4,0.3,1,0.1,1.4L81.7,264.6
	C81.5,265.1,80.9,265.5,80.3,265.5z"/>
</svg>
