<?xml version="1.0" encoding="utf-8"?>
<!-- Generator: Adobe Illustrator 24.1.3, SVG Export Plug-In . SVG Version: 6.00 Build 0)  -->
<svg version="1.1" id="Calque_1" xmlns="http://www.w3.org/2000/svg" xmlns:xlink="http://www.w3.org/1999/xlink" x="0px" y="0px"
	 viewBox="0 0 11.5 37.8" style="enable-background:new 0 0 11.5 37.8;" xml:space="preserve">
<style type="text/css">
	.st0{fill:#EC6557;}
</style>
<g id="Eclair-menu" transform="translate(1 1.166)">
	<path class="st0" d="M1.3,36.4c-0.1,0-0.2,0-0.3-0.1c-0.5-0.2-0.8-0.8-0.6-1.3L8,13.6H0c-0.3,0-0.6-0.1-0.8-0.4
		C-1,13-1,12.7-1,12.4L1.4-0.2C1.5-0.7,2-1.1,2.5-1c0.5,0.1,0.9,0.6,0.8,1.2L1.2,11.6h8.3c0.3,0,0.6,0.2,0.8,0.4
		c0.2,0.3,0.2,0.6,0.1,0.9L2.2,35.7C2.1,36.1,1.7,36.4,1.3,36.4z"/>
</g>
</svg>
