<svg xmlns="http://www.w3.org/2000/svg" width="96.609" height="69.414" viewBox="0 0 96.609 69.414">
  <g id="logo-Footer" transform="translate(-3636.257 -446.463)">
    <g id="icon-1" transform="translate(3683.503 446.464)">
      <path id="Tracé_553" data-name="Tracé 553" d="M3721.053,515.877a1.164,1.164,0,0,1-1.1-1.558l14.963-41.669h-16.31a1.164,1.164,0,0,1-1.145-1.376l4.429-23.859a1.164,1.164,0,0,1,2.289.425l-4.173,22.483h16.564a1.163,1.163,0,0,1,1.1,1.557l-15.522,43.226A1.164,1.164,0,0,1,3721.053,515.877Z" transform="translate(-3717.447 -446.464)" fill="#d84341"/>
      <path id="Tracé_554" data-name="Tracé 554" d="M3784.469,516.114a1.164,1.164,0,0,1-1.092-.762l-15.9-43.227a1.163,1.163,0,0,1,1.092-1.565h16.581l-3.85-22.167a1.164,1.164,0,0,1,2.294-.4l4.086,23.53a1.163,1.163,0,0,1-1.146,1.363h-16.3l15.326,41.661a1.166,1.166,0,0,1-1.093,1.566Z" transform="translate(-3738.333 -446.7)" fill="#ede9e1"/>
      <path id="Tracé_555" data-name="Tracé 555" d="M3763.424,549.471a1.163,1.163,0,0,1-.994-.557l-11.7-19.127a1.314,1.314,0,0,0-1.141-.641,1.3,1.3,0,0,0-1.143.637l-11.8,19.135a1.164,1.164,0,0,1-1.981-1.222l11.8-19.134a3.643,3.643,0,0,1,3.122-1.743h.006a3.643,3.643,0,0,1,3.123,1.755l11.7,19.127a1.164,1.164,0,0,1-.992,1.771Z" transform="translate(-3724.572 -480.057)" fill="#ede9e1"/>
      <path id="Tracé_556" data-name="Tracé 556" d="M3762.343,464.21h-9.83a1.164,1.164,0,0,1-1.018-1.728c.044-.08,4.375-8.02.394-11.43a3.477,3.477,0,0,0-2.279-.618,3.155,3.155,0,0,0-2.207.659c-4.017,3.414.544,11.284.59,11.362a1.164,1.164,0,0,1-1,1.755h-10.076a1.164,1.164,0,0,1,0-2.328h8.182c-1.349-2.989-3.326-9.057.8-12.563a5.417,5.417,0,0,1,3.714-1.213,5.672,5.672,0,0,1,3.793,1.178c4.077,3.492,2.218,9.61.952,12.6h7.987a1.164,1.164,0,1,1,0,2.328Z" transform="translate(-3725.099 -447.15)" fill="#ede9e1"/>
    </g>
    <g id="icon-1-2" data-name="icon-1" transform="translate(3636.256 446.463)">
      <path id="Tracé_557" data-name="Tracé 557" d="M3700.913,515.877a1.231,1.231,0,0,1-.213-.02,1.164,1.164,0,0,1-.932-1.357l4.172-22.483h-16.564a1.164,1.164,0,0,1-1.1-1.557l15.522-43.226a1.163,1.163,0,1,1,2.19.787l-14.962,41.669h16.309a1.164,1.164,0,0,1,1.145,1.376l-4.428,23.859A1.164,1.164,0,0,1,3700.913,515.877Z" transform="translate(-3657.141 -446.464)" fill="#d84341"/>
      <path id="Tracé_558" data-name="Tracé 558" d="M3641.5,515.548a1.164,1.164,0,0,1-1.146-.965l-4.086-23.53a1.165,1.165,0,0,1,1.147-1.363h16.3l-15.326-41.661a1.164,1.164,0,1,1,2.185-.8l15.9,43.226a1.163,1.163,0,0,1-1.092,1.565H3638.8l3.851,22.167a1.164,1.164,0,0,1-.949,1.346A1.1,1.1,0,0,1,3641.5,515.548Z" transform="translate(-3636.255 -446.464)" fill="#ede9e1"/>
      <path id="Tracé_559" data-name="Tracé 559" d="M3667.321,469.116h-.008a3.643,3.643,0,0,1-3.122-1.754l-11.7-19.128a1.164,1.164,0,0,1,1.986-1.214l11.7,19.128a1.315,1.315,0,0,0,1.141.641h0a1.314,1.314,0,0,0,1.141-.637l11.8-19.135a1.164,1.164,0,1,1,1.981,1.222l-11.8,19.135A3.645,3.645,0,0,1,3667.321,469.116Z" transform="translate(-3642.972 -446.463)" fill="#ede9e1"/>
      <path id="Tracé_560" data-name="Tracé 560" d="M3668.979,552.533a5.672,5.672,0,0,1-3.793-1.178c-4.078-3.493-2.219-9.61-.953-12.6h-7.987a1.164,1.164,0,0,1,0-2.328h9.83a1.164,1.164,0,0,1,1.018,1.728c-.045.08-4.376,8.02-.395,11.43a3.48,3.48,0,0,0,2.28.618,3.16,3.16,0,0,0,2.207-.659c4.016-3.414-.544-11.283-.591-11.363a1.165,1.165,0,0,1,1-1.755h10.076a1.164,1.164,0,1,1,0,2.328h-8.182c1.35,2.989,3.326,9.057-.8,12.563A5.415,5.415,0,0,1,3668.979,552.533Z" transform="translate(-3644.126 -484.075)" fill="#ede9e1"/>
    </g>
  </g>
</svg>
