<svg xmlns="http://www.w3.org/2000/svg" width="172.437" height="180.819" viewBox="0 0 172.437 180.819">
  <g id="pic-Expertise" transform="translate(0.001)">
    <path id="Expertise" d="M171.762,79.523,160.505,75.3l.755-2.345a1,1,0,0,0-.571-1.244l-37.725-16.15,1.285-4.078a1,1,0,0,0-.571-1.244L51.368,20.387,53.04,14.8a1.02,1.02,0,0,0-.551-1.244L23.431.1a1,1,0,0,0-.836,0,1.1,1.1,0,0,0-.571.632l-22,68.843a1.04,1.04,0,0,0,.1.816,1.02,1.02,0,0,0,.693.489L32.363,76.77h.285a1.02,1.02,0,0,0,.958-.714l1.754-5.506,41.314,9.462a12.48,12.48,0,0,0,1.754,9.095L48.962,177.751a1.02,1.02,0,0,0,.653,1.285l5.241,1.774a.918.918,0,0,0,.326,0,.877.877,0,0,0,.449-.122.918.918,0,0,0,.51-.591L84.688,94.185A12.807,12.807,0,0,0,89.113,95a12.5,12.5,0,0,0,4.853-.979l29.16,86.095a1.02,1.02,0,0,0,.979.693h.326l5.241-1.774a1.04,1.04,0,0,0,.591-.51.938.938,0,0,0,0-.775L100.1,88.659a12.357,12.357,0,0,0,1.224-2.977l10.2,2.345h.224a1.04,1.04,0,0,0,.979-.714l1.489-4.67L154.2,91.962h.245a1,1,0,0,0,.958-.714l.755-2.345,11.623,3.079h.265a1.02,1.02,0,0,0,.979-.714l3.344-10.5A1.02,1.02,0,0,0,171.762,79.523ZM31.893,74.609,2.366,69.082,23.635,2.421,51,15.024Zm22.553,104-3.3-1.2L79.9,91.024a12.235,12.235,0,0,0,2.916,2.3Zm24-96.25A10.645,10.645,0,1,1,89.093,93.023,10.645,10.645,0,0,1,78.448,82.358ZM128.041,177.4l-3.324,1.1L95.863,93.145A12.7,12.7,0,0,0,98.738,90.7Zm-16.884-91.56L101.715,83.6V82.276a12.663,12.663,0,0,0-24.593-4.3L36.115,68.654,51,22.3,122.026,51.77Zm42.6,3.874-38.5-8.911,7.382-23.165,36.44,15.579Zm13.622,0-10.339-2.692,3.1-9.707,10.053,3.772Z" transform="translate(0.02 -0.005)" fill="#fff"/>
  </g>
</svg>
