<svg xmlns="http://www.w3.org/2000/svg" viewBox="0 0 104.46 104.49"><defs><style>.cls-1{fill:#e7cc6a;}</style></defs><g id="Calque_2" data-name="Calque 2"><g id="Elements"><path id="pic-Feu" class="cls-1" d="M9.59,52.4A42.63,42.63,0,1,0,52.22,9.77,42.67,42.67,0,0,0,9.59,52.4Zm52,6.45a.5.5,0,0,0,.56,0,18.44,18.44,0,0,0,7.35-7.76c1.85,2.16,7.87,10.38,5.12,23.27-2.15,10.1-7.18,16.32-15,18.59a8.62,8.62,0,0,0,2.49-3c3.13-5.88,1.24-15.45-2.48-20.69-5.42-7.64-5.91-14-5.91-14.09a.5.5,0,0,0-.32-.44.52.52,0,0,0-.53.12C43.6,64.23,39.32,78.09,43,87.15a11.39,11.39,0,0,0,6.61,6.69,20.41,20.41,0,0,1-16-9.69C29.6,77.67,29,68.86,32,62.24a75.69,75.69,0,0,1,6.19-10.71c4.06-6.17,7.9-12,10.39-24.58C60.23,36.32,63.94,50,61.45,58.3A.51.51,0,0,0,61.63,58.85ZM43.88,86.78c-3.4-8.48.47-21.39,9-30.42a33.26,33.26,0,0,0,6,13.55c4,5.61,5.09,14.61,2.42,19.64A7.45,7.45,0,0,1,54,93.65C49.15,93.54,45.64,91.17,43.88,86.78Zm50-34.38A41.7,41.7,0,0,1,63.51,92.46c6.14-3.11,10.27-9.12,12.13-17.88C79,59,69.81,49.91,69.72,49.83a.5.5,0,0,0-.48-.13.5.5,0,0,0-.35.34s-1.2,3.81-6.15,7.28c1.91-8.85-2.27-22.47-14.22-31.66a.48.48,0,0,0-.49-.07.49.49,0,0,0-.31.37c-2.44,12.93-6.31,18.8-10.4,25a77.79,77.79,0,0,0-6.26,10.84c-3.15,6.92-2.47,16.1,1.69,22.85a20.93,20.93,0,0,0,8.63,7.92A41.63,41.63,0,1,1,93.85,52.4Zm4.86,23.73A51.87,51.87,0,0,1,68.21,102a52,52,0,0,1-39.85-3.3A52.24,52.24,0,0,1,69.6,3a.5.5,0,0,1-.33.94A51.41,51.41,0,0,0,6.7,28.79,51.24,51.24,0,0,0,67.9,101,50.85,50.85,0,0,0,97.82,75.67a51.39,51.39,0,0,0-16.1-65.36.51.51,0,0,1-.12-.7.5.5,0,0,1,.7-.12A52.4,52.4,0,0,1,98.71,76.13Z"/></g></g></svg>