<?xml version="1.0" encoding="utf-8"?>
<!-- Generator: Adobe Illustrator 24.1.3, SVG Export Plug-In . SVG Version: 6.00 Build 0)  -->
<svg version="1.1" id="Calque_1" xmlns="http://www.w3.org/2000/svg" xmlns:xlink="http://www.w3.org/1999/xlink" x="0px" y="0px"
	 viewBox="0 0 105 105" style="enable-background:new 0 0 105 105;" xml:space="preserve">
<style type="text/css">
	.st0{fill:#E6CB6A;}
</style>
<path id="pic-Feu" class="st0" d="M9.6,52.7c0,23.6,19.2,42.9,42.9,42.9s42.9-19.2,42.9-42.9S76.1,9.8,52.5,9.8S9.6,29,9.6,52.7z
	 M32.5,62.6c1.9-4.3,4.1-7.5,6.2-10.7c4-6.1,7.8-11.9,10.3-24.3c8.5,7,15.7,20.1,12.5,30.8c-0.1,0.3,0,0.6,0.3,0.8
	c0.2,0.2,0.6,0.2,0.9,0c4.4-2.7,6.4-5.8,7.3-7.5c2.1,2.6,7.4,10.5,4.8,22.8c-2,9.5-6.6,15.5-13.7,18c0.6-0.6,1.2-1.4,1.6-2.2
	c3.2-6,1.3-15.6-2.5-21c-5.4-7.6-5.9-13.9-5.9-14c0-0.3-0.2-0.5-0.5-0.7c-0.3-0.1-0.6,0-0.8,0.2c-9.4,9.4-13.7,23.4-10,32.5
	c1.1,2.7,2.9,4.8,5.3,6.1c-6-1-11-4.3-14.2-9.4C30.1,77.9,29.5,69.1,32.5,62.6z M53,57.1c0.4,2.3,1.8,7.4,5.9,13.2
	c3.9,5.5,5,14.4,2.4,19.4c-1.4,2.7-3.8,4-7,4c-4.8-0.1-8.2-2.4-9.9-6.7C41.1,78.6,44.7,66.2,53,57.1z M76.2,74.9
	c3.4-15.8-5.9-24.9-6-25c-0.2-0.2-0.5-0.3-0.7-0.2c-0.3,0.1-0.5,0.3-0.5,0.5c0,0-1.1,3.5-5.5,6.8c0.8-4.5,0.1-9.9-2-15.2
	C58.8,35.6,54.5,30,49,25.7c-0.2-0.2-0.5-0.2-0.7-0.1c-0.2,0.1-0.4,0.3-0.5,0.6C45.3,39,41.5,44.9,37.4,51.1
	c-2.1,3.2-4.3,6.5-6.3,10.9c-3.2,7-2.5,16.3,1.7,23.1c1.8,2.9,4,5.2,6.8,6.9c-16.9-5.5-28.5-21.4-28.5-39.3
	c0-22.8,18.6-41.4,41.4-41.4s41.4,18.6,41.4,41.4c0,17.7-11.4,33.5-28,39.2C71,88.4,74.5,82.7,76.2,74.9z M99.2,76.5
	c-6.4,12.5-17.3,21.7-30.6,26c-5.2,1.7-10.6,2.5-16.1,2.5c-8.4,0-16.4-2-24-5.8c-12.5-6.4-21.7-17.3-26-30.6
	c-4.3-13.4-3.1-27.6,3.3-40C17.8,5.2,45.4-5.7,70,3c0.4,0.1,0.6,0.6,0.5,1c-0.1,0.2-0.2,0.3-0.4,0.4c-0.2,0.1-0.4,0.1-0.6,0
	C45.6-4.1,18.8,6.6,7.2,29.2C1,41.3-0.2,55.1,4,68s13.1,23.5,25.2,29.8c12.1,6.2,25.9,7.4,38.9,3.2c13-4.2,23.5-13.1,29.8-25.2
	c11.6-22.6,4.7-50.5-16-65c-0.2-0.1-0.3-0.3-0.3-0.5c0-0.2,0-0.4,0.1-0.6c0.2-0.3,0.7-0.4,1-0.2C104.1,24.5,111.2,53.3,99.2,76.5z"
	/>
</svg>
