<svg id="pictos-Philosophie-aplat" xmlns="http://www.w3.org/2000/svg" width="146.456" height="205.021" viewBox="0 0 146.456 205.021">
  <path id="Innovation" d="M84.81,99.472A15.049,15.049,0,1,0,69.761,84.443,15.049,15.049,0,0,0,84.81,99.472Zm0-27.855A12.826,12.826,0,1,1,71.983,84.443,12.827,12.827,0,0,1,84.81,71.617ZM137.4,113.93,119.517,106.2h0a117.926,117.926,0,0,0-12.765-53.59.938.938,0,0,0,0-.408,1.1,1.1,0,0,0-.856-1.06A108.444,108.444,0,0,0,85.5,22.595a1.1,1.1,0,0,0-.8-.306,1.142,1.142,0,0,0-.775.347A140.99,140.99,0,0,0,63.541,51.388a1.1,1.1,0,0,0-.306.612,111.3,111.3,0,0,0-13.214,54.487L32.79,113.93a1.081,1.081,0,0,0-.673,1v58.545a1.121,1.121,0,0,0,.469.9,1.02,1.02,0,0,0,.632.2,1.163,1.163,0,0,0,.367,0l32.627-11.358V175.8a1.122,1.122,0,0,0,1.122,1.1H102a1.1,1.1,0,0,0,1.1-1.1V162.952l33.524,11.562a1.162,1.162,0,0,0,.367,0,1.02,1.02,0,0,0,.632-.2,1.081,1.081,0,0,0,.469-.9V114.929A1.081,1.081,0,0,0,137.4,113.93ZM84.953,24.98A108.505,108.505,0,0,1,103.53,51.1H66.437A136.381,136.381,0,0,1,84.953,24.98ZM65.254,53.3h39.4c13.173,26.509,21.391,65.784-3.426,107.2H67.844C43.659,116.52,51.9,79.039,65.254,53.3Zm-30.71,62.358,15.722-6.791a120.067,120.067,0,0,0,15.4,52.224L34.544,171.9Zm66.478,58.953H68.6V162.707h1c2.753.122,7.015.163,11.562.163,6.383,0,13.3,0,17.415-.163h2.447Zm34.85-2.712-32.219-11.216a109.871,109.871,0,0,0,15.7-52.142l16.517,7.117ZM36.053,49.655a.775.775,0,0,0,.306-.693l-.591-4.609,3.181-3.385a.734.734,0,0,0-.408-1.224l-4.547-.877L31.75,34.789A.714.714,0,0,0,31.1,34.4a.693.693,0,0,0-.632.387l-2.243,4.078-4.568.877a.734.734,0,0,0-.387,1.224l3.242,3.385-.653,4.588a.775.775,0,0,0,.306.693.816.816,0,0,0,.428.143.53.53,0,0,0,.306,0l4.2-2.039,4.2,2.039A.775.775,0,0,0,36.053,49.655ZM31.424,46.27a.693.693,0,0,0-.632,0l-3.3,1.55.449-3.63a.714.714,0,0,0-.184-.591l-2.488-2.651,3.569-.693a.734.734,0,0,0,.51-.367L31.1,36.706l1.774,3.2a.734.734,0,0,0,.51.367l3.569.693-2.488,2.651a.714.714,0,0,0-.184.591l.387,3.609Zm115.01,27.284a.755.755,0,0,0-.571-.51l-3.548-.673-1.754-3.181a.734.734,0,0,0-1.305,0L137.5,72.371l-3.569.673a.734.734,0,0,0-.551.51.755.755,0,0,0,.163.734l2.488,2.651-.469,3.589a.754.754,0,0,0,1.06.775l3.283-1.55,3.283,1.55a.816.816,0,0,0,.306,0,.734.734,0,0,0,.449-.143.754.754,0,0,0,.285-.693l-.449-3.589,2.488-2.651a.755.755,0,0,0,.163-.673Zm-3.956,2.631a.755.755,0,0,0-.2.591l.326,2.61-2.386-1.122h-.306a.755.755,0,0,0-.306,0L137.2,79.386l.326-2.61a.673.673,0,0,0-.184-.591l-1.815-2.039,2.61-.489a.734.734,0,0,0,.53-.245l1.285-2.325,1.224,2.325a.836.836,0,0,0,.51.367l2.59.489ZM86.523,188.2v15.355a1.468,1.468,0,0,1-2.936,0V188.2a1.468,1.468,0,0,1,2.936,0Zm8.626,0v8.32a1.489,1.489,0,0,1-2.957,0V188.2a1.489,1.489,0,1,1,2.957,0Zm-17.231,0v8.32a1.489,1.489,0,0,1-2.957,0V188.2a1.489,1.489,0,1,1,2.957,0ZM4.935,115.622a4.935,4.935,0,1,0,4.935,4.935,4.935,4.935,0,0,0-4.935-4.935Zm0,8.4A3.467,3.467,0,1,1,8.4,120.557a3.467,3.467,0,0,1-3.467,3.467ZM37.276,83.607a3.405,3.405,0,1,0,3.385-3.385A3.405,3.405,0,0,0,37.276,83.607Zm3.385-2.039a1.917,1.917,0,1,1-1.917,2.039,1.937,1.937,0,0,1,1.917-2.039Zm83.423-43.72a3.834,3.834,0,1,0-3.772-3.813A3.834,3.834,0,0,0,124.085,37.848Zm0-6.118a.983.983,0,1,1,0-.061ZM71.718,6.668l-.347,2.977a.632.632,0,0,0,.2.551.591.591,0,0,0,.632,0L74.9,8.932,77.612,10.2h.245a.653.653,0,0,0,.367,0,.632.632,0,0,0,.245-.551l-.387-2.977L80.12,4.507a.673.673,0,0,0,.122-.612.612.612,0,0,0-.469-.408l-2.9-.551L75.45.306a.612.612,0,0,0-1.06,0L72.942,2.937l-2.916.551a.606.606,0,0,0-.326,1.02Zm1.693-2.59a.591.591,0,0,0,.428-.306l1.04-1.9,1.04,1.9a.591.591,0,0,0,.428.306l2.039.408L77.02,6.118a.612.612,0,0,0-.163.489l.265,2.162-2.039-.938a.8.8,0,0,0-.53,0l-2.039.938.265-2.162a.591.591,0,0,0,.02-.489L71.372,4.466Z" transform="translate(0 0)" fill="#fff"/>
</svg>
