<svg xmlns="http://www.w3.org/2000/svg" viewBox="0 0 230.41 165.25"><defs><style>.cls-1{fill:#e64646;}.cls-2{fill:#eeeae6;}</style></defs><g id="Calque_2" data-name="Calque 2"><g id="Logos-DEF"><g id="Icone-fond-sombre"><g id="icon-1"><path class="cls-1" d="M121.56,165.25a2.77,2.77,0,0,1-2.61-3.71l35.63-99.2H115.75A2.78,2.78,0,0,1,113,59.07l10.55-56.8a2.77,2.77,0,1,1,5.45,1L119.08,56.8h39.44a2.77,2.77,0,0,1,2.6,3.71L124.17,163.42A2.77,2.77,0,0,1,121.56,165.25Z"/><path class="cls-2" d="M221.83,165.25a2.81,2.81,0,0,0,.94-.16,2.78,2.78,0,0,0,1.67-3.55l-35.62-99.2h38.82a2.78,2.78,0,0,0,2.73-3.27L219.83,2.27a2.77,2.77,0,1,0-5.45,1l9.93,53.52H184.88a2.77,2.77,0,0,0-2.61,3.71l36.95,102.91A2.77,2.77,0,0,0,221.83,165.25Z"/><path class="cls-2" d="M8.58,0A2.76,2.76,0,0,0,6,3.71l35.62,99.2H2.77a2.76,2.76,0,0,0-2.72,3.27L10.59,163A2.77,2.77,0,0,0,16,162L6.1,108.45H45.54a2.77,2.77,0,0,0,2.6-3.71L11.19,1.84A2.77,2.77,0,0,0,8.58,0Z"/><path class="cls-2" d="M205.47,165.25a2.76,2.76,0,0,1-2.36-1.32l-27.86-45.54a3.14,3.14,0,0,0-2.71-1.53h0a3.16,3.16,0,0,0-2.72,1.52l-28.09,45.55A2.77,2.77,0,0,1,137,161l28.1-45.56a8.67,8.67,0,0,1,7.43-4.15h0A8.68,8.68,0,0,1,180,115.5L207.83,161a2.77,2.77,0,0,1-2.36,4.22Z"/><path class="cls-2" d="M201.64,40.61h-23.4a2.77,2.77,0,0,1-2.42-4.11c.11-.19,10.42-19.09.94-27.21-1.14-1-3-1.47-5.43-1.47a7.5,7.5,0,0,0-5.25,1.57c-9.57,8.12,1.29,26.86,1.4,27a2.77,2.77,0,0,1-2.38,4.18h-24a2.77,2.77,0,0,1,0-5.54h19.48c-3.21-7.11-7.92-21.56,1.9-29.91a12.91,12.91,0,0,1,8.84-2.89c3.82,0,6.86,1,9,2.81,9.71,8.31,5.28,22.88,2.27,30h19a2.77,2.77,0,1,1,0,5.54Z"/></g><g id="icon-1-2" data-name="icon-1"><path class="cls-1" d="M104.7,165.25a2.18,2.18,0,0,1-.5-.05A2.76,2.76,0,0,1,102,162l9.93-53.52H72.48a2.77,2.77,0,0,1-2.61-3.71L106.82,1.84A2.77,2.77,0,1,1,112,3.71l-35.63,99.2h38.83a2.78,2.78,0,0,1,2.73,3.27L107.43,163A2.78,2.78,0,0,1,104.7,165.25Z"/><path class="cls-2" d="M58.46,53.93h0A8.7,8.7,0,0,1,51,49.75L23.16,4.22a2.77,2.77,0,1,1,4.73-2.89L55.74,46.86a3.14,3.14,0,0,0,2.72,1.53h0a3.13,3.13,0,0,0,2.72-1.52L89.27,1.32A2.77,2.77,0,1,1,94,4.23L65.9,49.78A8.68,8.68,0,0,1,58.46,53.93Z"/><path class="cls-2" d="M59.66,163c-3.82,0-6.86-.95-9-2.81-9.71-8.31-5.28-22.88-2.27-30h-19a2.77,2.77,0,0,1,0-5.54h23.4a2.76,2.76,0,0,1,2.42,4.11c-.1.19-10.41,19.09-.93,27.21,1.14,1,3,1.48,5.42,1.48a7.5,7.5,0,0,0,5.25-1.57c9.57-8.13-1.29-26.87-1.4-27.05a2.77,2.77,0,0,1,2.39-4.18h24a2.77,2.77,0,1,1,0,5.54H70.41c3.21,7.12,7.91,21.56-1.91,29.91A12.87,12.87,0,0,1,59.66,163Z"/></g></g></g></g></svg>