<svg id="Logo-DEF" xmlns="http://www.w3.org/2000/svg" width="286.402" height="55" viewBox="0 0 286.402 55">
  <g id="logo-Horizontal">
    <path id="Tracé_467" data-name="Tracé 467" d="M208.413,27.4,206.5,11.523l-6.645,13.611h-2.4l-6.707-13.611L188.833,27.4H186.14L188.679,6.56h2.482l7.44,15.461,7.45-15.461h2.482L211.106,27.4Z" transform="translate(-93.529 -3.36)" fill="#e5403b"/>
    <path id="Tracé_468" data-name="Tracé 468" d="M259.717,20.58l-8.772,20.994h-2.784l2.932-7.263L245.44,20.58h2.841l4.264,10.406,4.312-10.406Z" transform="translate(-123.513 -10.091)" fill="#e5403b"/>
    <path id="Tracé_469" data-name="Tracé 469" d="M318.979,21.537A5.841,5.841,0,0,1,312.9,27.4h-8.5V6.56h7.833c3.45,0,5.629,2.06,5.629,5.328a4.364,4.364,0,0,1-2.635,4.413C317.681,16.832,318.979,19.266,318.979,21.537ZM307.15,9.1v6.137H312.3c1.873,0,2.812-1.3,2.812-3.085A2.753,2.753,0,0,0,312.2,9.1Zm9.079,12.188a3.493,3.493,0,0,0-3.751-3.632H307.15v7.187h5.174C314.9,24.862,316.229,23.228,316.229,21.292Z" transform="translate(-153.18 -3.36)" fill="#e5403b"/>
    <path id="Tracé_470" data-name="Tracé 470" d="M344.93,7.839a1.864,1.864,0,0,1,3.718,0,1.864,1.864,0,0,1-3.718,0Zm.541,5.2h2.635V27.166h-2.635Z" transform="translate(-173.819 -3.124)" fill="#e5403b"/>
    <path id="Tracé_471" data-name="Tracé 471" d="M377,20.278V32.255c0,6.707-3.028,9.194-7.666,9.194a7.187,7.187,0,0,1-6.353-3.78l2.237-1.179a4.762,4.762,0,0,0,4.115,2.482c3.114,0,5.05-1.754,5.05-6.535v-.273a5.8,5.8,0,0,1-5.021,2.544,7.032,7.032,0,0,1-7.076-7.383A6.961,6.961,0,0,1,369.338,20a5.692,5.692,0,0,1,5.05,2.51V20.278ZM374.368,27.3a4.791,4.791,0,0,0-4.791-4.839,4.623,4.623,0,0,0-4.628,4.839,4.7,4.7,0,0,0,4.628,4.93,4.753,4.753,0,0,0,4.81-4.93Z" transform="translate(-182.311 -9.797)" fill="#e5403b"/>
    <path id="Tracé_472" data-name="Tracé 472" d="M440.754,21.537a5.844,5.844,0,0,1-6.08,5.864h-8.5V6.56h7.838c3.445,0,5.625,2.06,5.625,5.328A4.367,4.367,0,0,1,437,16.3C439.451,16.832,440.754,19.266,440.754,21.537ZM428.925,9.1v6.137h5.141c1.878,0,2.812-1.3,2.812-3.085a2.753,2.753,0,0,0-2.9-3.052ZM438,21.292a3.49,3.49,0,0,0-3.751-3.632h-5.323v7.187H434.1c2.568.014,3.9-1.619,3.9-3.555Z" transform="translate(-214.462 -3.36)" fill="#e5403b"/>
    <path id="Tracé_473" data-name="Tracé 473" d="M480.612,20.278V34.4h-2.63V32.164a5.8,5.8,0,0,1-5.021,2.544,7.033,7.033,0,0,1-7.081-7.383A6.961,6.961,0,0,1,472.928,20a5.643,5.643,0,0,1,5.055,2.51V20.278Zm-2.63,7.019a4.791,4.791,0,0,0-4.791-4.839,4.621,4.621,0,0,0-4.628,4.839,4.7,4.7,0,0,0,4.628,4.93,4.758,4.758,0,0,0,4.791-4.93Z" transform="translate(-233.013 -9.896)" fill="#e5403b"/>
    <path id="Tracé_474" data-name="Tracé 474" d="M522.388,26.2v8.145h-2.649V26.36c0-2.357-1.437-3.809-3.416-3.809a4.012,4.012,0,0,0-4.312,4.173V34.39h-2.63V20.252h2.63V22.4c.848-1.725,3.148-2.448,4.69-2.448C520.217,19.974,522.416,22.25,522.388,26.2Z" transform="translate(-255.672 -9.874)" fill="#e5403b"/>
    <path id="Tracé_475" data-name="Tracé 475" d="M561.608,20.278V32.255c0,6.707-3.023,9.194-7.666,9.194a7.187,7.187,0,0,1-6.353-3.78l2.223-1.179a4.758,4.758,0,0,0,4.116,2.482c3.114,0,5.05-1.754,5.05-6.535v-.273a5.8,5.8,0,0,1-5.021,2.544,7.032,7.032,0,0,1-7.076-7.383A6.961,6.961,0,0,1,553.928,20a5.7,5.7,0,0,1,5.05,2.51V20.278Zm-2.63,7.019a4.791,4.791,0,0,0-4.791-4.839,4.623,4.623,0,0,0-4.628,4.839,4.7,4.7,0,0,0,4.628,4.93,4.753,4.753,0,0,0,4.791-4.93Z" transform="translate(-275.206 -9.797)" fill="#e5403b"/>
    <g id="logo-1">
      <g id="icon-1" transform="translate(34.974 0.057)">
        <path id="Tracé_476" data-name="Tracé 476" d="M75.649,53.227a.863.863,0,0,1-.292-.05.9.9,0,0,1-.517-1.142L85.921,20.083H73.843a.855.855,0,0,1-.668-.32.922.922,0,0,1-.19-.737L76.272.729A.865.865,0,0,1,77.278.014a.892.892,0,0,1,.69,1.042L74.9,18.3h12.26a.849.849,0,0,1,.7.377.916.916,0,0,1,.105.814L76.459,52.616a.856.856,0,0,1-.81.611Z" transform="translate(-72.971 0.001)" fill="#e5403b"/>
        <path id="Tracé_477" data-name="Tracé 477" d="M130.531,53.551a.864.864,0,0,1-.81-.581L117.945,19.815A.926.926,0,0,1,118.05,19a.859.859,0,0,1,.7-.384h12.27l-2.841-17a.889.889,0,0,1,.711-.974.863.863,0,0,1,.985.671L132.9,19.353a.912.912,0,0,1-.187.73.846.846,0,0,1-.661.318H120L131.36,52.35a.918.918,0,0,1-.023.683.87.87,0,0,1-.484.464A.8.8,0,0,1,130.531,53.551Z" transform="translate(-96.372 -0.323)" fill="#77736b"/>
        <path id="Tracé_478" data-name="Tracé 478" d="M109.7,89a.858.858,0,0,1-.738-.412l-8.653-14.157a.958.958,0,0,0-.843-.479h0a.958.958,0,0,0-.843.479L89.884,88.6a.862.862,0,1,1-1.466-.906l8.734-14.162a2.688,2.688,0,0,1,2.309-1.289h0a2.7,2.7,0,0,1,2.319,1.322l8.657,14.157a.858.858,0,0,1-.733,1.308Z" transform="translate(-80.94 -35.776)" fill="#77736b"/>
        <path id="Tracé_479" data-name="Tracé 479" d="M109.126,13.361h-7.278a.862.862,0,0,1-.752-1.284c.034-.057,3.239-5.931.292-8.456A2.558,2.558,0,0,0,99.7,3.142a2.348,2.348,0,0,0-1.634.479c-2.975,2.525.4,8.351.436,8.408a.867.867,0,0,1-.743,1.3H90.3a.862.862,0,0,1,0-1.725h6.061c-1-2.213-2.463-6.707.589-9.3a4.005,4.005,0,0,1,2.75-.9,4.2,4.2,0,0,1,2.808.872c3.014,2.582,1.639,7.11.7,9.323h5.912a.862.862,0,1,1,0,1.725Z" transform="translate(-81.55 -0.732)" fill="#77736b"/>
      </g>
      <g id="icon-1-2" data-name="icon-1">
        <path id="Tracé_480" data-name="Tracé 480" d="M55.787,53.174a.851.851,0,0,1-.158,0,.892.892,0,0,1-.69-1.037l3.09-17.259H45.769a.848.848,0,0,1-.7-.369.915.915,0,0,1-.116-.808L56.448.539a.875.875,0,0,1,.658-.624.846.846,0,0,1,.839.314.919.919,0,0,1,.122.916L46.991,33.1H59.064a.851.851,0,0,1,.661.321.917.917,0,0,1,.187.731l-3.277,18.3a.871.871,0,0,1-.848.73Z" transform="translate(-23.377 0.111)" fill="#e5403b"/>
        <path id="Tracé_481" data-name="Tracé 481" d="M3.871,52.925a.872.872,0,0,1-.848-.745L-.014,34.135a.912.912,0,0,1,.189-.727.846.846,0,0,1,.659-.316H12.922L1.567,1.141A.92.92,0,0,1,1.678.218.847.847,0,0,1,2.52-.1a.875.875,0,0,1,.662.629L14.953,33.7a.921.921,0,0,1-.115.8.839.839,0,0,1-.7.377H1.874l2.846,17a.914.914,0,0,1-.142.667.855.855,0,0,1-.557.365Z" transform="translate(0.027 0.12)" fill="#77736b"/>
        <path id="Tracé_482" data-name="Tracé 482" d="M25.512,16.713h0a2.712,2.712,0,0,1-2.309-1.3L14.535,1.257A.862.862,0,1,1,16,.357l8.662,14.157a.958.958,0,0,0,.843.479h0a.958.958,0,0,0,.843-.479L35.089.352a.862.862,0,0,1,1.466.906L27.821,15.42a2.693,2.693,0,0,1-2.309,1.294Z" transform="translate(-7.475 0.113)" fill="#77736b"/>
        <path id="Tracé_483" data-name="Tracé 483" d="M27.136,92.8a4.187,4.187,0,0,1-2.808-.872c-3.018-2.587-1.643-7.115-.7-9.328H17.713a.862.862,0,1,1,0-1.72H24.99a.858.858,0,0,1,.752,1.279c-.034.057-3.239,5.936-.292,8.461a2.587,2.587,0,0,0,1.686.479,2.324,2.324,0,0,0,1.634-.479c2.97-2.558-.383-8.384-.436-8.442a.862.862,0,0,1,.743-1.3h7.455a.862.862,0,1,1,0,1.72H30.476c1,2.213,2.463,6.707-.589,9.3A4.005,4.005,0,0,1,27.136,92.8Z" transform="translate(-8.731 -40.217)" fill="#77736b"/>
      </g>
    </g>
    <path id="Tracé_484" data-name="Tracé 484" d="M189.735,84.121v3.267h3.421v1.241h-3.421v4.312H188.47V82.88h5.572v1.226Z" transform="translate(-94.947 -41.261)" fill="#676562"/>
    <path id="Tracé_485" data-name="Tracé 485" d="M207.71,89.509v6.813H206.5V95.244a2.621,2.621,0,0,1-2.309,1.226,3.567,3.567,0,0,1-.014-7.105,2.558,2.558,0,0,1,2.324,1.207V89.509ZM206.5,92.9a2.257,2.257,0,0,0-2.213-2.338A2.425,2.425,0,1,0,206.5,92.9Z" transform="translate(-101.215 -44.637)" fill="#676562"/>
    <path id="Tracé_486" data-name="Tracé 486" d="M218.66,83.487a.858.858,0,1,1,.848.848.843.843,0,0,1-.848-.848Zm.249,2.51h1.212v6.813h-1.212Z" transform="translate(-110.21 -41.126)" fill="#676562"/>
    <path id="Tracé_487" data-name="Tracé 487" d="M228.18,87.979h-1.4v5.716h-1.207V87.979H224.4V86.862h1.169V84.28h1.207v2.582h1.4Z" transform="translate(-113.075 -41.991)" fill="#676562"/>
    <path id="Tracé_488" data-name="Tracé 488" d="M240.12,93.471h-5.27a1.983,1.983,0,0,0,2.127,1.806,2.065,2.065,0,0,0,1.888-1.035l1.054.436a3.215,3.215,0,0,1-2.985,1.8A3.372,3.372,0,0,1,233.58,92.9a3.324,3.324,0,0,1,3.354-3.531,3.214,3.214,0,0,1,3.224,3.531C240.148,93.088,240.134,93.279,240.12,93.471Zm-1.183-1.1a1.916,1.916,0,0,0-2.012-1.811,1.945,1.945,0,0,0-2.07,1.811Z" transform="translate(-117.661 -44.642)" fill="#676562"/>
    <path id="Tracé_489" data-name="Tracé 489" d="M249.34,94.284h1.126a1.159,1.159,0,0,0,1.294,1.064c.819,0,1.308-.393,1.308-.958s-.378-.776-.891-.891l-.891-.22c-1.083-.307-1.706-.862-1.706-1.955A2.066,2.066,0,0,1,251.8,89.34a2.028,2.028,0,0,1,2.237,1.983h-1.169a.987.987,0,0,0-1.04-.877.958.958,0,0,0-1.044.92c0,.479.417.714.834.819l.958.244a1.947,1.947,0,0,1,1.7,1.974,2.246,2.246,0,0,1-2.515,2.041,2.309,2.309,0,0,1-2.419-2.161Z" transform="translate(-125.626 -44.626)" fill="#676562"/>
    <path id="Tracé_490" data-name="Tracé 490" d="M275.41,90.127h-5.27a1.988,1.988,0,0,0,2.127,1.806,2.065,2.065,0,0,0,1.888-1.035l1.059.436a3.229,3.229,0,0,1-2.99,1.8,3.372,3.372,0,0,1-3.354-3.574,3.324,3.324,0,0,1,3.354-3.531,3.214,3.214,0,0,1,3.224,3.531C275.438,89.744,275.424,89.935,275.41,90.127Zm-1.179-1.1a2.06,2.06,0,0,0-4.087,0Zm-1.4-3.833h-1.169L273,82.95h1.476Z" transform="translate(-135.439 -41.298)" fill="#676562"/>
    <path id="Tracé_491" data-name="Tracé 491" d="M291.58,89.512V99.64h-1.212V95.261a2.544,2.544,0,0,1-2.319,1.212,3.567,3.567,0,0,1,.014-7.105,2.611,2.611,0,0,1,2.3,1.227V89.512Zm-1.212,3.43a2.169,2.169,0,1,0-2.209,2.333,2.247,2.247,0,0,0,2.209-2.333Z" transform="translate(-143.466 -44.64)" fill="#676562"/>
    <path id="Tracé_492" data-name="Tracé 492" d="M308.854,89.67v6.813h-1.207V95.419a2.429,2.429,0,0,1-2.156,1.212c-1.624,0-2.625-1.112-2.611-3.023V89.67h1.207v3.866c0,1.14.652,1.84,1.557,1.84a1.916,1.916,0,0,0,2-2.012V89.67Z" transform="translate(-152.585 -44.798)" fill="#676562"/>
    <path id="Tracé_493" data-name="Tracé 493" d="M318.91,83.487a.858.858,0,1,1,.848.848.843.843,0,0,1-.848-.848Zm.254,2.51h1.226v6.813h-1.207Z" transform="translate(-160.745 -41.126)" fill="#676562"/>
    <path id="Tracé_494" data-name="Tracé 494" d="M332.815,92.928a3.273,3.273,0,0,1-3.234,3.545,2.554,2.554,0,0,1-2.324-1.212V99.64H326.05V89.512h1.207v1.083a2.616,2.616,0,0,1,2.309-1.226A3.315,3.315,0,0,1,332.815,92.928Zm-1.222,0a2.579,2.579,0,1,0,0,.014Z" transform="translate(-164.242 -44.64)" fill="#676562"/>
    <path id="Tracé_495" data-name="Tracé 495" d="M348.98,93.471h-5.27a1.988,1.988,0,0,0,2.127,1.806,2.074,2.074,0,0,0,1.892-1.035l1.054.436a3.229,3.229,0,0,1-2.99,1.8A3.375,3.375,0,0,1,342.44,92.9a3.326,3.326,0,0,1,3.354-3.531,3.216,3.216,0,0,1,3.224,3.531C349.009,93.088,348.994,93.279,348.98,93.471Zm-1.179-1.1a2.06,2.06,0,0,0-4.087,0Z" transform="translate(-172.503 -44.642)" fill="#676562"/>
    <path id="Tracé_496" data-name="Tracé 496" d="M372.184,89.509v6.813h-1.226V95.244a2.611,2.611,0,0,1-2.3,1.226,3.567,3.567,0,0,1-.014-7.105,2.554,2.554,0,0,1,2.319,1.207V89.509ZM370.958,92.9a2.252,2.252,0,0,0-2.209-2.338,2.488,2.488,0,1,0,2.209,2.338Z" transform="translate(-184.065 -44.637)" fill="#676562"/>
    <path id="Tracé_497" data-name="Tracé 497" d="M388.488,89.67l-2.707,6.813H384.6l-2.7-6.813h1.294l2,5.193,1.983-5.193Z" transform="translate(-192.382 -44.798)" fill="#676562"/>
    <path id="Tracé_498" data-name="Tracé 498" d="M403.24,93.471h-5.27a1.988,1.988,0,0,0,2.127,1.806,2.065,2.065,0,0,0,1.888-1.035l1.059.436a3.229,3.229,0,0,1-2.99,1.8A3.372,3.372,0,0,1,396.7,92.9a3.324,3.324,0,0,1,3.354-3.531,3.214,3.214,0,0,1,3.224,3.531C403.268,93.088,403.254,93.279,403.24,93.471Zm-1.179-1.1a2.06,2.06,0,0,0-4.087,0Z" transform="translate(-199.838 -44.642)" fill="#676562"/>
    <path id="Tracé_499" data-name="Tracé 499" d="M412.608,92.915a3.43,3.43,0,0,1,3.488-3.545,3.263,3.263,0,0,1,2.477,1.078l-.767.834a2.228,2.228,0,0,0-1.667-.719,2.352,2.352,0,1,0,1.667,3.986l.767.834A3.215,3.215,0,0,1,416.1,96.46a3.43,3.43,0,0,1-3.488-3.545Z" transform="translate(-207.868 -44.641)" fill="#676562"/>
    <path id="Tracé_500" data-name="Tracé 500" d="M439.838,89.67l-2.712,6.813h-1.179l-2.7-6.813h1.294l2,5.193,1.984-5.193Z" transform="translate(-218.252 -44.798)" fill="#676562"/>
    <path id="Tracé_501" data-name="Tracé 501" d="M448.045,92.845a3.4,3.4,0,1,1,1.644,3.1A3.4,3.4,0,0,1,448.045,92.845Zm5.586,0a2.19,2.19,0,1,0-2.194,2.4,2.242,2.242,0,0,0,2.194-2.4Z" transform="translate(-225.696 -44.586)" fill="#676562"/>
    <path id="Tracé_502" data-name="Tracé 502" d="M467.58,87.979h-1.4v5.716h-1.212V87.979H463.8V86.862h1.164V84.28h1.212v2.582h1.4Z" transform="translate(-231.93 -41.991)" fill="#676562"/>
    <path id="Tracé_503" data-name="Tracé 503" d="M478.363,89.633l-.2,1.193a2.175,2.175,0,0,0-.958-.23c-1.294,0-1.806,1.437-1.806,3.239v2.491H474.18V89.513H475.4V91.06c.335-1.2.958-1.691,1.821-1.691A2.323,2.323,0,0,1,478.363,89.633Z" transform="translate(-237.336 -44.641)" fill="#676562"/>
    <path id="Tracé_504" data-name="Tracé 504" d="M490.33,93.471h-5.27a1.983,1.983,0,0,0,2.127,1.806,2.065,2.065,0,0,0,1.888-1.035l1.059.436a3.229,3.229,0,0,1-2.99,1.8A3.372,3.372,0,0,1,483.79,92.9a3.324,3.324,0,0,1,3.354-3.531,3.214,3.214,0,0,1,3.224,3.531C490.358,93.088,490.344,93.279,490.33,93.471Zm-1.169-1.1a1.916,1.916,0,0,0-2.012-1.811,1.945,1.945,0,0,0-2.07,1.811Z" transform="translate(-242.342 -44.642)" fill="#676562"/>
    <path id="Tracé_505" data-name="Tracé 505" d="M506.748,92.915a3.43,3.43,0,0,1,3.488-3.545,3.258,3.258,0,0,1,2.472,1.078l-.767.834a2.228,2.228,0,0,0-1.667-.719,2.352,2.352,0,1,0,1.667,3.986l.767.834a3.21,3.21,0,0,1-2.472,1.078,3.43,3.43,0,0,1-3.488-3.545Z" transform="translate(-254.3 -44.641)" fill="#676562"/>
    <path id="Tracé_506" data-name="Tracé 506" d="M520.807,92.9a3.4,3.4,0,1,1,1.662,3.052A3.4,3.4,0,0,1,520.807,92.9Zm5.586,0a2.189,2.189,0,1,0-2.194,2.4,2.242,2.242,0,0,0,2.194-2.4Z" transform="translate(-261.623 -44.644)" fill="#676562"/>
    <path id="Tracé_507" data-name="Tracé 507" d="M542.368,89.633l-.192,1.193a2.194,2.194,0,0,0-.958-.23c-1.289,0-1.806,1.437-1.806,3.239v2.491H538.19V89.513h1.222V91.06c.335-1.2.958-1.691,1.821-1.691A2.309,2.309,0,0,1,542.368,89.633Z" transform="translate(-270.679 -44.641)" fill="#676562"/>
    <path id="Tracé_508" data-name="Tracé 508" d="M555.91,92.928a3.274,3.274,0,0,1-3.239,3.545,2.544,2.544,0,0,1-2.319-1.212V99.64H549.14V89.512h1.212v1.083a2.611,2.611,0,0,1,2.3-1.227A3.316,3.316,0,0,1,555.91,92.928Zm-1.222,0a2.6,2.6,0,1,0,0,.014Z" transform="translate(-276.383 -44.64)" fill="#676562"/>
    <path id="Tracé_509" data-name="Tracé 509" d="M565.41,94.284h1.126a1.159,1.159,0,0,0,1.294,1.064c.819,0,1.308-.393,1.308-.958s-.378-.776-.891-.891l-.891-.22c-1.083-.307-1.71-.862-1.71-1.955a2.071,2.071,0,0,1,2.228-1.983,2.028,2.028,0,0,1,2.237,1.983h-1.169a.987.987,0,0,0-1.044-.877.958.958,0,0,0-1.04.92c0,.479.417.714.834.819l.958.244a1.951,1.951,0,0,1,1.7,1.974,2.246,2.246,0,0,1-2.515,2.041A2.309,2.309,0,0,1,565.41,94.284Z" transform="translate(-284.858 -44.626)" fill="#676562"/>
  </g>
</svg>
