<svg xmlns="http://www.w3.org/2000/svg" viewBox="0 0 569.24 103.44"><defs><style>.cls-1{fill:#e64646;}.cls-2{fill:#78746c;}.cls-3{fill:#78736c;}</style></defs><g id="Calque_2" data-name="Calque 2"><g id="Logos-DEF"><g id="Logo-Horizontal"><path class="cls-1" d="M213.75,45.34l-4.16-34.15L195.34,40.46H190.2L175.83,11.19l-4.1,34.15h-5.79L171.4.52h5.34l16,33.24L208.68.52H214l5.53,44.82Z"/><path class="cls-1" d="M257.66,15,238.79,60.11h-6l6.31-15.61L227,15h6.12l9.17,22.38L251.55,15Z"/><path class="cls-1" d="M319.07,32.72c0,6.44-4.88,12.62-13.08,12.62H287.71V.52h16.85c7.42,0,12.1,4.42,12.1,11.45,0,3.9-1.43,7.87-5.66,9.5C316.27,22.64,319.07,27.84,319.07,32.72ZM293.63,6v13.2h11.06c4,0,6.05-2.8,6.05-6.63S308.59,6,304.49,6ZM313.15,32.2c0-4-2.61-7.8-8.07-7.8H293.63V39.88h11.12C310.28,39.88,313.15,36.37,313.15,32.2Z"/><path class="cls-1" d="M329.47,3.77a4,4,0,0,1,8,0,4,4,0,0,1-8,0ZM330.64,15h5.66V45.34h-5.66Z"/><path class="cls-1" d="M379,15V40.72c0,14.38-6.51,19.78-16.52,19.78a15.45,15.45,0,0,1-13.67-8.13l4.82-2.54a10.24,10.24,0,0,0,8.85,5.34c6.7,0,10.86-3.78,10.86-14.05v-.59c-2,3.51-6.44,5.46-10.8,5.46-8.33,0-15.22-6.31-15.22-15.87s6.83-15.81,15.16-15.81c4.55,0,8.84,1.89,10.86,5.4V15Zm-5.66,15.1A10.28,10.28,0,0,0,363,19.65c-5.53,0-10,4.29-10,10.41s4.43,10.6,10,10.6A10.23,10.23,0,0,0,373.38,30.06Z"/><path class="cls-1" d="M444.54,32.72c0,6.44-4.88,12.62-13.07,12.62H413.19V.52H430c7.41,0,12.1,4.42,12.1,11.45,0,3.9-1.43,7.87-5.66,9.5C441.75,22.64,444.54,27.84,444.54,32.72ZM419.11,6v13.2h11.06c4,0,6.05-2.8,6.05-6.63S434.07,6,430,6ZM438.62,32.2c0-4-2.6-7.8-8.06-7.8H419.11V39.88h11.12C435.76,39.88,438.62,36.37,438.62,32.2Z"/><path class="cls-1" d="M485.78,15V45.34h-5.66V40.53c-2,3.51-6.44,5.46-10.8,5.46C461,46,454.1,39.68,454.1,30.12s6.83-15.81,15.16-15.81c4.55,0,8.85,1.82,10.86,5.4V15Zm-5.66,15.1a10.28,10.28,0,0,0-10.34-10.41c-5.53,0-9.95,4.29-9.95,10.41s4.42,10.6,9.95,10.6A10.23,10.23,0,0,0,480.12,30.06Z"/><path class="cls-1" d="M526.89,27.78V45.34h-5.66V28.1c0-5.07-3.12-8.19-7.35-8.19s-9.3,2.4-9.3,9V45.34h-5.66V15h5.66v4.62c1.82-3.71,6.77-5.27,10.08-5.27C522.21,14.31,527,19.26,526.89,27.78Z"/><path class="cls-1" d="M569.24,15V40.72c0,14.38-6.51,19.78-16.52,19.78a15.45,15.45,0,0,1-13.67-8.13l4.82-2.54a10.23,10.23,0,0,0,8.85,5.34c6.7,0,10.86-3.78,10.86-14.05v-.59c-2,3.51-6.44,5.46-10.8,5.46-8.33,0-15.22-6.31-15.22-15.87s6.83-15.81,15.16-15.81c4.55,0,8.84,1.89,10.86,5.4V15Zm-5.66,15.1a10.28,10.28,0,0,0-10.34-10.41c-5.53,0-10,4.29-10,10.41s4.43,10.6,10,10.6A10.23,10.23,0,0,0,563.58,30.06Z"/><g id="Icone-ok"><g id="icon-1"><path class="cls-1" d="M70.89,96.69a1.52,1.52,0,0,1-.55-.1,1.61,1.61,0,0,1-1-2.06L90.14,36.68H67.5a1.6,1.6,0,0,1-1.24-.59,1.59,1.59,0,0,1-.35-1.32L72.06,1.64a1.62,1.62,0,0,1,3.18.59l-5.8,31.21h23A1.62,1.62,0,0,1,94,35.61l-21.55,60A1.62,1.62,0,0,1,70.89,96.69Z"/><path class="cls-2" d="M129.36,96.69a1.52,1.52,0,0,0,.55-.1,1.61,1.61,0,0,0,1-2.06L110.11,36.68h22.64a1.6,1.6,0,0,0,1.24-.59,1.59,1.59,0,0,0,.35-1.32L128.19,1.64a1.62,1.62,0,0,0-3.18.59l5.8,31.21h-23a1.62,1.62,0,0,0-1.52,2.17l21.55,60A1.62,1.62,0,0,0,129.36,96.69Z"/><path class="cls-2" d="M5,.32a1.49,1.49,0,0,0-.55.1,1.6,1.6,0,0,0-1,2.06L24.26,60.33H1.62a1.63,1.63,0,0,0-1.25.58A1.64,1.64,0,0,0,0,62.24L6.17,95.37a1.62,1.62,0,0,0,3.18-.59L3.56,63.56h23a1.63,1.63,0,0,0,1.32-.68,1.65,1.65,0,0,0,.2-1.48L6.53,1.39A1.62,1.62,0,0,0,5,.32Z"/><path class="cls-2" d="M119.82,96.69a1.63,1.63,0,0,1-1.38-.78L102.2,69.36a1.84,1.84,0,0,0-1.59-.89h0a1.81,1.81,0,0,0-1.58.88L82.64,95.92a1.62,1.62,0,1,1-2.75-1.7L96.28,67.66a5,5,0,0,1,4.33-2.42h0A5.06,5.06,0,0,1,105,67.67L121.2,94.23a1.62,1.62,0,0,1-.54,2.22A1.6,1.6,0,0,1,119.82,96.69Z"/><path class="cls-2" d="M117.59,24H103.94a1.61,1.61,0,0,1-1.41-2.4c.06-.11,6.07-11.13.55-15.86a4.84,4.84,0,0,0-3.17-.86,4.38,4.38,0,0,0-3.06.91c-5.58,4.74.75,15.67.82,15.78A1.61,1.61,0,0,1,96.28,24h-14a1.62,1.62,0,1,1,0-3.23H93.65C91.77,16.62,89,8.2,94.76,3.33a7.51,7.51,0,0,1,5.15-1.68,7.91,7.91,0,0,1,5.27,1.63c5.66,4.85,3.08,13.34,1.32,17.49h11.09a1.62,1.62,0,1,1,0,3.23Z"/></g><g id="icon-1-2" data-name="icon-1"><path class="cls-1" d="M61.06,96.69a1.53,1.53,0,0,1-.3,0,1.61,1.61,0,0,1-1.29-1.88l5.79-31.22h-23a1.63,1.63,0,0,1-1.32-.68,1.65,1.65,0,0,1-.2-1.48l21.55-60a1.62,1.62,0,0,1,2.07-1,1.6,1.6,0,0,1,1,2.06L44.56,60.33H67.2a1.62,1.62,0,0,1,1.25.58,1.64,1.64,0,0,1,.34,1.33L62.65,95.37A1.63,1.63,0,0,1,61.06,96.69Z"/><path class="cls-2" d="M34.09,31.77h0a5,5,0,0,1-4.33-2.44L13.51,2.78a1.61,1.61,0,1,1,2.75-1.69L32.51,27.65a1.82,1.82,0,0,0,1.58.89h0a1.83,1.83,0,0,0,1.59-.89L52.06,1.09a1.61,1.61,0,0,1,2.75,1.69L38.43,29.35A5.09,5.09,0,0,1,34.09,31.77Z"/><path class="cls-2" d="M34.79,95.36a7.81,7.81,0,0,1-5.26-1.64c-5.66-4.84-3.09-13.34-1.33-17.49H17.12a1.62,1.62,0,1,1,0-3.23H30.76a1.63,1.63,0,0,1,1.39.8,1.6,1.6,0,0,1,0,1.6c-.06.11-6.07,11.14-.54,15.87a4.81,4.81,0,0,0,3.16.86,4.31,4.31,0,0,0,3.06-.92c5.58-4.74-.75-15.66-.81-15.77A1.62,1.62,0,0,1,38.43,73h14a1.62,1.62,0,0,1,0,3.23H41.06c1.87,4.15,4.61,12.58-1.11,17.45A7.51,7.51,0,0,1,34.79,95.36Z"/></g></g><path class="cls-3" d="M169,78.23V85H176v2.57H169v9h-2.63V75.69h11.57v2.54Z"/><path class="cls-3" d="M193.35,82.41V96.56h-2.51V94.32a5.41,5.41,0,0,1-4.79,2.54c-3.69,0-6.75-2.93-6.75-7.39s3-7.36,6.73-7.36a5.3,5.3,0,0,1,4.81,2.51V82.41Zm-2.51,7a4.67,4.67,0,0,0-4.58-4.85,4.53,4.53,0,0,0-4.42,4.85c0,2.82,2,4.94,4.42,4.94A4.65,4.65,0,0,0,190.84,89.44Z"/><path class="cls-3" d="M197.51,77.2A1.78,1.78,0,1,1,199.27,79,1.76,1.76,0,0,1,197.51,77.2Zm.52,5.21h2.51V96.56H198Z"/><path class="cls-3" d="M211.64,84.69h-2.91V96.56h-2.51V84.69H203.8V82.41h2.42V77.05h2.51v5.36h2.91Z"/><path class="cls-3" d="M227.08,90.62h-11a4.12,4.12,0,0,0,4.41,3.76,4.3,4.3,0,0,0,3.92-2.15l2.2.91a6.71,6.71,0,0,1-6.21,3.72c-3.83,0-6.92-2.93-6.92-7.42s3.09-7.33,6.92-7.33,6.7,2.85,6.7,7.33C227.14,89.84,227.11,90.23,227.08,90.62Zm-2.45-2.27a4.27,4.27,0,0,0-8.48,0Z"/><path class="cls-3" d="M229.76,92.35h2.34a2.41,2.41,0,0,0,2.68,2.21c1.7,0,2.71-.82,2.71-2s-.77-1.6-1.84-1.85l-1.85-.45c-2.25-.64-3.55-1.79-3.55-4.06s1.91-4.12,4.62-4.12c2.28,0,4.64,1.27,4.64,4.12h-2.42a2.06,2.06,0,0,0-2.16-1.82,2,2,0,0,0-2.17,1.91c0,1,.87,1.49,1.73,1.7l2,.51c2.8.73,3.52,2.49,3.52,4.09,0,2.64-2.42,4.24-5.22,4.24A4.79,4.79,0,0,1,229.76,92.35Z"/><path class="cls-3" d="M263.92,90.62H253a4.12,4.12,0,0,0,4.41,3.76,4.3,4.3,0,0,0,3.93-2.15l2.19.91a6.7,6.7,0,0,1-6.2,3.72c-3.84,0-6.93-2.93-6.93-7.42s3.09-7.33,6.93-7.33S264,85,264,89.44C264,89.84,264,90.23,263.92,90.62Zm-2.45-2.27a4.27,4.27,0,0,0-8.48,0Zm-2.91-8h-2.43l2.8-4.66H262Z"/><path class="cls-3" d="M280.83,82.41v21h-2.51V94.35a5.3,5.3,0,0,1-4.82,2.51c-3.69,0-6.72-2.87-6.72-7.36s3.06-7.39,6.75-7.39a5.44,5.44,0,0,1,4.79,2.55V82.41Zm-2.51,7.12a4.52,4.52,0,1,0-9,0,4.53,4.53,0,0,0,4.41,4.85A4.68,4.68,0,0,0,278.32,89.53Z"/><path class="cls-3" d="M297.73,82.41V96.56h-2.5V94.35a5,5,0,0,1-4.48,2.51c-3.37,0-5.45-2.3-5.42-6.27V82.41h2.51v8c0,2.37,1.35,3.82,3.23,3.82a4,4,0,0,0,4.16-4.18V82.41Z"/><path class="cls-3" d="M301.86,77.2A1.78,1.78,0,1,1,303.62,79,1.76,1.76,0,0,1,301.86,77.2Zm.52,5.21h2.51V96.56h-2.51Z"/><path class="cls-3" d="M323.59,89.5c0,4.49-3,7.36-6.73,7.36A5.3,5.3,0,0,1,312,94.35v9.09h-2.5v-21H312v2.25a5.44,5.44,0,0,1,4.79-2.55C320.53,82.11,323.59,85.05,323.59,89.5Zm-2.54,0a4.52,4.52,0,1,0-4.45,4.85A4.54,4.54,0,0,0,321.05,89.53Z"/><path class="cls-3" d="M340,90.62H329a4.12,4.12,0,0,0,4.41,3.76,4.3,4.3,0,0,0,3.93-2.15l2.19.91a6.7,6.7,0,0,1-6.2,3.72c-3.84,0-6.93-2.93-6.93-7.42s3.09-7.33,6.93-7.33,6.69,2.85,6.69,7.33C340.06,89.84,340,90.23,340,90.62Zm-2.45-2.27a4.27,4.27,0,0,0-8.48,0Z"/><path class="cls-3" d="M364.5,82.41V96.56H362V94.32a5.43,5.43,0,0,1-4.79,2.54c-3.7,0-6.75-2.93-6.75-7.39s3-7.36,6.72-7.36A5.32,5.32,0,0,1,362,84.62V82.41Zm-2.51,7a4.68,4.68,0,0,0-4.59-4.85A4.54,4.54,0,0,0,353,89.44a4.52,4.52,0,1,0,9,0Z"/><path class="cls-3" d="M381.08,82.41l-5.62,14.15H373l-5.6-14.15h2.68l4.16,10.79,4.12-10.79Z"/><path class="cls-3" d="M396.29,90.62h-11a4.12,4.12,0,0,0,4.41,3.76,4.3,4.3,0,0,0,3.92-2.15l2.2.91a6.71,6.71,0,0,1-6.21,3.72c-3.83,0-6.92-2.93-6.92-7.42s3.09-7.33,6.92-7.33,6.7,2.85,6.7,7.33C396.35,89.84,396.32,90.23,396.29,90.62Zm-2.45-2.27a4.28,4.28,0,0,0-8.49,0Z"/><path class="cls-3" d="M399.12,89.47a7.12,7.12,0,0,1,7.24-7.36,6.76,6.76,0,0,1,5.13,2.24l-1.58,1.73a4.88,4.88,0,1,0,0,6.79l1.58,1.72a6.63,6.63,0,0,1-5.13,2.24A7.12,7.12,0,0,1,399.12,89.47Z"/><path class="cls-3" d="M434.46,82.41l-5.63,14.15h-2.45l-5.6-14.15h2.69l4.15,10.79,4.13-10.79Z"/><path class="cls-3" d="M436.1,89.44a7.06,7.06,0,1,1,14.11,0,7.06,7.06,0,1,1-14.11,0Zm11.6,0a4.55,4.55,0,1,0-4.56,4.94A4.66,4.66,0,0,0,447.7,89.44Z"/><path class="cls-3" d="M460.19,84.69h-2.91V96.56h-2.51V84.69h-2.42V82.41h2.42V77.05h2.51v5.36h2.91Z"/><path class="cls-3" d="M471.94,82.66l-.41,2.48a4.5,4.5,0,0,0-2-.48c-2.68,0-3.75,3-3.75,6.72v5.18h-2.54V82.41h2.54v3.21c.69-2.48,2-3.51,3.78-3.51A4.84,4.84,0,0,1,471.94,82.66Z"/><path class="cls-3" d="M487,90.62H476a4.12,4.12,0,0,0,4.41,3.76,4.3,4.3,0,0,0,3.92-2.15l2.2.91a6.71,6.71,0,0,1-6.21,3.72c-3.83,0-6.92-2.93-6.92-7.42s3.09-7.33,6.92-7.33S487,85,487,89.44C487,89.84,487,90.23,487,90.62Zm-2.45-2.27a4.28,4.28,0,0,0-8.49,0Z"/><path class="cls-3" d="M497.38,89.47a7.13,7.13,0,0,1,7.24-7.36,6.77,6.77,0,0,1,5.14,2.24l-1.59,1.73a4.62,4.62,0,0,0-3.46-1.49,4.88,4.88,0,0,0,0,9.76,4.65,4.65,0,0,0,3.46-1.48l1.59,1.72a6.63,6.63,0,0,1-5.14,2.24A7.12,7.12,0,0,1,497.38,89.47Z"/><path class="cls-3" d="M512,89.44a7.06,7.06,0,1,1,14.11,0,7.06,7.06,0,1,1-14.11,0Zm11.6,0A4.55,4.55,0,1,0,519,94.38,4.66,4.66,0,0,0,523.55,89.44Z"/><path class="cls-3" d="M538.5,82.66l-.41,2.48a4.5,4.5,0,0,0-2-.48c-2.68,0-3.75,3-3.75,6.72v5.18h-2.54V82.41h2.54v3.21c.69-2.48,2-3.51,3.78-3.51A4.84,4.84,0,0,1,538.5,82.66Z"/><path class="cls-3" d="M555.34,89.5c0,4.49-3,7.36-6.72,7.36a5.3,5.3,0,0,1-4.82-2.51v9.09h-2.51v-21h2.51v2.25a5.44,5.44,0,0,1,4.79-2.55C552.29,82.11,555.34,85.05,555.34,89.5Zm-2.53,0a4.52,4.52,0,1,0-4.45,4.85A4.54,4.54,0,0,0,552.81,89.53Z"/><path class="cls-3" d="M558.06,92.35h2.33a2.41,2.41,0,0,0,2.69,2.21c1.7,0,2.71-.82,2.71-2s-.78-1.6-1.85-1.85l-1.84-.45c-2.25-.64-3.55-1.79-3.55-4.06s1.9-4.12,4.61-4.12c2.28,0,4.65,1.27,4.65,4.12h-2.42a2.06,2.06,0,0,0-2.17-1.82,2,2,0,0,0-2.16,1.91c0,1,.86,1.49,1.73,1.7l2,.51c2.8.73,3.52,2.49,3.52,4.09,0,2.64-2.42,4.24-5.22,4.24A4.78,4.78,0,0,1,558.06,92.35Z"/></g></g></g></svg>