<?xml version="1.0" encoding="utf-8"?>
<!-- Generator: Adobe Illustrator 24.1.3, SVG Export Plug-In . SVG Version: 6.00 Build 0)  -->
<svg version="1.1" id="Calque_1" xmlns="http://www.w3.org/2000/svg" xmlns:xlink="http://www.w3.org/1999/xlink" x="0px" y="0px"
	 viewBox="0 0 831.9 107.1" style="enable-background:new 0 0 831.9 107.1;" xml:space="preserve">
<style type="text/css">
	.st0{opacity:0.35;fill:#9090B4;}
</style>
<path class="st0" d="M794.3,107c-21.8,0-37.7-13.6-37.7-32.3v-0.5h21.8l0,0.5c0.1,7.4,7.4,13.2,16.5,13.2c9.1,0,14.9-4.6,14.9-11.7
	c0-5.4-4.2-9.4-12.7-12l-12.6-3.6c-22.4-5.9-27.1-19.3-27.1-29.4c0-18.1,15.2-31.2,36.2-31.2c20.9,0,35,12.9,35,32v0.5h-21.9V32
	c0-7.6-5.3-12.5-13.6-12.5c-8,0-13.8,4.8-13.8,11.3c0,4.9,3.8,8.4,11.2,10.5l11.6,3.3c19.9,5.6,29.6,15.6,29.6,30.6
	C831.8,97.1,812.4,107,794.3,107z M757.6,75.2c0.3,18.2,15.3,30.8,36.7,30.8c17.6,0,36.5-9.7,36.5-30.8c0-14.5-9.4-24.2-28.9-29.7
	l-11.6-3.3c-7.9-2.2-11.9-6-11.9-11.4c0-7.2,6.2-12.3,14.8-12.3c8.6,0,14.4,5.2,14.6,13h19.9C827.5,13.2,813.9,1,793.7,1
	c-20.4,0-35.2,12.7-35.2,30.2c0,9.8,4.6,22.7,26.3,28.5l12.6,3.6c9,2.8,13.4,7,13.4,12.9c0,7.6-6.4,12.7-15.9,12.7
	c-9.4,0-17-6-17.4-13.7H757.6z M705.7,105.7h-21.9V20.8h-28.5V1.4h78.9v19.4h-28.5V105.7z M684.8,104.7h19.9V19.8h28.5V2.4h-76.9
	v17.4h28.5V104.7z M625.8,105.7h-19.5l-36.7-63.4v63.4h-21.8V1.4h20.1L603.9,64V1.4h21.8V105.7z M606.8,104.7h18V2.4h-19.8v65.4
	L567.2,2.4h-18.6v102.4h19.8V38.5L606.8,104.7z M513.7,105.7h-67.2V1.4h65.8v19.4h-43.9v23.6H507v19.8h-38.5v22.1h45.3V105.7z
	 M447.5,104.7h65.2V87.2h-45.3V63.2H506V45.4h-38.5V19.8h43.9V2.4h-63.8V104.7z M413,105.7h-22.3l-7.4-62.8L358.7,94h-17l-24.9-51.1
	l-7.4,62.8h-22.3L300.1,1.4h18.5l0.1,0.3l31.5,66.8l31.3-67.1h18.8l0.1,0.4L413,105.7z M391.5,104.7h20.3L399.4,2.4h-17.2l-32,68.5
	L317.9,2.4h-16.9l-12.6,102.4h20.3l7.6-65.3L342.4,93h15.7l25.8-53.6L391.5,104.7z M258.9,105.7h-67.1V1.4h65.8v19.4h-44v23.6h38.6
	v19.8h-38.6v22.1h45.3V105.7z M192.7,104.7h65.1V87.2h-45.3V63.2h38.6V45.4h-38.6V19.8h44V2.4h-63.8V104.7z M162.1,105.7h-61V1.4
	H123v84.9h39.1V105.7z M102.1,104.7h59V87.2H122V2.4h-19.9V104.7z M67.1,105.7H0V1.4h65.8v19.4H21.9v23.6h38.5v19.8H21.9v22.1h45.3
	V105.7z M1,104.7h65.1V87.2H20.9V63.2h38.5V45.4H20.9V19.8h43.9V2.4H1V104.7z"/>
</svg>
