<?xml version="1.0" encoding="utf-8"?>
<!-- Generator: Adobe Illustrator 24.1.3, SVG Export Plug-In . SVG Version: 6.00 Build 0)  -->
<svg version="1.1" id="Motif-Silhouette-Mobile" xmlns="http://www.w3.org/2000/svg" xmlns:xlink="http://www.w3.org/1999/xlink"
	 x="0px" y="0px" viewBox="0 0 52.9 36" style="enable-background:new 0 0 52.9 36;" xml:space="preserve">
<style type="text/css">
	.st0{fill:none;}
	.st1{fill:#D1CBC0;}
</style>
<rect id="Rectangle_53" class="st0" width="52.9" height="36"/>
<path id="Tracé_523" class="st1" d="M10.9,14L4.6,31.6c0,0.1-0.2,0.2-0.3,0.2c0,0-0.1,0-0.1,0c-0.2-0.1-0.3-0.3-0.2-0.5L10,14.2
	H3.2c-0.2,0-0.4-0.2-0.4-0.4c0,0,0,0,0-0.1l1.8-9.7c0-0.2,0.2-0.3,0.4-0.3c0.2,0,0.3,0.2,0.3,0.4l-1.7,9.3h6.9
	c0.1,0,0.2,0.1,0.3,0.2C10.9,13.7,10.9,13.8,10.9,14z M21,4.2c0-0.2-0.2-0.3-0.4-0.3c-0.2,0-0.3,0.2-0.3,0.4l1.6,9.2H15
	c-0.2,0-0.4,0.2-0.4,0.4c0,0,0,0.1,0,0.1l6.5,17.6c0,0.1,0.2,0.2,0.3,0.2c0,0,0.1,0,0.1,0c0.2-0.1,0.3-0.3,0.2-0.5l-6.3-17.1h6.8
	c0.1,0,0.2,0,0.3-0.1c0.1-0.1,0.1-0.2,0.1-0.3L21,4.2z M14.1,23.5c-0.2-0.4-0.7-0.7-1.2-0.7l0,0c-0.5,0-0.9,0.2-1.2,0.7L7,31.3
	c-0.1,0.2-0.1,0.4,0.1,0.5c0.2,0.1,0.4,0.1,0.5-0.1c0,0,0,0,0-0.1l4.8-7.8c0.1-0.2,0.3-0.3,0.6-0.3l0,0c0.2,0,0.4,0.1,0.6,0.3
	l4.8,7.8c0.1,0.2,0.3,0.2,0.5,0.2s0.2-0.3,0.2-0.5c0,0,0,0,0-0.1L14.1,23.5z M7.6,10.5h4.1c0.2,0,0.4-0.2,0.4-0.4c0-0.1,0-0.1,0-0.2
	c0,0-1.9-3.3-0.2-4.8c0.3-0.2,0.6-0.3,1-0.3c0.4,0,0.7,0.1,1,0.3c1.7,1.5-0.1,4.8-0.1,4.8c-0.1,0.2,0,0.4,0.1,0.5c0.1,0,0.1,0,0.2,0
	h4c0.2,0,0.3-0.2,0.3-0.4c0-0.2-0.2-0.3-0.3-0.3h-3.4C15,8.6,15.9,6,14.2,4.6c-0.4-0.3-0.9-0.5-1.5-0.5c-0.5,0-1,0.1-1.4,0.5
	c-1.7,1.4-0.7,4-0.2,5.1H7.6c-0.2,0-0.3,0.2-0.3,0.4C7.2,10.3,7.4,10.5,7.6,10.5L7.6,10.5z M50,21.5c-0.1-0.1-0.2-0.1-0.3-0.1h-6.8
	l6.1-17.1c0.1-0.2,0-0.4-0.2-0.5c0,0-0.1,0-0.1,0c-0.2,0-0.3,0.1-0.3,0.2l-6.3,17.6c0,0.1,0,0.2,0,0.3c0.1,0.1,0.2,0.2,0.3,0.2h6.9
	l-1.7,9.3c0,0.2,0.1,0.4,0.3,0.4c0.2,0,0.4-0.1,0.4-0.3l1.8-9.7C50.1,21.7,50.1,21.6,50,21.5L50,21.5z M31.1,22.1h6.9
	c0.2,0,0.4-0.2,0.4-0.4c0,0,0-0.1,0-0.1L31.8,4c0-0.1-0.2-0.2-0.3-0.2c0,0-0.1,0-0.1,0c-0.2,0.1-0.3,0.3-0.2,0.5l6.3,17.1h-6.8
	c-0.1,0-0.2,0-0.3,0.1c-0.1,0.1-0.1,0.2-0.1,0.3l1.7,9.6c0,0.2,0.2,0.3,0.4,0.3s0.3-0.2,0.3-0.4L31.1,22.1z M38.9,12.1
	c0.2,0.4,0.7,0.7,1.2,0.7l0,0c0.5,0,0.9-0.2,1.2-0.7L46,4.3c0.1-0.2,0.1-0.4-0.1-0.5c-0.2-0.1-0.4-0.1-0.5,0.1c0,0,0,0,0,0.1
	l-4.8,7.8c-0.1,0.2-0.3,0.3-0.6,0.3l0,0c-0.2,0-0.4-0.1-0.6-0.3l-4.8-7.8c-0.1-0.2-0.3-0.2-0.5-0.2c-0.2,0.1-0.2,0.3-0.2,0.5
	c0,0,0,0,0,0.1L38.9,12.1z M45.4,25.1h-4.1c-0.2,0-0.4,0.2-0.3,0.4c0,0.1,0,0.1,0,0.2c0,0,1.9,3.3,0.2,4.8c-0.3,0.2-0.6,0.3-1,0.3
	c-0.4,0-0.7-0.1-1-0.3c-1.7-1.5,0.1-4.8,0.1-4.8c0.1-0.2,0-0.4-0.1-0.5c-0.1,0-0.1,0-0.2,0h-4c-0.2,0-0.3,0.2-0.3,0.4
	c0,0.2,0.2,0.3,0.3,0.3h3.4c-0.5,1.1-1.4,3.7,0.3,5.2c0.4,0.3,0.9,0.5,1.5,0.5c0.5,0,1-0.1,1.4-0.5c1.7-1.4,0.7-4,0.2-5.1h3.5
	c0.2,0,0.3-0.2,0.3-0.4C45.7,25.2,45.6,25.1,45.4,25.1L45.4,25.1z"/>
</svg>
