<svg id="motif-particules-Mobile" xmlns="http://www.w3.org/2000/svg" width="129.532" height="125.829" viewBox="0 0 129.532 125.829">
  <rect id="Rectangle_29" data-name="Rectangle 29" width="129.532" height="125.829" fill="none"/>
  <circle id="Ellipse_70" data-name="Ellipse 70" cx="1.18" cy="1.18" r="1.18" transform="translate(53.02 29.659)" fill="#eae7e1"/>
  <circle id="Ellipse_71" data-name="Ellipse 71" cx="0.718" cy="0.718" r="0.718" transform="translate(5.222 55.369)" fill="#eae7e1"/>
  <circle id="Ellipse_72" data-name="Ellipse 72" cx="0.513" cy="0.513" r="0.513" transform="translate(76.564 72.45)" fill="#eae7e1"/>
  <circle id="Ellipse_73" data-name="Ellipse 73" cx="0.718" cy="0.718" r="0.718" transform="translate(81.14 25.75)" fill="#eae7e1"/>
  <circle id="Ellipse_74" data-name="Ellipse 74" cx="0.513" cy="0.513" r="0.513" transform="translate(107.506 68.049)" fill="#eae7e1"/>
  <circle id="Ellipse_75" data-name="Ellipse 75" cx="1.129" cy="1.129" r="1.129" transform="translate(14.63 62.017)" fill="#eae7e1"/>
  <circle id="Ellipse_76" data-name="Ellipse 76" cx="1.026" cy="1.026" r="1.026" transform="translate(85.11 100.006)" fill="#eae7e1"/>
  <circle id="Ellipse_77" data-name="Ellipse 77" cx="1.026" cy="1.026" r="1.026" transform="translate(123.562 64.479)" fill="#eae7e1"/>
  <circle id="Ellipse_78" data-name="Ellipse 78" cx="0.513" cy="0.513" r="0.513" transform="translate(10.238 96.026)" fill="#eae7e1"/>
  <circle id="Ellipse_79" data-name="Ellipse 79" cx="0.513" cy="0.513" r="0.513" transform="translate(88.896 35.004)" fill="#eae7e1"/>
  <circle id="Ellipse_80" data-name="Ellipse 80" cx="1.026" cy="1.026" r="1.026" transform="translate(105.352 30.777)" fill="#eae7e1"/>
  <circle id="Ellipse_81" data-name="Ellipse 81" cx="1.334" cy="1.334" r="1.334" transform="translate(113.117 65.905)" fill="#eae7e1"/>
  <circle id="Ellipse_82" data-name="Ellipse 82" cx="0.718" cy="0.718" r="0.718" transform="translate(100.191 3.529)" fill="#eae7e1"/>
  <circle id="Ellipse_83" data-name="Ellipse 83" cx="0.718" cy="0.718" r="0.718" transform="translate(71.742 45.243)" fill="#eae7e1"/>
  <circle id="Ellipse_84" data-name="Ellipse 84" cx="0.718" cy="0.718" r="0.718" transform="translate(86.393 83.376)" fill="#eae7e1"/>
  <circle id="Ellipse_85" data-name="Ellipse 85" cx="0.513" cy="0.513" r="0.513" transform="translate(27.043 75.815)" fill="#eae7e1"/>
  <circle id="Ellipse_86" data-name="Ellipse 86" cx="1.323" cy="1.323" r="1.323" transform="translate(75.897 9.336)" fill="#eae7e1"/>
  <circle id="Ellipse_87" data-name="Ellipse 87" cx="1.026" cy="1.026" r="1.026" transform="translate(35.928 28.736)" fill="#eae7e1"/>
  <circle id="Ellipse_88" data-name="Ellipse 88" cx="1.026" cy="1.026" r="1.026" transform="translate(26.264 112.892)" fill="#eae7e1"/>
  <circle id="Ellipse_89" data-name="Ellipse 89" cx="0.513" cy="0.513" r="0.513" transform="translate(84.054 3.078)" fill="#eae7e1"/>
  <circle id="Ellipse_90" data-name="Ellipse 90" cx="0.513" cy="0.513" r="0.513" transform="translate(66.336 32.778)" fill="#eae7e1"/>
  <circle id="Ellipse_91" data-name="Ellipse 91" cx="1.026" cy="1.026" r="1.026" transform="translate(58.785 65.002)" fill="#eae7e1"/>
  <circle id="Ellipse_92" data-name="Ellipse 92" cx="0.718" cy="0.718" r="0.718" transform="translate(85.992 50.054)" fill="#eae7e1"/>
  <circle id="Ellipse_93" data-name="Ellipse 93" cx="0.513" cy="0.513" r="0.513" transform="translate(27.721 33.845)" fill="#eae7e1"/>
  <circle id="Ellipse_94" data-name="Ellipse 94" cx="0.718" cy="0.718" r="0.718" transform="translate(27.361 62.807)" fill="#eae7e1"/>
  <circle id="Ellipse_95" data-name="Ellipse 95" cx="0.718" cy="0.718" r="0.718" transform="translate(69.66 61.329)" fill="#eae7e1"/>
  <circle id="Ellipse_96" data-name="Ellipse 96" cx="1.323" cy="1.323" r="1.323" transform="translate(17.276 13.193)" fill="#eae7e1"/>
  <circle id="Ellipse_97" data-name="Ellipse 97" cx="1.026" cy="1.026" r="1.026" transform="translate(64.407 121.622)" fill="#eae7e1"/>
  <circle id="Ellipse_98" data-name="Ellipse 98" cx="0.513" cy="0.513" r="0.513" transform="translate(18.702 45.13)" fill="#eae7e1"/>
  <circle id="Ellipse_99" data-name="Ellipse 99" cx="0.872" cy="0.872" r="0.872" transform="translate(67.464 87.88)" fill="#eae7e1"/>
  <circle id="Ellipse_100" data-name="Ellipse 100" cx="1.334" cy="1.334" r="1.334" transform="translate(46.115 92.497)" fill="#eae7e1"/>
  <circle id="Ellipse_101" data-name="Ellipse 101" cx="0.616" cy="0.616" r="0.616" transform="translate(92.097 74.163)" fill="#eae7e1"/>
  <circle id="Ellipse_102" data-name="Ellipse 102" cx="0.718" cy="0.718" r="0.718" transform="translate(42.319 51.778)" fill="#eae7e1"/>
  <circle id="Ellipse_103" data-name="Ellipse 103" cx="1.149" cy="1.149" r="1.149" transform="translate(91.769 62.242)" fill="#eae7e1"/>
  <circle id="Ellipse_104" data-name="Ellipse 104" cx="1.026" cy="1.026" r="1.026" transform="translate(38.902 63.617)" fill="#eae7e1"/>
  <circle id="Ellipse_105" data-name="Ellipse 105" cx="0.513" cy="0.513" r="0.513" transform="translate(58.621 43.058)" fill="#eae7e1"/>
  <circle id="Ellipse_106" data-name="Ellipse 106" cx="0.718" cy="0.718" r="0.718" transform="translate(43.365 75.425)" fill="#eae7e1"/>
  <circle id="Ellipse_107" data-name="Ellipse 107" cx="0.513" cy="0.513" r="0.513" transform="translate(40.514 14.968)" fill="#eae7e1"/>
  <circle id="Ellipse_108" data-name="Ellipse 108" cx="0.718" cy="0.718" r="0.718" transform="translate(56.487 98.632)" fill="#eae7e1"/>
  <circle id="Ellipse_109" data-name="Ellipse 109" cx="0.718" cy="0.718" r="0.718" transform="translate(67.711 101.956)" fill="#eae7e1"/>
  <circle id="Ellipse_110" data-name="Ellipse 110" cx="0.513" cy="0.513" r="0.513" transform="translate(108.521 122.843)" fill="#eae7e1"/>
  <circle id="Ellipse_111" data-name="Ellipse 111" cx="1.026" cy="1.026" r="1.026" transform="translate(50.558 114.585)" fill="#eae7e1"/>
  <circle id="Ellipse_112" data-name="Ellipse 112" cx="0.513" cy="0.513" r="0.513" transform="translate(37.692 46.546)" fill="#eae7e1"/>
  <circle id="Ellipse_113" data-name="Ellipse 113" cx="0.513" cy="0.513" r="0.513" transform="translate(127.665 88.824)" fill="#eae7e1"/>
  <circle id="Ellipse_114" data-name="Ellipse 114" cx="0.718" cy="0.718" r="0.718" transform="translate(115.703 84.71)" fill="#eae7e1"/>
  <circle id="Ellipse_115" data-name="Ellipse 115" cx="0.718" cy="0.718" r="0.718" transform="translate(76.153 113.364)" fill="#eae7e1"/>
  <circle id="Ellipse_116" data-name="Ellipse 116" cx="0.513" cy="0.513" r="0.513" transform="translate(52.968 54.23)" fill="#eae7e1"/>
  <circle id="Ellipse_117" data-name="Ellipse 117" cx="0.513" cy="0.513" r="0.513" transform="translate(116.698 76.636)" fill="#eae7e1"/>
  <circle id="Ellipse_118" data-name="Ellipse 118" cx="0.718" cy="0.718" r="0.718" transform="translate(107.178 101.196)" fill="#eae7e1"/>
  <circle id="Ellipse_119" data-name="Ellipse 119" cx="0.513" cy="0.513" r="0.513" transform="translate(102.038 40.903)" fill="#eae7e1"/>
  <circle id="Ellipse_120" data-name="Ellipse 120" cx="0.564" cy="0.564" r="0.564" transform="translate(74.656 51.029)" fill="#eae7e1"/>
  <circle id="Ellipse_121" data-name="Ellipse 121" cx="0.718" cy="0.718" r="0.718" transform="translate(98.088 85.11)" fill="#eae7e1"/>
  <circle id="Ellipse_122" data-name="Ellipse 122" cx="0.41" cy="0.41" r="0.41" transform="translate(82.494 42.863)" fill="#eae7e1"/>
  <circle id="Ellipse_123" data-name="Ellipse 123" cx="0.718" cy="0.718" r="0.718" transform="translate(84.854 120.022)" fill="#eae7e1"/>
  <circle id="Ellipse_124" data-name="Ellipse 124" cx="0.718" cy="0.718" r="0.718" transform="translate(98.252 50.167)" fill="#eae7e1"/>
  <circle id="Ellipse_125" data-name="Ellipse 125" cx="0.513" cy="0.513" r="0.513" transform="translate(100.561 60.693)" fill="#eae7e1"/>
  <circle id="Ellipse_126" data-name="Ellipse 126" cx="0.718" cy="0.718" r="0.718" transform="translate(61.903 81.776)" fill="#eae7e1"/>
  <circle id="Ellipse_127" data-name="Ellipse 127" cx="0.513" cy="0.513" r="0.513" transform="translate(122.238 41.221)" fill="#eae7e1"/>
  <circle id="Ellipse_128" data-name="Ellipse 128" cx="1.026" cy="1.026" r="1.026" transform="translate(28.315 123.777)" fill="#eae7e1"/>
  <circle id="Ellipse_129" data-name="Ellipse 129" cx="0.718" cy="0.718" r="0.718" transform="translate(11.706 122.73)" fill="#eae7e1"/>
  <circle id="Ellipse_130" data-name="Ellipse 130" cx="0.616" cy="0.616" r="0.616" transform="translate(2.626 117.026)" fill="#eae7e1"/>
  <circle id="Ellipse_131" data-name="Ellipse 131" cx="0.718" cy="0.718" r="0.718" transform="translate(17.328 81.047)" fill="#eae7e1"/>
  <circle id="Ellipse_132" data-name="Ellipse 132" cx="0.513" cy="0.513" r="0.513" transform="translate(56.21 112.235)" fill="#eae7e1"/>
  <circle id="Ellipse_133" data-name="Ellipse 133" cx="0.513" cy="0.513" r="0.513" transform="translate(27.659 87.275)" fill="#eae7e1"/>
  <circle id="Ellipse_134" data-name="Ellipse 134" cx="0.718" cy="0.718" r="0.718" transform="translate(13.696 93.461)" fill="#eae7e1"/>
  <circle id="Ellipse_135" data-name="Ellipse 135" cx="0.513" cy="0.513" r="0.513" transform="translate(5.643 92.681)" fill="#eae7e1"/>
  <circle id="Ellipse_136" data-name="Ellipse 136" cx="0.718" cy="0.718" r="0.718" transform="translate(29.32 98.847)" fill="#eae7e1"/>
  <circle id="Ellipse_137" data-name="Ellipse 137" cx="0.718" cy="0.718" r="0.718" transform="translate(13.706 111.086)" fill="#eae7e1"/>
  <circle id="Ellipse_138" data-name="Ellipse 138" cx="0.718" cy="0.718" r="0.718" transform="translate(43.632 122.997)" fill="#eae7e1"/>
  <circle id="Ellipse_139" data-name="Ellipse 139" cx="1.026" cy="1.026" r="1.026" transform="translate(25.843 46.218)" fill="#eae7e1"/>
  <circle id="Ellipse_140" data-name="Ellipse 140" cx="0.718" cy="0.718" r="0.718" transform="translate(9.213 45.551)" fill="#eae7e1"/>
  <circle id="Ellipse_141" data-name="Ellipse 141" cx="0.616" cy="0.616" r="0.616" transform="translate(0 40.062)" fill="#eae7e1"/>
  <circle id="Ellipse_142" data-name="Ellipse 142" cx="0.718" cy="0.718" r="0.718" transform="translate(9.9 1.857)" fill="#eae7e1"/>
  <circle id="Ellipse_143" data-name="Ellipse 143" cx="0.513" cy="0.513" r="0.513" transform="translate(53.461 34.071)" fill="#eae7e1"/>
  <circle id="Ellipse_144" data-name="Ellipse 144" cx="0.513" cy="0.513" r="0.513" transform="translate(24.365 9.756)" fill="#eae7e1"/>
  <circle id="Ellipse_145" data-name="Ellipse 145" cx="0.718" cy="0.718" r="0.718" transform="translate(10.547 16.25)" fill="#eae7e1"/>
  <circle id="Ellipse_146" data-name="Ellipse 146" cx="0.513" cy="0.513" r="0.513" transform="translate(2.473 15.656)" fill="#eae7e1"/>
  <circle id="Ellipse_147" data-name="Ellipse 147" cx="0.718" cy="0.718" r="0.718" transform="translate(27.033 24.776)" fill="#eae7e1"/>
  <circle id="Ellipse_148" data-name="Ellipse 148" cx="0.718" cy="0.718" r="0.718" transform="translate(10.946 33.865)" fill="#eae7e1"/>
  <circle id="Ellipse_149" data-name="Ellipse 149" cx="0.718" cy="0.718" r="0.718" transform="translate(41.14 45.099)" fill="#eae7e1"/>
  <circle id="Ellipse_150" data-name="Ellipse 150" cx="0.718" cy="0.718" r="0.718" transform="translate(126.064 107.085)" fill="#eae7e1"/>
  <circle id="Ellipse_151" data-name="Ellipse 151" cx="0.513" cy="0.513" r="0.513" transform="translate(99.821 119.919)" fill="#eae7e1"/>
  <circle id="Ellipse_152" data-name="Ellipse 152" cx="1.026" cy="1.026" r="1.026" transform="translate(77.221 91.142)" fill="#eae7e1"/>
  <circle id="Ellipse_153" data-name="Ellipse 153" cx="1.334" cy="1.334" r="1.334" transform="translate(97.082 17.164)" fill="#eae7e1"/>
  <circle id="Ellipse_154" data-name="Ellipse 154" cx="0.718" cy="0.718" r="0.718" transform="translate(116.698 109.506)" fill="#eae7e1"/>
  <circle id="Ellipse_155" data-name="Ellipse 155" cx="0.513" cy="0.513" r="0.513" transform="translate(125.336 118.411)" fill="#eae7e1"/>
  <circle id="Ellipse_156" data-name="Ellipse 156" cx="0.718" cy="0.718" r="0.718" transform="translate(102.52 104.5)" fill="#eae7e1"/>
  <circle id="Ellipse_157" data-name="Ellipse 157" cx="0.513" cy="0.513" r="0.513" transform="translate(114.605 15.266)" fill="#eae7e1"/>
  <circle id="Ellipse_158" data-name="Ellipse 158" cx="0.564" cy="0.564" r="0.564" transform="translate(114.164 103.987)" fill="#eae7e1"/>
  <circle id="Ellipse_159" data-name="Ellipse 159" cx="0.41" cy="0.41" r="0.41" transform="translate(106.531 112.358)" fill="#eae7e1"/>
  <circle id="Ellipse_160" data-name="Ellipse 160" cx="0.718" cy="0.718" r="0.718" transform="translate(90.271 104.223)" fill="#eae7e1"/>
  <circle id="Ellipse_161" data-name="Ellipse 161" cx="0.513" cy="0.513" r="0.513" transform="translate(128.506 30.993)" fill="#eae7e1"/>
  <circle id="Ellipse_162" data-name="Ellipse 162" cx="0.718" cy="0.718" r="0.718" transform="translate(123.685 3.775)" fill="#eae7e1"/>
  <circle id="Ellipse_163" data-name="Ellipse 163" cx="1.026" cy="1.026" r="1.026" transform="translate(110.728 23.545)" fill="#eae7e1"/>
  <circle id="Ellipse_164" data-name="Ellipse 164" cx="0.718" cy="0.718" r="0.718" transform="translate(121.602 19.862)" fill="#eae7e1"/>
  <circle id="Ellipse_165" data-name="Ellipse 165" cx="0.872" cy="0.872" r="0.872" transform="translate(119.406 46.412)" fill="#eae7e1"/>
  <circle id="Ellipse_166" data-name="Ellipse 166" cx="0.513" cy="0.513" r="0.513" transform="translate(110.563 1.6)" fill="#eae7e1"/>
  <circle id="Ellipse_167" data-name="Ellipse 167" cx="0.513" cy="0.513" r="0.513" transform="translate(104.91 12.773)" fill="#eae7e1"/>
  <circle id="Ellipse_168" data-name="Ellipse 168" cx="0.564" cy="0.564" r="0.564" transform="translate(122.833 9.541)" fill="#eae7e1"/>
  <circle id="Ellipse_169" data-name="Ellipse 169" cx="0.718" cy="0.718" r="0.718" transform="translate(113.846 40.308)" fill="#eae7e1"/>
  <circle id="Ellipse_170" data-name="Ellipse 170" cx="1.026" cy="1.026" r="1.026" transform="translate(67.834 29.475)" fill="#eae7e1"/>
  <circle id="Ellipse_171" data-name="Ellipse 171" cx="0.513" cy="0.513" r="0.513" transform="translate(33.157)" fill="#eae7e1"/>
  <circle id="Ellipse_172" data-name="Ellipse 172" cx="1.129" cy="1.129" r="1.129" transform="translate(51.788 74.112)" fill="#eae7e1"/>
  <circle id="Ellipse_173" data-name="Ellipse 173" cx="1.149" cy="1.149" r="1.149" transform="translate(5.294 79.55)" fill="#eae7e1"/>
  <circle id="Ellipse_174" data-name="Ellipse 174" cx="0.513" cy="0.513" r="0.513" transform="translate(46.3 5.889)" fill="#eae7e1"/>
  <circle id="Ellipse_175" data-name="Ellipse 175" cx="0.718" cy="0.718" r="0.718" transform="translate(42.514 15.163)" fill="#eae7e1"/>
  <circle id="Ellipse_176" data-name="Ellipse 176" cx="0.513" cy="0.513" r="0.513" transform="translate(44.822 25.689)" fill="#eae7e1"/>
  <circle id="Ellipse_177" data-name="Ellipse 177" cx="0.513" cy="0.513" r="0.513" transform="translate(66.5 6.217)" fill="#eae7e1"/>
  <circle id="Ellipse_178" data-name="Ellipse 178" cx="0.872" cy="0.872" r="0.872" transform="translate(63.668 11.408)" fill="#eae7e1"/>
  <circle id="Ellipse_179" data-name="Ellipse 179" cx="0.718" cy="0.718" r="0.718" transform="translate(58.108 5.304)" fill="#eae7e1"/>
</svg>
