<svg id="motif-particules-Desktop" xmlns="http://www.w3.org/2000/svg" width="196.485" height="190.867" viewBox="0 0 196.485 190.867">
  <rect id="Rectangle_29" data-name="Rectangle 29" width="196.484" height="190.867" fill="none"/>
  <circle id="Ellipse_70" data-name="Ellipse 70" cx="1.79" cy="1.79" r="1.79" transform="translate(80.424 44.989)" fill="#d1cbc0"/>
  <circle id="Ellipse_71" data-name="Ellipse 71" cx="1.089" cy="1.089" r="1.089" transform="translate(7.921 83.988)" fill="#d1cbc0"/>
  <circle id="Ellipse_72" data-name="Ellipse 72" cx="0.778" cy="0.778" r="0.778" transform="translate(116.139 109.898)" fill="#d1cbc0"/>
  <circle id="Ellipse_73" data-name="Ellipse 73" cx="1.089" cy="1.089" r="1.089" transform="translate(123.079 39.06)" fill="#d1cbc0"/>
  <circle id="Ellipse_74" data-name="Ellipse 74" cx="0.778" cy="0.778" r="0.778" transform="translate(163.073 103.222)" fill="#d1cbc0"/>
  <circle id="Ellipse_75" data-name="Ellipse 75" cx="1.712" cy="1.712" r="1.712" transform="translate(22.191 94.072)" fill="#d1cbc0"/>
  <circle id="Ellipse_76" data-name="Ellipse 76" cx="1.556" cy="1.556" r="1.556" transform="translate(129.102 151.697)" fill="#d1cbc0"/>
  <circle id="Ellipse_77" data-name="Ellipse 77" cx="1.556" cy="1.556" r="1.556" transform="translate(187.428 97.806)" fill="#d1cbc0"/>
  <circle id="Ellipse_78" data-name="Ellipse 78" cx="0.778" cy="0.778" r="0.778" transform="translate(15.531 145.659)" fill="#d1cbc0"/>
  <circle id="Ellipse_79" data-name="Ellipse 79" cx="0.778" cy="0.778" r="0.778" transform="translate(134.844 53.097)" fill="#d1cbc0"/>
  <circle id="Ellipse_80" data-name="Ellipse 80" cx="1.556" cy="1.556" r="1.556" transform="translate(159.805 46.686)" fill="#d1cbc0"/>
  <circle id="Ellipse_81" data-name="Ellipse 81" cx="2.023" cy="2.023" r="2.023" transform="translate(171.585 99.97)" fill="#d1cbc0"/>
  <circle id="Ellipse_82" data-name="Ellipse 82" cx="1.089" cy="1.089" r="1.089" transform="translate(151.978 5.353)" fill="#d1cbc0"/>
  <circle id="Ellipse_83" data-name="Ellipse 83" cx="1.089" cy="1.089" r="1.089" transform="translate(108.824 68.628)" fill="#d1cbc0"/>
  <circle id="Ellipse_84" data-name="Ellipse 84" cx="1.089" cy="1.089" r="1.089" transform="translate(131.047 126.471)" fill="#d1cbc0"/>
  <circle id="Ellipse_85" data-name="Ellipse 85" cx="0.778" cy="0.778" r="0.778" transform="translate(41.021 115.002)" fill="#d1cbc0"/>
  <circle id="Ellipse_86" data-name="Ellipse 86" cx="2.007" cy="2.007" r="2.007" transform="translate(115.127 14.161)" fill="#d1cbc0"/>
  <circle id="Ellipse_87" data-name="Ellipse 87" cx="1.556" cy="1.556" r="1.556" transform="translate(54.498 43.589)" fill="#d1cbc0"/>
  <circle id="Ellipse_88" data-name="Ellipse 88" cx="1.556" cy="1.556" r="1.556" transform="translate(39.839 171.243)" fill="#d1cbc0"/>
  <circle id="Ellipse_89" data-name="Ellipse 89" cx="0.778" cy="0.778" r="0.778" transform="translate(127.499 4.669)" fill="#d1cbc0"/>
  <circle id="Ellipse_90" data-name="Ellipse 90" cx="0.778" cy="0.778" r="0.778" transform="translate(100.623 49.72)" fill="#d1cbc0"/>
  <circle id="Ellipse_91" data-name="Ellipse 91" cx="1.556" cy="1.556" r="1.556" transform="translate(89.17 98.6)" fill="#d1cbc0"/>
  <circle id="Ellipse_92" data-name="Ellipse 92" cx="1.089" cy="1.089" r="1.089" transform="translate(130.439 75.926)" fill="#d1cbc0"/>
  <circle id="Ellipse_93" data-name="Ellipse 93" cx="0.778" cy="0.778" r="0.778" transform="translate(42.048 51.339)" fill="#d1cbc0"/>
  <circle id="Ellipse_94" data-name="Ellipse 94" cx="1.089" cy="1.089" r="1.089" transform="translate(41.504 95.27)" fill="#d1cbc0"/>
  <circle id="Ellipse_95" data-name="Ellipse 95" cx="1.089" cy="1.089" r="1.089" transform="translate(105.665 93.029)" fill="#d1cbc0"/>
  <circle id="Ellipse_96" data-name="Ellipse 96" cx="2.007" cy="2.007" r="2.007" transform="translate(26.206 20.013)" fill="#d1cbc0"/>
  <circle id="Ellipse_97" data-name="Ellipse 97" cx="1.556" cy="1.556" r="1.556" transform="translate(97.697 184.486)" fill="#d1cbc0"/>
  <circle id="Ellipse_98" data-name="Ellipse 98" cx="0.778" cy="0.778" r="0.778" transform="translate(28.369 68.457)" fill="#d1cbc0"/>
  <circle id="Ellipse_99" data-name="Ellipse 99" cx="1.323" cy="1.323" r="1.323" transform="translate(102.335 133.303)" fill="#d1cbc0"/>
  <circle id="Ellipse_100" data-name="Ellipse 100" cx="2.023" cy="2.023" r="2.023" transform="translate(69.951 140.306)" fill="#d1cbc0"/>
  <circle id="Ellipse_101" data-name="Ellipse 101" cx="0.934" cy="0.934" r="0.934" transform="translate(139.699 112.497)" fill="#d1cbc0"/>
  <circle id="Ellipse_102" data-name="Ellipse 102" cx="1.089" cy="1.089" r="1.089" transform="translate(64.192 78.541)" fill="#d1cbc0"/>
  <circle id="Ellipse_103" data-name="Ellipse 103" cx="1.743" cy="1.743" r="1.743" transform="translate(139.201 94.414)" fill="#d1cbc0"/>
  <circle id="Ellipse_104" data-name="Ellipse 104" cx="1.556" cy="1.556" r="1.556" transform="translate(59.011 96.499)" fill="#d1cbc0"/>
  <circle id="Ellipse_105" data-name="Ellipse 105" cx="0.778" cy="0.778" r="0.778" transform="translate(88.921 65.313)" fill="#d1cbc0"/>
  <circle id="Ellipse_106" data-name="Ellipse 106" cx="1.089" cy="1.089" r="1.089" transform="translate(65.78 114.411)" fill="#d1cbc0"/>
  <circle id="Ellipse_107" data-name="Ellipse 107" cx="0.778" cy="0.778" r="0.778" transform="translate(61.454 22.705)" fill="#d1cbc0"/>
  <circle id="Ellipse_108" data-name="Ellipse 108" cx="1.089" cy="1.089" r="1.089" transform="translate(85.684 149.612)" fill="#d1cbc0"/>
  <circle id="Ellipse_109" data-name="Ellipse 109" cx="1.089" cy="1.089" r="1.089" transform="translate(102.708 154.654)" fill="#d1cbc0"/>
  <circle id="Ellipse_110" data-name="Ellipse 110" cx="0.778" cy="0.778" r="0.778" transform="translate(164.613 186.338)" fill="#d1cbc0"/>
  <circle id="Ellipse_111" data-name="Ellipse 111" cx="1.556" cy="1.556" r="1.556" transform="translate(76.689 173.811)" fill="#d1cbc0"/>
  <circle id="Ellipse_112" data-name="Ellipse 112" cx="0.778" cy="0.778" r="0.778" transform="translate(57.175 70.604)" fill="#d1cbc0"/>
  <circle id="Ellipse_113" data-name="Ellipse 113" cx="0.778" cy="0.778" r="0.778" transform="translate(193.652 134.735)" fill="#d1cbc0"/>
  <circle id="Ellipse_114" data-name="Ellipse 114" cx="1.089" cy="1.089" r="1.089" transform="translate(175.507 128.495)" fill="#d1cbc0"/>
  <circle id="Ellipse_115" data-name="Ellipse 115" cx="1.089" cy="1.089" r="1.089" transform="translate(115.516 171.959)" fill="#d1cbc0"/>
  <circle id="Ellipse_116" data-name="Ellipse 116" cx="0.778" cy="0.778" r="0.778" transform="translate(80.346 82.26)" fill="#d1cbc0"/>
  <circle id="Ellipse_117" data-name="Ellipse 117" cx="0.778" cy="0.778" r="0.778" transform="translate(177.017 116.247)" fill="#d1cbc0"/>
  <circle id="Ellipse_118" data-name="Ellipse 118" cx="1.089" cy="1.089" r="1.089" transform="translate(162.575 153.502)" fill="#d1cbc0"/>
  <circle id="Ellipse_119" data-name="Ellipse 119" cx="0.778" cy="0.778" r="0.778" transform="translate(154.778 62.045)" fill="#d1cbc0"/>
  <circle id="Ellipse_120" data-name="Ellipse 120" cx="0.856" cy="0.856" r="0.856" transform="translate(113.244 77.405)" fill="#d1cbc0"/>
  <circle id="Ellipse_121" data-name="Ellipse 121" cx="1.089" cy="1.089" r="1.089" transform="translate(148.787 129.101)" fill="#d1cbc0"/>
  <circle id="Ellipse_122" data-name="Ellipse 122" cx="0.622" cy="0.622" r="0.622" transform="translate(125.133 65.018)" fill="#d1cbc0"/>
  <circle id="Ellipse_123" data-name="Ellipse 123" cx="1.089" cy="1.089" r="1.089" transform="translate(128.712 182.059)" fill="#d1cbc0"/>
  <circle id="Ellipse_124" data-name="Ellipse 124" cx="1.089" cy="1.089" r="1.089" transform="translate(149.036 76.098)" fill="#d1cbc0"/>
  <circle id="Ellipse_125" data-name="Ellipse 125" cx="0.778" cy="0.778" r="0.778" transform="translate(152.538 92.064)" fill="#d1cbc0"/>
  <circle id="Ellipse_126" data-name="Ellipse 126" cx="1.089" cy="1.089" r="1.089" transform="translate(93.9 124.044)" fill="#d1cbc0"/>
  <circle id="Ellipse_127" data-name="Ellipse 127" cx="0.778" cy="0.778" r="0.778" transform="translate(185.42 62.528)" fill="#d1cbc0"/>
  <circle id="Ellipse_128" data-name="Ellipse 128" cx="1.556" cy="1.556" r="1.556" transform="translate(42.951 187.754)" fill="#d1cbc0"/>
  <circle id="Ellipse_129" data-name="Ellipse 129" cx="1.089" cy="1.089" r="1.089" transform="translate(17.756 186.167)" fill="#d1cbc0"/>
  <circle id="Ellipse_130" data-name="Ellipse 130" cx="0.934" cy="0.934" r="0.934" transform="translate(3.983 177.514)" fill="#d1cbc0"/>
  <circle id="Ellipse_131" data-name="Ellipse 131" cx="1.089" cy="1.089" r="1.089" transform="translate(26.284 122.939)" fill="#d1cbc0"/>
  <circle id="Ellipse_132" data-name="Ellipse 132" cx="0.778" cy="0.778" r="0.778" transform="translate(85.264 170.247)" fill="#d1cbc0"/>
  <circle id="Ellipse_133" data-name="Ellipse 133" cx="0.778" cy="0.778" r="0.778" transform="translate(41.955 132.385)" fill="#d1cbc0"/>
  <circle id="Ellipse_134" data-name="Ellipse 134" cx="1.089" cy="1.089" r="1.089" transform="translate(20.775 141.769)" fill="#d1cbc0"/>
  <circle id="Ellipse_135" data-name="Ellipse 135" cx="0.778" cy="0.778" r="0.778" transform="translate(8.559 140.586)" fill="#d1cbc0"/>
  <circle id="Ellipse_136" data-name="Ellipse 136" cx="1.089" cy="1.089" r="1.089" transform="translate(44.476 149.939)" fill="#d1cbc0"/>
  <circle id="Ellipse_137" data-name="Ellipse 137" cx="1.089" cy="1.089" r="1.089" transform="translate(20.791 168.504)" fill="#d1cbc0"/>
  <circle id="Ellipse_138" data-name="Ellipse 138" cx="1.089" cy="1.089" r="1.089" transform="translate(66.185 186.572)" fill="#d1cbc0"/>
  <circle id="Ellipse_139" data-name="Ellipse 139" cx="1.556" cy="1.556" r="1.556" transform="translate(39.2 70.106)" fill="#d1cbc0"/>
  <circle id="Ellipse_140" data-name="Ellipse 140" cx="1.089" cy="1.089" r="1.089" transform="translate(13.975 69.095)" fill="#d1cbc0"/>
  <circle id="Ellipse_141" data-name="Ellipse 141" cx="0.934" cy="0.934" r="0.934" transform="translate(0 60.769)" fill="#d1cbc0"/>
  <circle id="Ellipse_142" data-name="Ellipse 142" cx="1.089" cy="1.089" r="1.089" transform="translate(15.018 2.817)" fill="#d1cbc0"/>
  <circle id="Ellipse_143" data-name="Ellipse 143" cx="0.778" cy="0.778" r="0.778" transform="translate(81.093 51.681)" fill="#d1cbc0"/>
  <circle id="Ellipse_144" data-name="Ellipse 144" cx="0.778" cy="0.778" r="0.778" transform="translate(36.96 14.799)" fill="#d1cbc0"/>
  <circle id="Ellipse_145" data-name="Ellipse 145" cx="1.089" cy="1.089" r="1.089" transform="translate(15.998 24.65)" fill="#d1cbc0"/>
  <circle id="Ellipse_146" data-name="Ellipse 146" cx="0.778" cy="0.778" r="0.778" transform="translate(3.75 23.747)" fill="#d1cbc0"/>
  <circle id="Ellipse_147" data-name="Ellipse 147" cx="1.089" cy="1.089" r="1.089" transform="translate(41.006 37.582)" fill="#d1cbc0"/>
  <circle id="Ellipse_148" data-name="Ellipse 148" cx="1.089" cy="1.089" r="1.089" transform="translate(16.604 51.37)" fill="#d1cbc0"/>
  <circle id="Ellipse_149" data-name="Ellipse 149" cx="1.089" cy="1.089" r="1.089" transform="translate(62.403 68.41)" fill="#d1cbc0"/>
  <circle id="Ellipse_150" data-name="Ellipse 150" cx="1.089" cy="1.089" r="1.089" transform="translate(191.225 162.435)" fill="#d1cbc0"/>
  <circle id="Ellipse_151" data-name="Ellipse 151" cx="0.778" cy="0.778" r="0.778" transform="translate(151.417 181.903)" fill="#d1cbc0"/>
  <circle id="Ellipse_152" data-name="Ellipse 152" cx="1.556" cy="1.556" r="1.556" transform="translate(117.135 138.252)" fill="#d1cbc0"/>
  <circle id="Ellipse_153" data-name="Ellipse 153" cx="2.023" cy="2.023" r="2.023" transform="translate(147.262 26.035)" fill="#d1cbc0"/>
  <circle id="Ellipse_154" data-name="Ellipse 154" cx="1.089" cy="1.089" r="1.089" transform="translate(177.017 166.108)" fill="#d1cbc0"/>
  <circle id="Ellipse_155" data-name="Ellipse 155" cx="0.778" cy="0.778" r="0.778" transform="translate(190.119 179.615)" fill="#d1cbc0"/>
  <circle id="Ellipse_156" data-name="Ellipse 156" cx="1.089" cy="1.089" r="1.089" transform="translate(155.51 158.513)" fill="#d1cbc0"/>
  <circle id="Ellipse_157" data-name="Ellipse 157" cx="0.778" cy="0.778" r="0.778" transform="translate(173.842 23.156)" fill="#d1cbc0"/>
  <circle id="Ellipse_158" data-name="Ellipse 158" cx="0.856" cy="0.856" r="0.856" transform="translate(173.173 157.735)" fill="#d1cbc0"/>
  <circle id="Ellipse_159" data-name="Ellipse 159" cx="0.622" cy="0.622" r="0.622" transform="translate(161.595 170.434)" fill="#d1cbc0"/>
  <circle id="Ellipse_160" data-name="Ellipse 160" cx="1.089" cy="1.089" r="1.089" transform="translate(136.929 158.093)" fill="#d1cbc0"/>
  <circle id="Ellipse_161" data-name="Ellipse 161" cx="0.778" cy="0.778" r="0.778" transform="translate(194.929 47.012)" fill="#d1cbc0"/>
  <circle id="Ellipse_162" data-name="Ellipse 162" cx="1.089" cy="1.089" r="1.089" transform="translate(187.614 5.727)" fill="#d1cbc0"/>
  <circle id="Ellipse_163" data-name="Ellipse 163" cx="1.556" cy="1.556" r="1.556" transform="translate(167.96 35.715)" fill="#d1cbc0"/>
  <circle id="Ellipse_164" data-name="Ellipse 164" cx="1.089" cy="1.089" r="1.089" transform="translate(184.455 30.128)" fill="#d1cbc0"/>
  <circle id="Ellipse_165" data-name="Ellipse 165" cx="1.323" cy="1.323" r="1.323" transform="translate(181.125 70.402)" fill="#d1cbc0"/>
  <circle id="Ellipse_166" data-name="Ellipse 166" cx="0.778" cy="0.778" r="0.778" transform="translate(167.711 2.428)" fill="#d1cbc0"/>
  <circle id="Ellipse_167" data-name="Ellipse 167" cx="0.778" cy="0.778" r="0.778" transform="translate(159.136 19.375)" fill="#d1cbc0"/>
  <circle id="Ellipse_168" data-name="Ellipse 168" cx="0.856" cy="0.856" r="0.856" transform="translate(186.322 14.473)" fill="#d1cbc0"/>
  <circle id="Ellipse_169" data-name="Ellipse 169" cx="1.089" cy="1.089" r="1.089" transform="translate(172.69 61.143)" fill="#d1cbc0"/>
  <circle id="Ellipse_170" data-name="Ellipse 170" cx="1.556" cy="1.556" r="1.556" transform="translate(102.896 44.709)" fill="#d1cbc0"/>
  <circle id="Ellipse_171" data-name="Ellipse 171" cx="0.778" cy="0.778" r="0.778" transform="translate(50.296)" fill="#d1cbc0"/>
  <circle id="Ellipse_172" data-name="Ellipse 172" cx="1.712" cy="1.712" r="1.712" transform="translate(78.557 112.419)" fill="#d1cbc0"/>
  <circle id="Ellipse_173" data-name="Ellipse 173" cx="1.743" cy="1.743" r="1.743" transform="translate(8.03 120.667)" fill="#d1cbc0"/>
  <circle id="Ellipse_174" data-name="Ellipse 174" cx="0.778" cy="0.778" r="0.778" transform="translate(70.23 8.933)" fill="#d1cbc0"/>
  <circle id="Ellipse_175" data-name="Ellipse 175" cx="1.089" cy="1.089" r="1.089" transform="translate(64.488 23)" fill="#d1cbc0"/>
  <circle id="Ellipse_176" data-name="Ellipse 176" cx="0.778" cy="0.778" r="0.778" transform="translate(67.99 38.967)" fill="#d1cbc0"/>
  <circle id="Ellipse_177" data-name="Ellipse 177" cx="0.778" cy="0.778" r="0.778" transform="translate(100.872 9.431)" fill="#d1cbc0"/>
  <circle id="Ellipse_178" data-name="Ellipse 178" cx="1.323" cy="1.323" r="1.323" transform="translate(96.577 17.305)" fill="#d1cbc0"/>
  <circle id="Ellipse_179" data-name="Ellipse 179" cx="1.089" cy="1.089" r="1.089" transform="translate(88.143 8.046)" fill="#d1cbc0"/>
</svg>
