<?xml version="1.0" encoding="utf-8"?>
<!-- Generator: Adobe Illustrator 24.1.3, SVG Export Plug-In . SVG Version: 6.00 Build 0)  -->
<svg version="1.1" id="Motif-silhouette-Desktop" xmlns="http://www.w3.org/2000/svg" xmlns:xlink="http://www.w3.org/1999/xlink"
	 x="0px" y="0px" viewBox="0 0 68.3 46.4" style="enable-background:new 0 0 68.3 46.4;" xml:space="preserve">
<style type="text/css">
	.st0{fill:none;}
	.st1{fill:#D1CBC0;}
</style>
<rect id="Rectangle_53" class="st0" width="68.3" height="46.4"/>
<path id="Tracé_523" class="st1" d="M14,18L5.9,40.7C5.8,40.9,5.7,41,5.5,41c-0.1,0-0.1,0-0.2,0c-0.2-0.1-0.4-0.3-0.3-0.6l7.9-22.1
	H4.2c-0.3,0-0.5-0.2-0.5-0.5c0,0,0-0.1,0-0.1L6,5.2c0-0.2,0.3-0.4,0.5-0.4c0.2,0,0.4,0.3,0.4,0.5l0,0l-2.2,12h8.9
	c0.1,0,0.3,0.1,0.4,0.2C14.1,17.7,14.1,17.9,14,18z M27.1,5.4c0-0.2-0.3-0.4-0.5-0.4c-0.2,0-0.4,0.3-0.4,0.5l2,11.8h-8.9
	c-0.3,0-0.5,0.2-0.5,0.5c0,0.1,0,0.1,0,0.2l8.3,22.7c0.1,0.2,0.2,0.3,0.4,0.3c0.1,0,0.1,0,0.2,0c0.2-0.1,0.4-0.4,0.3-0.6l-8.1-22.1
	h8.8c0.1,0,0.3-0.1,0.3-0.2c0.1-0.1,0.1-0.2,0.1-0.4L27.1,5.4z M18.2,30.3c-0.3-0.5-0.9-0.8-1.5-0.9l0,0c-0.6,0-1.2,0.3-1.5,0.8
	L9,40.3c-0.1,0.2-0.1,0.5,0.1,0.6c0.2,0.1,0.5,0.1,0.6-0.1c0,0,0,0,0,0l6.2-10.1c0.2-0.3,0.4-0.4,0.7-0.4l0,0c0.3,0,0.6,0.2,0.7,0.4
	l6.1,10.1c0.1,0.2,0.4,0.3,0.6,0.2c0.2-0.1,0.3-0.4,0.2-0.6L18.2,30.3z M9.8,13.5H15c0.3,0,0.5-0.2,0.5-0.5c0-0.1,0-0.2-0.1-0.2
	c0,0-2.5-4.3-0.3-6.2c0.4-0.3,0.8-0.4,1.3-0.4c0.5,0,0.9,0.1,1.3,0.4c2.2,1.9-0.1,6.2-0.2,6.2c-0.1,0.2,0,0.5,0.2,0.6
	c0.1,0,0.1,0.1,0.2,0.1h5.1c0.3,0,0.5-0.2,0.5-0.5c0-0.3-0.2-0.5-0.5-0.5h-4.4c0.6-1.4,1.8-4.8-0.4-6.7c-0.5-0.4-1.2-0.6-1.9-0.6
	c-0.7,0-1.3,0.2-1.8,0.6c-2.2,1.9-1,5.2-0.3,6.6H9.8c-0.3,0-0.5,0.2-0.5,0.5C9.3,13.3,9.5,13.5,9.8,13.5L9.8,13.5z M64.5,27.7
	c-0.1-0.1-0.2-0.2-0.4-0.2h-8.8l7.9-22.1c0.1-0.2,0-0.5-0.3-0.6c0,0,0,0,0,0c0,0-0.1,0-0.2,0c-0.2,0-0.4,0.1-0.4,0.3l-8.1,22.7
	c0,0.1,0,0.3,0.1,0.4c0.1,0.1,0.2,0.2,0.4,0.2h8.9l-2.2,12c0,0.2,0.1,0.5,0.4,0.5s0.5-0.1,0.5-0.4l0,0l2.3-12.5
	C64.6,28,64.6,27.8,64.5,27.7L64.5,27.7z M40.1,28.5H49c0.3,0,0.5-0.2,0.5-0.5c0-0.1,0-0.1,0-0.2L41,5.1C41,5,40.8,4.8,40.6,4.8
	c-0.1,0-0.1,0-0.2,0c-0.2,0.1-0.4,0.4-0.3,0.6l8.1,22.1h-8.8c-0.1,0-0.3,0.1-0.3,0.2c-0.1,0.1-0.1,0.2-0.1,0.4l2.1,12.4
	c0,0.3,0.2,0.4,0.5,0.4c0.3,0,0.4-0.2,0.4-0.5c0,0,0,0,0-0.1L40.1,28.5z M50.2,15.6c0.3,0.5,0.9,0.8,1.5,0.9l0,0
	c0.6,0,1.2-0.3,1.5-0.8l6.2-10.1c0.1-0.2,0.1-0.5-0.1-0.6C59,4.8,58.7,4.8,58.6,5c0,0,0,0,0,0l-6.2,10.1c-0.2,0.3-0.4,0.4-0.7,0.4
	l0,0c-0.3,0-0.6-0.2-0.7-0.4L44.8,5.1c-0.1-0.2-0.4-0.3-0.6-0.2C44,5,43.9,5.3,44,5.5L50.2,15.6z M58.6,32.4h-5.3
	c-0.3,0-0.5,0.2-0.5,0.5c0,0.1,0,0.2,0.1,0.2c0,0,2.5,4.3,0.3,6.2c-0.4,0.3-0.8,0.4-1.3,0.4c-0.5,0-0.9-0.1-1.3-0.4
	c-2.2-1.9,0.1-6.2,0.2-6.2c0.1-0.2,0-0.5-0.2-0.6c-0.1,0-0.1-0.1-0.2-0.1h-5.2c-0.3,0-0.5,0.2-0.5,0.5c0,0.3,0.2,0.5,0.5,0.5h4.4
	c-0.6,1.4-1.8,4.8,0.4,6.7c0.5,0.4,1.2,0.6,1.9,0.6c0.7,0,1.3-0.2,1.8-0.6c2.2-1.9,1-5.2,0.3-6.6h4.5c0.3,0,0.5-0.2,0.5-0.5
	C59,32.6,58.8,32.4,58.6,32.4L58.6,32.4z"/>
</svg>
