<svg xmlns="http://www.w3.org/2000/svg" viewBox="0 0 384.54 414.67"><defs><style>.cls-1{fill:#7a8196;}</style></defs><g id="Calque_2" data-name="Calque 2"><g id="Particules-Etoiles-ok"><path id="Particules-Air" class="cls-1" d="M67.83,25.38a1.31,1.31,0,1,1,1.59-.95A1.31,1.31,0,0,1,67.83,25.38ZM195.07,336A1.51,1.51,0,1,1,196.9,335,1.52,1.52,0,0,1,195.07,336Zm188.34-73.39a.91.91,0,1,1,1.1-.66A.91.91,0,0,1,383.41,262.65ZM243,80.38a.65.65,0,1,1,.32-1.27.65.65,0,0,1-.32,1.27ZM127.36,328.25a.91.91,0,1,1,1.11-.66A.91.91,0,0,1,127.36,328.25ZM94.49,166.57a.66.66,0,0,1-.48-.8.67.67,0,0,1,.8-.48.66.66,0,0,1-.32,1.28ZM354.7,243.68a1.44,1.44,0,1,1,1.76-1A1.44,1.44,0,0,1,354.7,243.68ZM179.08,66a1.31,1.31,0,1,1,1.59-1A1.32,1.32,0,0,1,179.08,66ZM8.17,214.47a1.31,1.31,0,1,1,1.59-.95A1.31,1.31,0,0,1,8.17,214.47Zm370.56-54.74a.65.65,0,0,1-.48-.79.65.65,0,1,1,1.27.32A.65.65,0,0,1,378.73,159.73Zm-199,119.47a.64.64,0,0,1-.47-.79.65.65,0,0,1,.79-.48.65.65,0,1,1-.32,1.27ZM63.47,284.69a1.31,1.31,0,1,1,1.59-.95A1.31,1.31,0,0,1,63.47,284.69ZM13.23,167.76a1.71,1.71,0,1,1,2.08-1.24A1.71,1.71,0,0,1,13.23,167.76ZM69.71,342.93a.91.91,0,1,1,1.11-.66A.91.91,0,0,1,69.71,342.93Zm113.58,8a.91.91,0,1,1,1.11-.66A.91.91,0,0,1,183.29,350.94ZM116.81,51.58a.91.91,0,1,1,.45-1.76.91.91,0,1,1-.45,1.76Zm239.84,145.7a.65.65,0,1,1,.8-.48A.66.66,0,0,1,356.65,197.28Zm-222.95,182a1.69,1.69,0,1,1,2.05-1.22A1.67,1.67,0,0,1,133.7,379.28Zm125.18-45.4a1.31,1.31,0,1,1,1.59-.95A1.3,1.3,0,0,1,258.88,333.88Zm80-269.72a1.31,1.31,0,1,1,1.59-.95A1.31,1.31,0,0,1,338.86,64.16ZM113.09,354.54a.66.66,0,0,1-.47-.8.67.67,0,0,1,.8-.48.66.66,0,0,1-.33,1.28Zm-92.77-54a.65.65,0,0,1,.32-1.27.65.65,0,1,1-.32,1.27Zm312.45-157a1.31,1.31,0,1,1,1.59-1A1.31,1.31,0,0,1,332.77,143.49Zm11.76,179.4a.66.66,0,1,1,.8-.47A.66.66,0,0,1,344.53,322.89Zm-3.64-107.83a.91.91,0,1,1,.45-1.77.91.91,0,1,1-.45,1.77ZM170.42,414.65a.93.93,0,0,1-.66-1.11.91.91,0,1,1,1.77.45A.92.92,0,0,1,170.42,414.65Zm91.72-44.25a1.69,1.69,0,1,1,2.05-1.22A1.69,1.69,0,0,1,262.14,370.4ZM240.35,40.76a1.31,1.31,0,1,1,1.6-.95A1.3,1.3,0,0,1,240.35,40.76ZM334,292a.66.66,0,0,1-.48-.8.67.67,0,0,1,.8-.48A.66.66,0,0,1,334,292ZM76.32,209.79a1.71,1.71,0,1,1,2.08-1.23A1.71,1.71,0,0,1,76.32,209.79Zm213.73,98.44a.91.91,0,0,1-.66-1.11.91.91,0,1,1,1.76.45A.9.9,0,0,1,290.05,308.23ZM81,293.08a1.48,1.48,0,1,1,1.8-1.07A1.48,1.48,0,0,1,81,293.08Zm216.61-66.85a1.32,1.32,0,1,1,1.59-.95A1.32,1.32,0,0,1,297.56,226.23Zm20.37-36.72a.91.91,0,0,1,.45-1.77.91.91,0,1,1-.45,1.77ZM232.5,369.13a.65.65,0,0,1-.48-.79.65.65,0,1,1,1.27.32A.65.65,0,0,1,232.5,369.13Zm56.31-243.36a.91.91,0,1,1,1.1-.65A.9.9,0,0,1,288.81,125.77ZM.69,99.78A.91.91,0,1,1,1.14,98a.91.91,0,1,1-.45,1.77ZM159,14.9a.66.66,0,0,1-.47-.8.65.65,0,0,1,1.27.32A.66.66,0,0,1,159,14.9Zm108.8,39.4a1.31,1.31,0,1,1,1.59-.94A1.31,1.31,0,0,1,267.81,54.3Zm-2.37,216.26a.65.65,0,0,1-.47-.79.65.65,0,1,1,.47.79ZM47.66,87.75A.65.65,0,1,1,48,86.48a.64.64,0,0,1,.47.79A.65.65,0,0,1,47.66,87.75ZM13.92,112.59a.91.91,0,0,1-.66-1.11.91.91,0,0,1,1.77.45A.91.91,0,0,1,13.92,112.59ZM218.68,1.8A.92.92,0,0,1,218,.69.91.91,0,0,1,219.13,0a.91.91,0,0,1,.66,1.11A.93.93,0,0,1,218.68,1.8ZM308.47,108a.66.66,0,0,1-.47-.8.65.65,0,0,1,1.27.32A.66.66,0,0,1,308.47,108ZM51.35,131.4a.65.65,0,1,1,.79-.47A.65.65,0,0,1,51.35,131.4Zm65.7-53.1a.91.91,0,1,1,1.1-.66A.91.91,0,0,1,117.05,78.3ZM110,276.14a.67.67,0,0,1-.48-.8.66.66,0,1,1,.48.8Zm174.33-8.92a.72.72,0,1,1,.87-.52A.72.72,0,0,1,284.32,267.22ZM108.81,116.58a.91.91,0,1,1,1.1-.66A.9.9,0,0,1,108.81,116.58Zm-78.87,145a.52.52,0,1,1,.64-.38A.53.53,0,0,1,29.94,261.62ZM203.78,41.52a.91.91,0,1,1,.45-1.77.91.91,0,1,1-.45,1.77ZM169,306.7a.91.91,0,1,1,1.11-.66A.91.91,0,0,1,169,306.7ZM53.25,180.1a.65.65,0,0,1,.32-1.27.65.65,0,1,1-.32,1.27ZM20.68,223.51a.66.66,0,1,1,.8-.47A.66.66,0,0,1,20.68,223.51Z"/></g></g></svg>