<svg xmlns="http://www.w3.org/2000/svg" viewBox="0 0 354.1 368.33"><defs><style>.cls-1{fill:#7a8196;}</style></defs><g id="Calque_2" data-name="Calque 2"><g id="Particules-Etoiles-ok"><path id="Particules-Feu" class="cls-1" d="M133.18,99.6a1.51,1.51,0,1,1-1.51,1.51A1.5,1.5,0,0,1,133.18,99.6ZM.91,169.73a.92.92,0,1,1-.91.91A.91.91,0,0,1,.91,169.73Zm173.41,149a.66.66,0,1,1,0,1.32.66.66,0,0,1,0-1.32Zm35-263.28a.91.91,0,1,1-.92.91A.91.91,0,0,1,209.29,55.5ZM280.9,204.14a.66.66,0,1,1-.66.66A.65.65,0,0,1,280.9,204.14ZM13.47,188.51A1.44,1.44,0,1,1,12,190,1.44,1.44,0,0,1,13.47,188.51ZM221.14,292.69a1.32,1.32,0,1,1-1.31,1.32A1.32,1.32,0,0,1,221.14,292.69Zm131.65-156.2a1.31,1.31,0,1,1-1.31,1.31A1.31,1.31,0,0,1,352.79,136.49ZM7.06,280.63a.66.66,0,1,1-.66.66A.66.66,0,0,1,7.06,280.63ZM229.91,113.81a.66.66,0,1,1-.65.65A.65.65,0,0,1,229.91,113.81Zm46.93-11.22a1.31,1.31,0,1,1-1.31,1.31A1.31,1.31,0,0,1,276.84,102.59Zm51.47,53.83a1.72,1.72,0,1,1-1.71,1.71A1.71,1.71,0,0,1,328.31,156.42ZM261.55,27.1a.91.91,0,1,1-.91.91A.92.92,0,0,1,261.55,27.1ZM150.72,73.53a.92.92,0,1,1-.91.91A.92.92,0,0,1,150.72,73.53ZM283.85,276.66a.91.91,0,1,1-.91.91A.91.91,0,0,1,283.85,276.66ZM28.55,225.37a.66.66,0,1,1-.66.66A.66.66,0,0,1,28.55,225.37ZM180.41,40a1.69,1.69,0,1,1-1.69,1.69A1.69,1.69,0,0,1,180.41,40ZM85.8,97a1.31,1.31,0,1,1-1.31,1.31A1.31,1.31,0,0,1,85.8,97ZM28.2,348.19a1.31,1.31,0,1,1-1.31,1.31A1.31,1.31,0,0,1,28.2,348.19ZM216.65,26.51a.66.66,0,1,1-.66.66A.66.66,0,0,1,216.65,26.51Zm103.2,29.55a.66.66,0,1,1-.65.66A.65.65,0,0,1,319.85,56.06ZM55.6,285.08a1.31,1.31,0,1,1-1.31,1.31A1.31,1.31,0,0,1,55.6,285.08ZM29.41,110.64a.66.66,0,0,1,.66.65.66.66,0,0,1-1.32,0A.66.66,0,0,1,29.41,110.64Zm-.2,79.45a.92.92,0,1,1-.91.92A.92.92,0,0,1,29.21,190.09ZM136.17,0a.91.91,0,1,1-.91.91A.91.91,0,0,1,136.17,0ZM17.09,39.44a1.69,1.69,0,1,1-1.69,1.69A1.68,1.68,0,0,1,17.09,39.44ZM164.15,359.35a1.31,1.31,0,1,1-1.31,1.31A1.31,1.31,0,0,1,164.15,359.35ZM17.88,141.48a.67.67,0,0,1,.66.66.66.66,0,0,1-.66.65.65.65,0,0,1-.65-.65A.66.66,0,0,1,17.88,141.48ZM114.5,272.71a1.71,1.71,0,1,1-1.71,1.71A1.7,1.7,0,0,1,114.5,272.71Zm-58-157.82a.92.92,0,1,1-.91.92A.92.92,0,0,1,56.51,114.89ZM266.24,80.57a1.48,1.48,0,1,1-1.48,1.48A1.47,1.47,0,0,1,266.24,80.57ZM69.39,196.23a1.31,1.31,0,1,1-1.31,1.31A1.31,1.31,0,0,1,69.39,196.23Zm-10.73,40.6a.91.91,0,1,1,0,1.82.91.91,0,1,1,0-1.82ZM97.32,41.71a.66.66,0,1,1-.65.66A.66.66,0,0,1,97.32,41.71Zm44.29,246.51a.91.91,0,1,1-.91.91A.91.91,0,0,1,141.61,288.22Zm204.7-29a.92.92,0,1,1-.91.91A.92.92,0,0,1,346.31,259.26ZM255.63,367a.65.65,0,0,1,.66.65.66.66,0,1,1-1.31,0A.65.65,0,0,1,255.63,367ZM126.05,350.35a1.31,1.31,0,1,1-1.31,1.31A1.3,1.3,0,0,1,126.05,350.35Zm-36.43-205A.66.66,0,1,1,89,146,.66.66,0,0,1,89.62,145.36ZM338.9,287.47a.66.66,0,1,1-.66.66A.66.66,0,0,1,338.9,287.47Zm-8.56-37.37a.91.91,0,1,1-.92.91A.91.91,0,0,1,330.34,250.1ZM195.58,348.79a.92.92,0,1,1-.91.91A.92.92,0,0,1,195.58,348.79ZM87.88,313.53a.67.67,0,0,1,.66.66.66.66,0,0,1-1.32,0A.67.67,0,0,1,87.88,313.53Zm243.48-85.91a.66.66,0,1,1-.66.66A.65.65,0,0,1,331.36,227.62Zm-50.63,67.62a.92.92,0,1,1-.91.91A.91.91,0,0,1,280.73,295.24ZM265.92,129.92a.65.65,0,0,1,.66.65.66.66,0,1,1-1.31,0A.65.65,0,0,1,265.92,129.92ZM65.51,158.74a.73.73,0,1,1-.72.72A.72.72,0,0,1,65.51,158.74Zm190.26,92.44a.91.91,0,1,1-.91.91A.92.92,0,0,1,255.77,251.18Zm64.32-155a.53.53,0,0,1,.53.53.52.52,0,0,1-.53.52.52.52,0,0,1-.52-.52A.52.52,0,0,1,320.09,96.13ZM224.93,351.27a.92.92,0,1,1-.91.91A.91.91,0,0,1,224.93,351.27Zm-7-263.8a.91.91,0,1,1,0,1.82.91.91,0,1,1,0-1.82Zm77.25,75.93a.66.66,0,1,1-.65.66A.66.66,0,0,1,295.23,163.4Zm43.2-32.6a.66.66,0,1,1-.65.66A.65.65,0,0,1,338.43,130.8Z"/></g></g></svg>