<svg xmlns="http://www.w3.org/2000/svg" viewBox="0 0 335.51 316.82"><defs><style>.cls-1{fill:#7a8196;}</style></defs><g id="Calque_2" data-name="Calque 2"><g id="Particules-Etoiles-ok"><path id="Particules-Eau" class="cls-1" d="M203.51,99.48a1.51,1.51,0,1,1-2.44,1.77,1.51,1.51,0,0,1,2.44-1.77ZM86.88,23.07a.91.91,0,1,1-1.48,1.07.91.91,0,0,1,.21-1.27A.9.9,0,0,1,86.88,23.07ZM118,196.61a.67.67,0,0,1-.15.92.65.65,0,0,1-.91-.15.64.64,0,0,1,.14-.91A.66.66,0,0,1,118,196.61Zm152.93-62.54a.91.91,0,1,1-1.47,1.07.91.91,0,1,1,1.47-1.07ZM200,247.26a.64.64,0,0,1-.14.91.66.66,0,1,1-.77-1.06A.65.65,0,0,1,200,247.26ZM84.05,49.23a1.45,1.45,0,1,1-2-.32A1.46,1.46,0,0,1,84.05,49.23ZM124.93,229.5a1.31,1.31,0,1,1-2.12,1.54,1.31,1.31,0,0,1,2.12-1.54ZM24.59,105.13a.66.66,0,0,1-1.06.77.66.66,0,0,1,.14-.92A.66.66,0,0,1,24.59,105.13ZM281.38,166a.66.66,0,0,1-.14.92.66.66,0,1,1,.14-.92Zm-8.91,50.44a1.31,1.31,0,1,1-1.83-.29A1.31,1.31,0,0,1,272.47,216.41ZM246.59,61.27a1.72,1.72,0,0,1-.38,2.39,1.71,1.71,0,0,1-2-2.77A1.72,1.72,0,0,1,246.59,61.27Zm78,98.43a.91.91,0,1,1-1.27-.2A.9.9,0,0,1,324.59,159.7ZM234.92,98.38a.91.91,0,1,1-1.28-.2A.91.91,0,0,1,234.92,98.38Zm-135.63,217a.91.91,0,0,1-.2,1.28.92.92,0,0,1-1.28-.21.91.91,0,0,1,1.48-1.07ZM65.59,90.42a.66.66,0,1,1-.92-.15A.67.67,0,0,1,65.59,90.42ZM278.31,74.89a1.69,1.69,0,1,1-2.36-.38A1.69,1.69,0,0,1,278.31,74.89ZM177.82,59.6a1.31,1.31,0,1,1-1.83-.3A1.3,1.3,0,0,1,177.82,59.6ZM2.37,144.91a1.3,1.3,0,0,1-.29,1.83,1.31,1.31,0,1,1,.29-1.83ZM298.7,123a.66.66,0,0,1-.15.92.66.66,0,0,1-.77-1.06A.65.65,0,0,1,298.7,123ZM335.39,223.9a.66.66,0,0,1-1.06.77.66.66,0,1,1,1.06-.77ZM49.5,147a1.31,1.31,0,1,1-2.12,1.54A1.31,1.31,0,1,1,49.5,147ZM113.64.27a.67.67,0,0,1-.15.92.67.67,0,0,1-.92-.15.66.66,0,0,1,1.07-.77Zm-2.75,69.62A.91.91,0,0,1,109.41,71a.9.9,0,0,1,.2-1.27A.91.91,0,0,1,110.89,69.89ZM325.17,41.83a.92.92,0,0,1-1.48,1.08.91.91,0,0,1,.2-1.28A.93.93,0,0,1,325.17,41.83Zm-131-26.25a1.69,1.69,0,1,1-2.37-.37A1.69,1.69,0,0,1,194.13,15.58ZM75.37,188.65a1.31,1.31,0,0,1-2.12,1.54,1.31,1.31,0,1,1,2.12-1.54ZM101.9,30.76a.66.66,0,1,1-.91-.14A.64.64,0,0,1,101.9,30.76ZM112.79,153.2a1.71,1.71,0,0,1-2.77,2,1.71,1.71,0,1,1,2.77-2ZM146.11,46.41a.91.91,0,0,1-.2,1.28.91.91,0,1,1-1.07-1.48A.92.92,0,0,1,146.11,46.41ZM302.64,198.13a1.47,1.47,0,1,1-2.06-.33A1.47,1.47,0,0,1,302.64,198.13ZM129.51,106a1.31,1.31,0,1,1-1.83-.29A1.31,1.31,0,0,1,129.51,106ZM90.35,121.17a.91.91,0,1,1-1.27-.2A.9.9,0,0,1,90.35,121.17Zm139-84.7a.66.66,0,0,1-.15.92.65.65,0,0,1-.91-.15.66.66,0,0,1,1.06-.77ZM93.9,180.07a.92.92,0,1,1-1.27-.2A.92.92,0,0,1,93.9,180.07ZM254.77,56.14a.91.91,0,0,1-1.47,1.07.91.91,0,1,1,1.47-1.07ZM83.91,246.25a.66.66,0,0,1-1.06.77.66.66,0,0,1,.14-.92A.66.66,0,0,1,83.91,246.25Zm-39.47-38.4a1.31,1.31,0,1,1-2.12,1.54,1.31,1.31,0,1,1,2.12-1.54ZM155.15,99.74a.65.65,0,0,1-.15.91.66.66,0,1,1,.15-.91Zm72.44-33a.66.66,0,1,1-1.07.77.66.66,0,0,1,1.07-.77ZM282.4,276a.91.91,0,0,1-.2,1.28.92.92,0,0,1-1.28-.21.91.91,0,0,1,.21-1.27A.9.9,0,0,1,282.4,276ZM84.06,203.12a.91.91,0,1,1-1.28-.21A.92.92,0,0,1,84.06,203.12ZM64.12,155.63a.66.66,0,1,1-.92-.15A.67.67,0,0,1,64.12,155.63Zm237.07,108a.66.66,0,1,1-1.06.77.66.66,0,1,1,1.06-.77Zm-169.94,5a.91.91,0,1,1-1.27-.2A.9.9,0,0,1,131.25,268.61Zm112.69-45a.66.66,0,1,1-.92-.15A.66.66,0,0,1,243.94,223.62ZM135.34,70.48a.72.72,0,1,1-1-.16A.73.73,0,0,1,135.34,70.48ZM97.8,241.24a.91.91,0,1,1-1.27-.2A.9.9,0,0,1,97.8,241.24Zm205.3,6.39a.52.52,0,1,1-.85.61.52.52,0,1,1,.85-.61ZM59,242.23a.91.91,0,0,1-1.48,1.07.9.9,0,0,1,.2-1.27A.91.91,0,0,1,59,242.23Zm191.1-82.34a.91.91,0,1,1-1.47,1.07.91.91,0,1,1,1.47-1.07Zm-8.75,75.05a.66.66,0,0,1-.14.92.66.66,0,0,1-.77-1.07A.65.65,0,0,1,241.39,234.94Zm51.76,15.82a.66.66,0,0,1-.14.92.66.66,0,0,1-.77-1.07A.65.65,0,0,1,293.15,250.76Z"/></g></g></svg>