<svg xmlns="http://www.w3.org/2000/svg" viewBox="0 0 345.47 292.26"><g id="Calque_2" data-name="Calque 2"><g id="Particules-Etoiles-ok"><path fill="#EAE7E1" d="M89.58,43.84a1.31,1.31,0,1,1,.65-2.54,1.31,1.31,0,0,1-.65,2.54Zm-10,32.09a1.51,1.51,0,1,1,1.84-1.09A1.52,1.52,0,0,1,79.6,75.93Zm219.52,60.78a.91.91,0,0,1,.45-1.77.91.91,0,1,1-.45,1.77Zm-79.51-33.14a.66.66,0,1,1,.33-1.27.66.66,0,0,1-.33,1.27ZM122.5,266a.91.91,0,1,1,1.11-.66A.92.92,0,0,1,122.5,266Zm-26-98a.66.66,0,1,1,.8-.48A.67.67,0,0,1,96.5,168Zm217.65,23.84a1.44,1.44,0,1,1,1.75-1A1.44,1.44,0,0,1,314.15,191.83ZM169,88.29a1.31,1.31,0,1,1,.65-2.54,1.31,1.31,0,0,1-.65,2.54ZM10.18,215.89a1.31,1.31,0,1,1,1.6-.95A1.32,1.32,0,0,1,10.18,215.89Zm334.47-51.11a.66.66,0,0,1-.47-.8.66.66,0,0,1,1.27.33A.66.66,0,0,1,344.65,164.78Zm-68.54,70.08a.66.66,0,0,1-.48-.8.67.67,0,0,1,.8-.48.66.66,0,0,1-.32,1.28Zm-218,5.25a1.31,1.31,0,1,1,.65-2.54,1.31,1.31,0,0,1-.65,2.54ZM29.35,144.28a1.71,1.71,0,1,1,2.08-1.23A1.72,1.72,0,0,1,29.35,144.28ZM64.86,280.63a.91.91,0,0,1-.66-1.11A.91.91,0,1,1,66,280,.9.9,0,0,1,64.86,280.63ZM179,284.2a.91.91,0,0,1,.45-1.77.91.91,0,1,1-.45,1.77ZM123.37,76.09a.91.91,0,1,1,1.11-.66A.91.91,0,0,1,123.37,76.09Zm188.84,95.54a.65.65,0,0,1-.48-.79.66.66,0,0,1,.8-.48.67.67,0,0,1,.48.8A.66.66,0,0,1,312.21,171.63ZM1.28,114.3a1.69,1.69,0,1,1,2.05-1.23A1.69,1.69,0,0,1,1.28,114.3Zm290.05,106a1.31,1.31,0,1,1,1.59-.95A1.31,1.31,0,0,1,291.33,220.26Zm14.83-133.5a1.32,1.32,0,0,1,.65-2.55,1.32,1.32,0,1,1-.65,2.55ZM108.24,292.24a.65.65,0,1,1,.32-1.27.65.65,0,0,1-.32,1.27ZM12.73,279a.66.66,0,0,1-.47-.8.65.65,0,0,1,1.27.32A.66.66,0,0,1,12.73,279Zm257-128.62a1.31,1.31,0,1,1,1.59-1A1.31,1.31,0,0,1,269.73,150.4Zm46.81,128.25a.65.65,0,0,1,.32-1.27.65.65,0,1,1-.32,1.27Zm-20.09-89.23a.93.93,0,0,1-.66-1.11.91.91,0,1,1,1.77.45A.92.92,0,0,1,296.45,189.42ZM122.61,1.8A.91.91,0,0,1,122,.69a.91.91,0,1,1,1.76.45A.92.92,0,0,1,122.61,1.8ZM266.29,35a1.69,1.69,0,1,1,2-1.23A1.69,1.69,0,0,1,266.29,35ZM217,64a1.31,1.31,0,0,1,.65-2.54A1.31,1.31,0,1,1,217,64ZM306,247.72a.66.66,0,1,1,.33-1.27.65.65,0,0,1,.47.79A.66.66,0,0,1,306,247.72ZM78.33,211.21A1.71,1.71,0,1,1,80.41,210,1.7,1.7,0,0,1,78.33,211.21ZM262.05,264a.93.93,0,0,1-.66-1.11.91.91,0,1,1,1.77.45A.92.92,0,0,1,262.05,264ZM75.56,248.5a1.47,1.47,0,1,1,1.79-1.07A1.47,1.47,0,0,1,75.56,248.5Zm164.17-46a1.32,1.32,0,1,1,1.6-.95A1.31,1.31,0,0,1,239.73,202.5Zm23.64-14.73a.91.91,0,1,1,1.11-.66A.91.91,0,0,1,263.37,187.77Zm-193.2,8.37a.65.65,0,0,1-.48-.79.65.65,0,1,1,1.27.32A.65.65,0,0,1,70.17,196.14ZM240.39,152a.91.91,0,1,1,.45-1.77.91.91,0,0,1-.45,1.77Zm-198-35.84a.91.91,0,1,1,1.11-.66A.91.91,0,0,1,42.35,116.19Zm106.56-79a.66.66,0,1,1,.33-1.27.65.65,0,0,1,.47.79A.66.66,0,0,1,148.91,37.15Zm103.71,53.5a1.31,1.31,0,1,1,1.59-.94A1.3,1.3,0,0,1,252.62,90.65ZM237.45,226.33a.66.66,0,1,1,.8-.48A.67.67,0,0,1,237.45,226.33ZM63,117.51a.66.66,0,0,1-.48-.8.67.67,0,0,1,.8-.48.66.66,0,0,1,.47.8A.65.65,0,0,1,63,117.51ZM57.59,87.69a.91.91,0,1,1,1.1-.66A.91.91,0,0,1,57.59,87.69Zm151-63.64a.91.91,0,1,1,1.11-.66A.92.92,0,0,1,208.58,24.05Zm67.2,106.52a.65.65,0,1,1,.79-.47A.64.64,0,0,1,275.78,130.57ZM67.84,141.47a.65.65,0,1,1,.32-1.27.65.65,0,0,1,.47.8A.64.64,0,0,1,67.84,141.47Zm17.59-22.06a.91.91,0,1,1,.45-1.77.91.91,0,0,1-.45,1.77Zm19.16,112.15a.66.66,0,1,1,.8-.47A.65.65,0,0,1,104.59,231.56ZM256.33,223a.72.72,0,1,1,.35-1.4.72.72,0,0,1-.35,1.4ZM101.92,131.24a.91.91,0,0,1,.45-1.77.91.91,0,1,1-.45,1.77ZM22.35,240.12a.53.53,0,1,1,.64-.38A.53.53,0,0,1,22.35,240.12ZM193.69,63.77a.91.91,0,1,1,.45-1.77.91.91,0,1,1-.45,1.77Zm33,211.89a.91.91,0,1,1,1.11-.66A.92.92,0,0,1,226.67,275.66ZM48.25,171.86a.65.65,0,1,1,.32-1.27.64.64,0,0,1,.47.79A.65.65,0,0,1,48.25,171.86Zm-39,56.35a.65.65,0,1,1,.79-.47A.65.65,0,0,1,9.21,228.21Z"/></g></g></svg>