<svg xmlns="http://www.w3.org/2000/svg" viewBox="0 0 342.76 278.63"><path fill="#EAE7E1" id="Particules-Terre" d="M242,213.3a1.51,1.51,0,1,1-2.13-2.14A1.51,1.51,0,0,1,242,213.3ZM291.79,54.22a.92.92,0,0,1-1.29,0,.91.91,0,1,1,1.29,0ZM94.24,110.68a.65.65,0,1,1,0-.93A.65.65,0,0,1,94.24,110.68ZM227.6,250a.91.91,0,1,1-1.29-1.29.92.92,0,0,1,1.29,0A.91.91,0,0,1,227.6,250ZM1.12,117.5a.67.67,0,0,1-.93,0,.67.67,0,0,1,0-.93.65.65,0,0,1,.93,0A.65.65,0,0,1,1.12,117.5ZM260.8,69.16a1.44,1.44,0,1,1,0-2A1.43,1.43,0,0,1,260.8,69.16ZM98,142.84A1.31,1.31,0,1,1,98,141,1.31,1.31,0,0,1,98,142.84Zm-50,93.86a1.31,1.31,0,1,1,0-1.86A1.32,1.32,0,0,1,47.91,236.7ZM213.36,16.93a.66.66,0,0,1-.93-.93.66.66,0,0,1,.93.93ZM179.84,259.87a.65.65,0,0,1-.93,0,.66.66,0,1,1,.93-.93A.65.65,0,0,1,179.84,259.87ZM199.57,5.48a1.31,1.31,0,1,1-1.86-1.85,1.31,1.31,0,0,1,1.86,1.85ZM42.35,208.29a1.71,1.71,0,1,1,0-2.42A1.71,1.71,0,0,1,42.35,208.29ZM252.79,29.94a.91.91,0,0,1-1.29,0,.92.92,0,0,1,0-1.29.91.91,0,0,1,1.29,1.29Zm-4,201.11a.91.91,0,1,1,0-1.29A.91.91,0,0,1,248.78,231.05ZM36.86,92.74a.91.91,0,0,1-1.29,0,.91.91,0,0,1,1.29-1.29A.91.91,0,0,1,36.86,92.74Zm74.05,15.47a.66.66,0,1,1-.93-.93.66.66,0,0,1,.93.93Zm193.53,152.1a1.69,1.69,0,1,1,0-2.39A1.69,1.69,0,0,1,304.44,260.31Zm-15.23-62.66a1.29,1.29,0,0,1-1.85,0,1.31,1.31,0,1,1,1.85-1.85A1.29,1.29,0,0,1,289.21,197.65ZM110.85,2.24a1.31,1.31,0,1,1,0-1.86A1.31,1.31,0,0,1,110.85,2.24ZM264.1,278.44a.65.65,0,0,1-.93,0,.66.66,0,0,1,.93-.93A.65.65,0,0,1,264.1,278.44Zm-73-227.79a.67.67,0,0,1-.93,0,.66.66,0,0,1,.93-.93A.67.67,0,0,1,191.08,50.65Zm-15.21-2.56A1.31,1.31,0,1,1,174,46.24a1.29,1.29,0,0,1,1.85,0A1.31,1.31,0,0,1,175.87,48.09Zm147.76,70.36a.65.65,0,1,1,0-.92A.64.64,0,0,1,323.63,118.45ZM226,76.4a.91.91,0,0,1-1.29,0,.92.92,0,0,1,0-1.29A.91.91,0,1,1,226,76.4ZM342.49,210.94a.91.91,0,0,1-1.29,0,.91.91,0,0,1,1.29-1.29A.91.91,0,0,1,342.49,210.94ZM312.1,172.48a1.69,1.69,0,1,1,0-2.39A1.7,1.7,0,0,1,312.1,172.48ZM76.18,55.52a1.31,1.31,0,1,1,0-1.85A1.31,1.31,0,0,1,76.18,55.52Zm215.5,56.12a.66.66,0,0,1-.93-.93.66.66,0,1,1,.93.93ZM144.47,89.28a1.71,1.71,0,1,1,0-2.42A1.71,1.71,0,0,1,144.47,89.28Zm138.67,68.47a.91.91,0,1,1,0-1.29A.91.91,0,0,1,283.14,157.75Zm-8.32-46.85a1.47,1.47,0,1,1,0-2.08A1.47,1.47,0,0,1,274.82,110.9Zm-58.27-1.6a1.31,1.31,0,1,1,0-1.85A1.31,1.31,0,0,1,216.55,109.3ZM192.26,83A.92.92,0,0,1,191,83a.91.91,0,1,1,1.29,0ZM297,210.5a.65.65,0,1,1,0-.92A.64.64,0,0,1,297,210.5ZM113.44,84a.92.92,0,0,1-1.29,0,.92.92,0,1,1,1.29,0ZM1.93,160.54a.92.92,0,0,1-1.29,0,.92.92,0,0,1,0-1.29.91.91,0,1,1,1.29,1.29Zm56.55-49.92a.67.67,0,0,1-.93,0,.66.66,0,0,1,.93-.93A.67.67,0,0,1,58.48,110.62ZM91.31,44.48a1.31,1.31,0,1,1,0-1.86A1.31,1.31,0,0,1,91.31,44.48ZM238.18,159.59a.64.64,0,0,1-.92,0,.65.65,0,1,1,.92,0ZM19.72,167.84a.65.65,0,0,1-.93,0,.66.66,0,0,1,.93-.93A.65.65,0,0,1,19.72,167.84Zm22,15a.91.91,0,1,1,0-1.29A.91.91,0,0,1,41.73,182.86ZM46.34,66.93a.91.91,0,0,1-1.29,0,.91.91,0,1,1,1.29-1.29A.91.91,0,0,1,46.34,66.93Zm86.59-16.16a.65.65,0,0,1-.93,0,.64.64,0,0,1,0-.92.65.65,0,0,1,.93.92Zm-20,129.61a.66.66,0,0,1-.93-.93.66.66,0,0,1,.93.93ZM45.1,150.53a.91.91,0,0,1-1.29,0,.89.89,0,0,1,0-1.28.91.91,0,1,1,1.29,1.29Zm85.63,89.94a.67.67,0,0,1-.93,0,.66.66,0,1,1,.93-.93A.67.67,0,0,1,130.73,240.47ZM245,141.67a.72.72,0,1,1,0-1A.72.72,0,0,1,245,141.67ZM85.83,161.84a.91.91,0,0,1-1.29,0,.91.91,0,1,1,1.29-1.29A.91.91,0,0,1,85.83,161.84ZM162.59,22.47a.53.53,0,0,1-.74,0,.52.52,0,0,1,.74-.74A.53.53,0,0,1,162.59,22.47ZM40.44,33a.91.91,0,1,1,0-1.29A.92.92,0,0,1,40.44,33Zm149.5,213.6a.91.91,0,0,1-1.29,0,.91.91,0,0,1,1.29-1.29A.91.91,0,0,1,189.94,246.6ZM62.7,148a.65.65,0,0,1-.92-.93.64.64,0,0,1,.92,0A.65.65,0,0,1,62.7,148Zm-.62,82.55a.65.65,0,1,1,0-.92A.64.64,0,0,1,62.08,230.57Z"/></svg>