<svg xmlns="http://www.w3.org/2000/svg" viewBox="0 0 363.16 307.68"><defs><style>.cls-1{fill:#7a8196;}</style></defs><g id="Calque_2" data-name="Calque 2"><g id="Particules-Etoiles-ok"><path id="Particules-Feu" class="cls-1" d="M156.15,103.2a1.51,1.51,0,1,1-1.5,1.5A1.5,1.5,0,0,1,156.15,103.2ZM.91,174.79a.92.92,0,1,1-.91.92A.91.91,0,0,1,.91,174.79Zm132,80a.66.66,0,1,1-.65.66A.66.66,0,0,1,132.93,254.78ZM209.29,60.56a.91.91,0,1,1-.92.91A.91.91,0,0,1,209.29,60.56Zm55.63,150.32a.66.66,0,1,1-.66.66A.66.66,0,0,1,264.92,210.88ZM73.68,173a1.45,1.45,0,1,1-1.44,1.44A1.45,1.45,0,0,1,73.68,173ZM239.16,220.8a1.32,1.32,0,1,1-1.31,1.31A1.32,1.32,0,0,1,239.16,220.8Zm122.69-82.13a1.31,1.31,0,1,1-1.31,1.31A1.31,1.31,0,0,1,361.85,138.67ZM273.28,14.14a.66.66,0,1,1-.66.66A.66.66,0,0,1,273.28,14.14ZM229.91,118.87a.66.66,0,1,1,0,1.31.66.66,0,0,1,0-1.31Zm46.93-11.22a1.31,1.31,0,1,1-1.31,1.31A1.31,1.31,0,0,1,276.84,107.65Zm60.53,50.95a1.72,1.72,0,1,1-1.71,1.71A1.71,1.71,0,0,1,337.37,158.6ZM261.55,32.16a.91.91,0,1,1-.91.91A.92.92,0,0,1,261.55,32.16ZM169.07,73.53a.92.92,0,1,1-.92.91A.91.91,0,0,1,169.07,73.53Zm112.3,149.2a.92.92,0,1,1-.91.92A.92.92,0,0,1,281.37,222.73ZM31.9,225.47a.66.66,0,1,1-.66.66A.67.67,0,0,1,31.9,225.47ZM180.41,45.05a1.69,1.69,0,1,1-1.69,1.69A1.69,1.69,0,0,1,180.41,45.05Zm-71.63,55.52a1.31,1.31,0,1,1-1.31,1.31A1.31,1.31,0,0,1,108.78,100.57ZM294.42,81.7A1.31,1.31,0,1,1,293.11,83,1.31,1.31,0,0,1,294.42,81.7ZM216.65,31.57a.66.66,0,1,1-.66.66A.67.67,0,0,1,216.65,31.57Zm103.2,29.55a.66.66,0,0,1,.66.66.66.66,0,1,1-.66-.66Zm2-42.53a1.31,1.31,0,1,1-1.31,1.31A1.31,1.31,0,0,1,321.82,18.59ZM29.41,115.7a.66.66,0,1,1-.66.65A.66.66,0,0,1,29.41,115.7Zm60,58.92a.91.91,0,1,1-.91.91A.91.91,0,0,1,89.43,174.62ZM154.51,0a.91.91,0,0,1,.91.91.91.91,0,1,1-1.82,0A.91.91,0,0,1,154.51,0ZM35.44,39.44a1.69,1.69,0,1,1-1.7,1.69A1.69,1.69,0,0,1,35.44,39.44ZM147,305.06a1.31,1.31,0,1,1-1.31,1.31A1.31,1.31,0,0,1,147,305.06ZM17.88,146.54a.66.66,0,0,1,0,1.32.66.66,0,0,1,0-1.32Zm85,69.27a1.71,1.71,0,1,1-1.71,1.71A1.71,1.71,0,0,1,102.87,215.81ZM79.49,118.49a.92.92,0,1,1-.91.91A.91.91,0,0,1,79.49,118.49ZM266.24,85.63a1.48,1.48,0,1,1-1.48,1.48A1.47,1.47,0,0,1,266.24,85.63ZM105.82,189.14a1.32,1.32,0,1,1-1.31,1.32A1.32,1.32,0,0,1,105.82,189.14ZM62,236.93a.91.91,0,1,1-.92.91A.91.91,0,0,1,62,236.93ZM115.67,41.71a.66.66,0,1,1-.66.66A.66.66,0,0,1,115.67,41.71Zm26.74,181.62a.91.91,0,1,1-.91.91A.91.91,0,0,1,142.41,223.33Zm195.82,17.51a.92.92,0,1,1-.91.92A.91.91,0,0,1,338.23,240.84Zm-69.52,36.1a.66.66,0,1,1-.66.66A.65.65,0,0,1,268.71,276.94Zm-122.57,0a1.32,1.32,0,1,1-1.32,1.31A1.31,1.31,0,0,1,146.14,277ZM112.6,149a.66.66,0,1,1-.66.65A.65.65,0,0,1,112.6,149ZM330.82,269.05a.66.66,0,0,1,0,1.32.66.66,0,0,1,0-1.32Zm-8.57-37.37a.91.91,0,1,1-.91.91A.92.92,0,0,1,322.25,231.68Zm-113.59,27a.91.91,0,1,1-.92.91A.91.91,0,0,1,208.66,258.72Zm-153.86,4a.66.66,0,1,1-.66.66A.66.66,0,0,1,54.8,262.76ZM323.28,209.2a.66.66,0,1,1-.66.66A.66.66,0,0,1,323.28,209.2Zm-45,32.12a.91.91,0,1,1-.91.91A.91.91,0,0,1,278.24,241.32ZM275,132.1a.66.66,0,1,1-.65.65A.65.65,0,0,1,275,132.1ZM88.49,162.34a.72.72,0,1,1-.72.72A.72.72,0,0,1,88.49,162.34Zm204,35.77a.92.92,0,1,1-.91.92A.91.91,0,0,1,292.49,198.11Zm27.6-96.92a.53.53,0,0,1,.53.53.52.52,0,0,1-.53.52.52.52,0,0,1-.52-.52A.52.52,0,0,1,320.09,101.19ZM238,261.2a.91.91,0,1,1-.91.91A.91.91,0,0,1,238,261.2ZM218,92.53a.91.91,0,1,1-.91.91A.91.91,0,0,1,218,92.53Zm86.31,73.06a.65.65,0,0,1,.66.65.66.66,0,1,1-1.31,0A.65.65,0,0,1,304.29,165.59ZM347.5,133a.66.66,0,1,1-.66.66A.65.65,0,0,1,347.5,133Z"/></g></g></svg>