<svg xmlns="http://www.w3.org/2000/svg" viewBox="0 0 390.18 382.02"><defs><style>.cls-1{fill:#7a8196;}</style></defs><g id="Calque_2" data-name="Calque 2"><g id="Particules-Etoiles-ok"><path id="Particules-Eau" class="cls-1" d="M245.18,99.48a1.51,1.51,0,1,1-2.44,1.77,1.51,1.51,0,0,1,2.44-1.77ZM86.88,21.66a.92.92,0,0,1-.2,1.28.91.91,0,1,1-1.07-1.48A.92.92,0,0,1,86.88,21.66Zm5.06,239.85a.66.66,0,1,1-.91-.15A.65.65,0,0,1,91.94,261.51ZM325.58,135.19a.91.91,0,0,1-1.48,1.07.91.91,0,1,1,1.48-1.07ZM247.32,280.44a.66.66,0,1,1-1.06.77.66.66,0,0,1,1.06-.77ZM84.05,47.83a1.44,1.44,0,1,1-2-.33A1.45,1.45,0,0,1,84.05,47.83Zm34.32,241.58a1.31,1.31,0,1,1-1.83-.29A1.32,1.32,0,0,1,118.37,289.41ZM344.3,298.9a1.31,1.31,0,1,1-1.83-.29A1.3,1.3,0,0,1,344.3,298.9ZM24.59,103.72a.66.66,0,1,1-1.06.77.66.66,0,1,1,1.06-.77Zm265.9,82.41a.64.64,0,0,1-.14.91.66.66,0,1,1-.77-1.06A.65.65,0,0,1,290.49,186.13Zm36.65,31.39a1.31,1.31,0,1,1-1.84-.29A1.33,1.33,0,0,1,327.14,217.52Zm-16.63,114a1.72,1.72,0,0,1-.38,2.39,1.71,1.71,0,0,1-2-2.77A1.72,1.72,0,0,1,310.51,331.54Zm68.75-170.73a.92.92,0,0,1-.2,1.28.91.91,0,1,1-1.07-1.48A.92.92,0,0,1,379.26,160.81ZM276.59,98.38a.91.91,0,1,1-1.28-.2A.92.92,0,0,1,276.59,98.38ZM141.52,380.57a.9.9,0,0,1-.2,1.27.91.91,0,1,1-1.07-1.47A.9.9,0,0,1,141.52,380.57ZM65.59,89a.66.66,0,1,1-1.07.77A.66.66,0,0,1,65.59,89ZM320,74.89a1.69,1.69,0,1,1-2.36-.38A1.69,1.69,0,0,1,320,74.89ZM219.49,59.6a1.31,1.31,0,1,1-2.12,1.53,1.31,1.31,0,1,1,2.12-1.53ZM2.37,143.5a1.31,1.31,0,1,1-1.83-.29A1.31,1.31,0,0,1,2.37,143.5Zm351-19.37a.64.64,0,0,1-.14.91.66.66,0,1,1-.77-1.06A.65.65,0,0,1,353.36,124.13ZM390.05,225a.66.66,0,1,1-1.06.77.66.66,0,0,1,1.06-.77ZM49.5,145.62a1.32,1.32,0,0,1-.29,1.83,1.31,1.31,0,1,1-1.54-2.12A1.32,1.32,0,0,1,49.5,145.62ZM155.31.27a.66.66,0,1,1-1.06.77.64.64,0,0,1,.14-.91A.65.65,0,0,1,155.31.27ZM110.89,68.48a.92.92,0,0,1-.21,1.28.91.91,0,0,1-1.27-.21.9.9,0,0,1,.2-1.27A.93.93,0,0,1,110.89,68.48Zm256-26.65a.92.92,0,1,1-1.28-.2A.92.92,0,0,1,366.84,41.83Zm-131-26.25a1.69,1.69,0,1,1-2.36-.37A1.68,1.68,0,0,1,235.8,15.58ZM53.13,277.09a1.31,1.31,0,1,1-1.83-.29A1.31,1.31,0,0,1,53.13,277.09ZM143.58,30.76a.66.66,0,0,1-1.07.77.66.66,0,0,1,1.07-.77ZM94.1,186a1.7,1.7,0,0,1-.38,2.39A1.71,1.71,0,1,1,94.1,186ZM187.78,46.41a.91.91,0,1,1-1.27-.2A.91.91,0,0,1,187.78,46.41Zm151,149.6a1.48,1.48,0,1,1-2.06-.33A1.47,1.47,0,0,1,338.73,196ZM129.51,104.6a1.31,1.31,0,1,1-1.83-.29A1.31,1.31,0,0,1,129.51,104.6ZM90.35,119.76a.91.91,0,1,1-1.47,1.07.91.91,0,0,1,1.47-1.07ZM271,36.47a.66.66,0,0,1-.14.92.66.66,0,0,1-.92-.15.66.66,0,0,1,1.06-.77ZM75.21,212.9a.91.91,0,0,1-.2,1.28.92.92,0,0,1-1.28-.21.91.91,0,0,1,1.48-1.07ZM241.12,365.76a.91.91,0,1,1-1.27-.2A.9.9,0,0,1,241.12,365.76ZM100.66,355.65a.65.65,0,0,1-.15.91.66.66,0,1,1-.77-1.06A.66.66,0,0,1,100.66,355.65ZM19.56,263a1.31,1.31,0,1,1-1.83-.3A1.32,1.32,0,0,1,19.56,263Zm163-171.89a.66.66,0,0,1-1.07.77.66.66,0,0,1,1.07-.77Zm31.37,285.23a.66.66,0,0,1-1.07.77.66.66,0,0,1,1.07-.77Zm25.22-28.88a.91.91,0,0,1-.2,1.27.91.91,0,1,1,.2-1.27Zm-159-51.11a.91.91,0,1,1-1.27-.2A.91.91,0,0,1,80.14,296.34ZM45.43,188.46a.65.65,0,0,1-.15.91.64.64,0,0,1-.91-.14.66.66,0,1,1,1.06-.77ZM258,335.07a.66.66,0,0,1-.15.92.66.66,0,0,1-.77-1.06A.66.66,0,0,1,258,335.07Zm-84.47-1.26a.91.91,0,1,1-1.47,1.07.91.91,0,1,1,1.47-1.07ZM298.6,224.73a.66.66,0,1,1-.91-.14A.65.65,0,0,1,298.6,224.73Zm-141-145.28a.72.72,0,1,1-1-.16A.73.73,0,0,1,157.58,79.45ZM194.5,287.73A.91.91,0,0,1,193,288.8a.9.9,0,0,1,.2-1.27A.91.91,0,0,1,194.5,287.73Zm163.26-39a.52.52,0,0,1-.11.73.54.54,0,0,1-.74-.11.53.53,0,0,1,.12-.74A.52.52,0,0,1,357.76,248.74ZM95.37,321.55a.91.91,0,1,1-1.28-.2A.92.92,0,0,1,95.37,321.55ZM304.81,161a.91.91,0,1,1-1.27-.2A.91.91,0,0,1,304.81,161Zm-16.1,107.12a.66.66,0,0,1-.14.92.66.66,0,0,1-.92-.15.66.66,0,0,1,1.06-.77Zm51.76,15.82a.66.66,0,1,1-1.06.77.66.66,0,0,1,1.06-.77Z"/></g></g></svg>