<svg xmlns="http://www.w3.org/2000/svg" viewBox="0 0 369.46 397.07"><defs><style>.cls-1{fill:#7a8196;}</style></defs><g id="Calque_2" data-name="Calque 2"><g id="Particules-Etoiles-ok"><path id="Particules-Terre" class="cls-1" d="M284.58,247.24a1.51,1.51,0,1,1,0-2.13A1.51,1.51,0,0,1,284.58,247.24ZM337.43,65.61a.91.91,0,1,1,0-1.29A.92.92,0,0,1,337.43,65.61Zm-236.1,42.54a.64.64,0,0,1-.92,0,.65.65,0,1,1,.92,0Zm161.34,211a.91.91,0,1,1,0-1.28A.91.91,0,0,1,262.67,319.13ZM107,264.58a.65.65,0,1,1-.92-.93.64.64,0,0,1,.92,0A.65.65,0,0,1,107,264.58Zm199.49-184a1.44,1.44,0,1,1,0-2A1.45,1.45,0,0,1,306.44,80.55ZM77.91,138.62a1.31,1.31,0,1,1,0-1.86A1.31,1.31,0,0,1,77.91,138.62Zm26,224.63a1.31,1.31,0,0,1-1.85,0,1.31,1.31,0,1,1,1.85-1.85A1.31,1.31,0,0,1,103.9,363.25ZM246.63,16.93a.64.64,0,0,1-.92,0,.65.65,0,0,1,0-.93.67.67,0,0,1,.93,0A.66.66,0,0,1,246.63,16.93ZM206.86,292.46a.65.65,0,1,1-.92-.93.64.64,0,0,1,.92,0A.65.65,0,0,1,206.86,292.46Zm-14.33,59.25a1.31,1.31,0,1,1,0-1.86A1.31,1.31,0,0,1,192.53,351.71ZM66.37,335a1.71,1.71,0,1,1,0-2.42A1.71,1.71,0,0,1,66.37,335Zm179.39,41.19a.91.91,0,0,1-1.29,0,.89.89,0,0,1,0-1.28.91.91,0,0,1,1.29,0A.92.92,0,0,1,245.76,376.17ZM291.35,265a.91.91,0,0,1-1.29-1.29.91.91,0,0,1,1.29,1.29ZM14.74,171.72a.92.92,0,1,1,0-1.29A.91.91,0,0,1,14.74,171.72ZM267.58,55.12a.66.66,0,0,1-.93-.93.66.66,0,1,1,.93.93Zm53.77,249.05a1.69,1.69,0,1,1,0-2.39A1.7,1.7,0,0,1,321.35,304.17Zm13.5-95.12a1.31,1.31,0,1,1,0-1.86A1.31,1.31,0,0,1,334.85,209.05ZM144.13,2.24a1.32,1.32,0,0,1-1.86,0,1.32,1.32,0,1,1,1.86,0ZM277.94,344.85a.66.66,0,0,1-.93-.93.66.66,0,1,1,.93.93Zm-93.9,52a.66.66,0,0,1-.93-.93.66.66,0,1,1,.93.93ZM209.15,48.09a1.31,1.31,0,1,1-1.86-1.85,1.31,1.31,0,0,1,1.86,1.85Zm160.12,81.76a.67.67,0,0,1-.93,0,.66.66,0,0,1,0-.93.65.65,0,0,1,.93,0A.66.66,0,0,1,369.27,129.85ZM274.78,77.76a.91.91,0,1,1,0-1.29A.91.91,0,0,1,274.78,77.76Zm86.55,267.51A.91.91,0,0,1,360,344a.91.91,0,0,1,1.29,1.29Zm5.41-133.53a1.69,1.69,0,1,1,0-2.39A1.69,1.69,0,0,1,366.74,211.74ZM83,77.18a1.32,1.32,0,1,1,0-1.86A1.32,1.32,0,0,1,83,77.18ZM337.32,123a.66.66,0,0,1-.93-.93.66.66,0,1,1,.93.93ZM176.22,98.47a1.71,1.71,0,1,1,0-2.42A1.71,1.71,0,0,1,176.22,98.47Zm152.56,70.67a.91.91,0,1,1-1.29-1.29.91.91,0,0,1,1.29,1.29ZM215.59,359.79a1.47,1.47,0,1,1,0-2.09A1.48,1.48,0,0,1,215.59,359.79Zm46.6-239.09a1.32,1.32,0,1,1,0-1.86A1.32,1.32,0,0,1,262.19,120.7ZM241.08,84.4a.91.91,0,0,1-1.29-1.29.91.91,0,1,1,1.29,1.29ZM351.62,249.76a.65.65,0,0,1-.93,0,.66.66,0,1,1,.93-.93A.65.65,0,0,1,351.62,249.76ZM146.72,84a.91.91,0,1,1-1.29-1.29A.91.91,0,0,1,146.72,84ZM1.56,311a.92.92,0,0,1-1.29,0,.91.91,0,0,1,0-1.29.91.91,0,0,1,1.29,0A.92.92,0,0,1,1.56,311ZM9.72,131.49a.65.65,0,0,1-.93,0,.66.66,0,1,1,.93-.93A.65.65,0,0,1,9.72,131.49ZM109.15,64a1.31,1.31,0,1,1,0-1.86A1.32,1.32,0,0,1,109.15,64ZM283.82,171a.66.66,0,0,1-.93,0,.65.65,0,0,1,0-.92.64.64,0,0,1,.92,0A.65.65,0,0,1,283.82,171ZM7,246.61a.64.64,0,0,1-.92,0,.65.65,0,0,1,0-.93.67.67,0,0,1,.93,0A.66.66,0,0,1,7,246.61Zm12.32,59.53a.91.91,0,1,1,0-1.29A.91.91,0,0,1,19.34,306.14Zm33-234.2a.91.91,0,0,1-1.29,0,.92.92,0,0,1,0-1.29.91.91,0,1,1,1.29,1.29ZM166.2,50.77a.65.65,0,1,1,0-.92A.64.64,0,0,1,166.2,50.77ZM54.66,283.63a.67.67,0,0,1-.93,0,.66.66,0,1,1,.93-.93A.67.67,0,0,1,54.66,283.63ZM42.69,200a.91.91,0,1,1-1.29-1.29.92.92,0,0,1,1.29,0A.91.91,0,0,1,42.69,200ZM170,306.51a.65.65,0,0,1-.93,0,.66.66,0,1,1,.93-.93A.65.65,0,0,1,170,306.51ZM290.61,153.06a.72.72,0,1,1-1-1,.72.72,0,0,1,1,0A.72.72,0,0,1,290.61,153.06ZM91.49,213.54a.91.91,0,0,1-1.29-1.29.91.91,0,1,1,1.29,1.29ZM155.55,368.7a.53.53,0,0,1-.74,0,.53.53,0,0,1,0-.75.53.53,0,0,1,.74,0A.53.53,0,0,1,155.55,368.7Zm-113-247.77a.91.91,0,0,1-1.29-1.29.91.91,0,1,1,1.29,1.29ZM225,315.72a.91.91,0,1,1-1.29-1.29.91.91,0,0,1,1.29,1.29ZM97.47,306.93a.67.67,0,0,1-.93,0,.66.66,0,0,1,.93-.93A.67.67,0,0,1,97.47,306.93Zm20.6,50.2a.65.65,0,1,1,0-.93A.66.66,0,0,1,118.07,357.13Z"/></g></g></svg>