<svg xmlns="http://www.w3.org/2000/svg" viewBox="0 0 72.29 111.46"><g id="Calque_2" data-name="Calque 2"><g id="pictos-Philosophie-aplat"><path id="Bienveillance" fill="#fff" class="cls-1" d="M34.43,49c-.63-1.38-1.63-4.3.34-6a2.53,2.53,0,0,1,1.72-.56,2.66,2.66,0,0,1,1.77.54c1.94,1.67,1,4.61.41,6h3.86a.5.5,0,0,1,0,1H37.87a.48.48,0,0,1-.43-.25.5.5,0,0,1,0-.49s2.1-3.84.18-5.49a1.72,1.72,0,0,0-1.12-.3,1.53,1.53,0,0,0-1.08.32c-1.93,1.65.25,5.42.27,5.45a.54.54,0,0,1,0,.51.52.52,0,0,1-.44.25H30.47a.5.5,0,1,1,0-1Zm8-46.57a2.44,2.44,0,1,1,2.43,2.44A2.43,2.43,0,0,1,42.45,2.44Zm.8,0A1.64,1.64,0,1,0,44.88.8,1.64,1.64,0,0,0,43.25,2.44Zm3.23,16.44.84-1.53a.42.42,0,0,1,.7,0l.85,1.53,1.71.33a.4.4,0,0,1,.21.67L49.6,21.15l.22,1.73a.38.38,0,0,1-.16.37.4.4,0,0,1-.41,0l-1.58-.74-1.58.74a.33.33,0,0,1-.17,0,.4.4,0,0,1-.23-.08.38.38,0,0,1-.16-.37l.21-1.73-1.19-1.27a.42.42,0,0,1-.09-.4.41.41,0,0,1,.31-.27Zm.34.75-1.19.23.83.88a.38.38,0,0,1,.1.32l-.15,1.2,1.09-.51a.38.38,0,0,1,.17,0,.33.33,0,0,1,.17,0l1.1.51-.15-1.2a.38.38,0,0,1,.1-.32l.83-.88-1.19-.23a.35.35,0,0,1-.27-.2l-.59-1.05-.58,1.05A.39.39,0,0,1,46.82,19.63ZM57,35.35h1.26v1.26a.4.4,0,0,0,.8,0V35.35h1.27a.4.4,0,0,0,0-.8H59V33.29a.4.4,0,1,0-.8,0v1.26H57a.4.4,0,0,0,0,.8ZM48.11,54.16a.54.54,0,0,0,.11-.41L46.28,42.59a.5.5,0,0,0-1,.18l1.83,10.57H39.21a.49.49,0,0,0-.41.21.5.5,0,0,0-.06.46l7.54,20.5a.5.5,0,0,0,.47.32.34.34,0,0,0,.17,0,.5.5,0,0,0,.3-.64L39.93,54.34h7.8A.53.53,0,0,0,48.11,54.16ZM25,27.42a.42.42,0,0,1-.09-.4.41.41,0,0,1,.31-.27l2.19-.42,1.08-1.95a.41.41,0,0,1,.7,0l1.08,1.95,2.19.42a.41.41,0,0,1,.22.67l-1.53,1.63.28,2.22a.41.41,0,0,1-.17.37.38.38,0,0,1-.23.08.33.33,0,0,1-.17,0l-2-.95-2,.95a.4.4,0,0,1-.41,0,.38.38,0,0,1-.16-.37l.28-2.22Zm1.08,0,1.16,1.24a.39.39,0,0,1,.1.32l-.21,1.69,1.54-.72a.33.33,0,0,1,.17,0,.35.35,0,0,1,.17,0l1.53.72L30.36,29a.43.43,0,0,1,.11-.32l1.16-1.24L30,27.08a.35.35,0,0,1-.27-.2l-.82-1.48-.82,1.48a.39.39,0,0,1-.28.2Zm-.69,26.94h7.81L26.11,74.17a.5.5,0,0,0,.3.64.5.5,0,0,0,.17,0,.48.48,0,0,0,.47-.33L34.41,54a.5.5,0,0,0-.06-.46.51.51,0,0,0-.41-.21H26l2-10.73a.49.49,0,0,0-.4-.58.5.5,0,0,0-.58.4l-2.1,11.32a.48.48,0,0,0,.11.41A.49.49,0,0,0,25.42,54.34Zm41.5-4.28a1.3,1.3,0,0,0-1.84-.91,7.78,7.78,0,0,0-3.22,4.16c-1,2.79,0,8.38.59,11.38l.11.61c.11.6.19,1.42.26,2.34a4.24,4.24,0,0,0-3.37.58c-.89.66-1.73,2.61-2.72,4.88a26,26,0,0,1-2.23,4.44,22.33,22.33,0,0,1-3.24,3.15,68,68,0,0,0-5.84,5.56C41.88,90.1,40.89,94.38,42.49,99A90,90,0,0,1,45.68,111a.51.51,0,0,0,.5.42h.08a.5.5,0,0,0,.41-.58,91,91,0,0,0-3.24-12.21c-1.48-4.29-.59-8.13,2.73-11.73a66.65,66.65,0,0,1,5.76-5.49,23.23,23.23,0,0,0,3.38-3.3,26.59,26.59,0,0,0,2.35-4.65c.81-1.86,1.73-4,2.39-4.46a3.4,3.4,0,0,1,2.84-.34,55.21,55.21,0,0,1,0,6.77c-.13.73-3.66,5.69-7,10.05a.5.5,0,1,0,.79.61c1.17-1.53,7-9.21,7.19-10.51a60.11,60.11,0,0,0-.34-10.49l-.11-.6c-.49-2.71-1.5-8.34-.63-10.89a6.91,6.91,0,0,1,2.7-3.58.33.33,0,0,1,.26,0,.3.3,0,0,1,.17.22C67.6,57.91,71.48,77,71.28,78.72c-.15,1.35-5.14,8.41-8.45,13.09a69,69,0,0,0-4.14,6.12c-.52,1.25,0,3.61.68,6.59.29,1.25.58,2.55.81,3.83a.49.49,0,0,0,.49.42h.08a.5.5,0,0,0,.41-.58c-.23-1.31-.52-2.61-.81-3.88-.58-2.58-1.13-5-.74-6,.22-.53,2.08-3.15,4-5.92,4.79-6.77,8.46-12.07,8.63-13.56C72.55,76.38,67,50.32,66.92,50.06ZM43.29,74.83a.48.48,0,0,0,.26-.07.5.5,0,0,0,.17-.69L38.17,65a1.67,1.67,0,0,0-1.44-.8h0a1.67,1.67,0,0,0-1.43.8l-5.6,9.07a.5.5,0,0,0,.85.53l5.6-9.08a.68.68,0,0,1,.58-.32h0a.68.68,0,0,1,.59.33l5.55,9.07A.49.49,0,0,0,43.29,74.83Zm-29-30.45h1.26v1.26a.4.4,0,0,0,.8,0V44.38h1.26a.4.4,0,0,0,0-.8H16.33V42.32a.4.4,0,1,0-.8,0v1.26H14.27a.4.4,0,0,0,0,.8Zm12.6,41.87A66.48,66.48,0,0,0,21,80.69a22.71,22.71,0,0,1-3.23-3.15,25.25,25.25,0,0,1-2.23-4.44c-1-2.27-1.84-4.22-2.72-4.88a4.24,4.24,0,0,0-3.37-.58c.07-.92.15-1.74.26-2.34l.11-.61c.54-3,1.54-8.59.59-11.38a7.82,7.82,0,0,0-3.22-4.16,1.3,1.3,0,0,0-1.84.91C5.31,50.32-.26,76.38,0,78.83c.17,1.49,3.84,6.78,8.63,13.56,2,2.77,3.82,5.39,4,5.92.39,1-.16,3.4-.74,6-.29,1.27-.58,2.57-.81,3.88a.5.5,0,0,0,.4.58h.09a.49.49,0,0,0,.49-.42c.23-1.28.52-2.58.8-3.83.68-3,1.21-5.34.69-6.59a69,69,0,0,0-4.14-6.12C6.15,87.13,1.16,80.07,1,78.72.81,77,4.69,57.91,6.35,50.27a.3.3,0,0,1,.17-.22.33.33,0,0,1,.26,0,6.91,6.91,0,0,1,2.7,3.58c.87,2.55-.14,8.18-.63,10.88l-.11.61A59.14,59.14,0,0,0,8.4,75.61c.2,1.3,6,9,7.19,10.51a.5.5,0,1,0,.79-.61c-3.33-4.36-6.86-9.32-7-10.05a55.21,55.21,0,0,1,0-6.77,3.4,3.4,0,0,1,2.84.34c.66.49,1.58,2.6,2.39,4.46A25.57,25.57,0,0,0,17,78.14a23.23,23.23,0,0,0,3.38,3.3,68.15,68.15,0,0,1,5.76,5.49c3.32,3.6,4.21,7.44,2.73,11.73a89.53,89.53,0,0,0-3.24,12.21.5.5,0,0,0,.41.58h.08a.49.49,0,0,0,.49-.42A91.51,91.51,0,0,1,29.8,99C31.4,94.38,30.41,90.1,26.87,86.25ZM2.37,25.71a1.9,1.9,0,1,1,1.9,1.91A1.91,1.91,0,0,1,2.37,25.71Zm.8,0a1.1,1.1,0,1,0,1.1-1.09A1.1,1.1,0,0,0,3.17,25.71Z" /></g></g></svg>