<svg xmlns="http://www.w3.org/2000/svg" xmlns:xlink="http://www.w3.org/1999/xlink" width="50.513" height="61.933" viewBox="0 0 50.513 61.933"><defs><filter id="a" x="0" y="0" width="50.513" height="61.933" filterUnits="userSpaceOnUse"><feOffset dy="3" input="SourceAlpha"/><feGaussianBlur stdDeviation="3" result="b"/><feFlood flood-opacity="0.2"/><feComposite operator="in" in2="b"/><feComposite in="SourceGraphic"/></filter></defs><g transform="translate(9 6)"><g transform="translate(-0.001 0.216)"><g transform="matrix(1, 0, 0, 1, -9, -6.22)" filter="url(#a)"><path d="M310.81,165.244A16.256,16.256,0,0,0,294.553,181.5c0,13.644,16.257,27.674,16.257,27.674s16.257-14.729,16.257-27.674A16.258,16.258,0,0,0,310.81,165.244Zm0,22.611a6.354,6.354,0,1,1,6.353-6.353A6.355,6.355,0,0,1,310.81,187.855Z" transform="translate(-285.55 -159.24)" fill="#ec6557"/></g><circle cx="6.379" cy="6.379" r="6.379" transform="translate(10 9.784)" fill="#fff"/></g></g></svg>