<svg xmlns="http://www.w3.org/2000/svg" width="112.005" height="159.439" viewBox="0 0 112.005 159.439">
  <path id="Silhouette" d="M276.782,210.527a.354.354,0,0,1-.123-.021.364.364,0,0,1-.219-.465l36.55-101.779H271.006a.365.365,0,0,1-.358-.43l10.476-56.447a.364.364,0,1,1,.715.133l-10.4,56.017h42.065a.363.363,0,0,1,.342.486L277.124,210.287A.361.361,0,0,1,276.782,210.527Zm100.747-.022a.363.363,0,0,0,.216-.466L340.3,108.261h41.98a.363.363,0,0,0,.358-.426l-9.669-55.669a.357.357,0,0,0-.42-.3.362.362,0,0,0-.3.42l9.6,55.243h-42.07a.363.363,0,0,0-.341.488l37.621,102.267a.363.363,0,0,0,.341.238A.34.34,0,0,0,377.529,210.505Zm-17.172-.031a.363.363,0,0,0,.121-.5L332.8,164.723a6.287,6.287,0,0,0-10.718-.019l-27.92,45.27a.363.363,0,1,0,.619.38l27.92-45.269a5.563,5.563,0,0,1,9.48.017l27.679,45.252a.363.363,0,0,0,.31.173A.358.358,0,0,0,360.357,210.474ZM356.728,86.3a.365.365,0,0,0-.364-.364H333.711c1.717-3.361,10.287-21.525-.052-30.379-1.713-1.469-4.209-2.214-7.42-2.214a10.427,10.427,0,0,0-7.237,2.3c-10.462,8.892-1.408,26.92.423,30.291H296.2a.363.363,0,0,0,0,.727h23.839a.363.363,0,0,0,.312-.548c-.12-.2-11.934-20.524-.883-29.917a9.751,9.751,0,0,1,6.766-2.129c3.032,0,5.37.686,6.948,2.039,10.913,9.347-.281,29.81-.4,30.015a.363.363,0,0,0,.317.54h23.255A.364.364,0,0,0,356.728,86.3Z" transform="translate(-270.643 -51.088)" fill="#eae7e1"/>
</svg>
