<svg xmlns="http://www.w3.org/2000/svg" viewBox="0 0 104.3 104.3"><defs><style>.cls-1{fill:#bbd03c;}</style></defs><g id="Calque_2" data-name="Calque 2"><g id="Elements"><path id="pic-Terre" class="cls-1" d="M51.25,27.7l-.3-.31-.29.32c-13.25,14.94-25.09,30.71-22,44.87,1.9,8.65,9.41,15.9,22.32,21.55l.16.07.16-.07c13.51-5.89,21.24-13.46,23-22.52C75.74,64.26,74.9,51.71,51.25,27.7Zm-.87,1.85.17-.23V39.63L45,35.51c1.67-2,3.41-4.06,5.18-6.08Zm0,11.11.17-.23V50.74l-11-8.2c1.53-2.11,3.16-4.22,4.87-6.32Zm0,11.1.17-.23V61.84L34.71,50c1.29-2.23,2.75-4.47,4.34-6.71Zm0,11.11.17-.23V73L30.83,58.2a49.61,49.61,0,0,1,3.42-7.39Zm0,11.1.17-.23V84.05L29,67.84a27.75,27.75,0,0,1,1.51-8.73Zm1.1-12.38v-10L63.4,42.73a75.78,75.78,0,0,1,4.48,6.59ZM68.36,50.12a47.52,47.52,0,0,1,3.53,7.31L51.48,72.7v-10Zm-16.88.37v-10l6.29-4.7c1.73,2,3.45,4,5.07,6.15Zm0-11.11v-10l.2-.15c1.78,1.84,3.63,3.8,5.47,5.86Zm0,34.47L72.22,58.34a28.36,28.36,0,0,1,1.67,8.6L51.48,83.8Zm-22-1.44A20.43,20.43,0,0,1,29,69L50.38,85.08l.17-.24V93C38.37,87.55,31.28,80.62,29.47,72.41ZM66.36,83.78,58.9,89.35a64.91,64.91,0,0,1-7.42,3.83V85L73.89,68.1a21.05,21.05,0,0,1-.36,3.36A23.06,23.06,0,0,1,66.36,83.78ZM52.15,104.3A52.17,52.17,0,0,1,18.42,91.93a.51.51,0,0,1-.05-.71.49.49,0,0,1,.7,0,51.12,51.12,0,1,0-8.91-9.8.5.5,0,1,1-.82.57A52.15,52.15,0,1,1,52.15,104.3Zm0-9.83A42.32,42.32,0,1,1,94.47,52.15,42.37,42.37,0,0,1,52.15,94.47Zm0-83.64A41.32,41.32,0,1,0,93.47,52.15,41.37,41.37,0,0,0,52.15,10.83Z"/></g></g></svg>