<svg xmlns="http://www.w3.org/2000/svg" viewBox="0 0 104.8 104.8"><path fill="#EAE7E1" d="M52.4,95A42.57,42.57,0,1,0,9.83,52.4,42.62,42.62,0,0,0,52.4,95Zm-.5-1-.42.18-.06,0-.06,0-.47-.21ZM52,85.33,73.87,68.87a20.3,20.3,0,0,1-.33,2.79,22.94,22.94,0,0,1-7.1,12.18L59,89.39a67.06,67.06,0,0,1-7,3.66Zm0-46.2V30c1.83,1.89,3.49,3.66,5.05,5.4Zm0,11.11V40.91l6-4.49c1.73,2,3.33,3.92,4.76,5.77Zm0,11.1V52L63.6,43.33c1.57,2.1,3,4.18,4.2,6.18Zm0,11.11V63.12L68.54,50.74a47.84,47.84,0,0,1,3.3,6.85Zm21.91-5.38L52,83.55V74.23L72.35,59A28.44,28.44,0,0,1,73.89,67.07ZM29.56,69.8,50.48,85.53l.07,0V92.9C38.66,87.47,31.73,80.65,30,72.61A20.66,20.66,0,0,1,29.56,69.8Zm21,4.68V83.8L29.5,68a27.39,27.39,0,0,1,1.39-8.2L50.48,74.42ZM31.38,58.36a48.46,48.46,0,0,1,3.2-6.93l16,12V72.7Zm3.91-8.18c1.16-2,2.53-4.12,4.06-6.29l11.2,8.38V61.6Zm4.89-7.45c1.36-1.87,2.86-3.81,4.56-5.91l5.81,4.35v9.32Zm10.37-3.34-4.91-3.68c1.45-1.76,3-3.62,4.86-5.69l0,0ZM74.82,71.91c1.43-7.41.59-20-23.15-44.14l-.48-.5-.47.52c-13.29,15-25.17,30.83-22,45.1,1.77,8,8.35,14.9,19.56,20.37a41.05,41.05,0,1,1,6,.17C66.25,87.69,73.17,80.45,74.82,71.91Zm30-19.51a52.4,52.4,0,0,1-86.29,40,.76.76,0,0,1-.09-1.06.79.79,0,0,1,.51-.26.76.76,0,0,1,.55.18,50.91,50.91,0,1,0-8.86-9.75.78.78,0,0,1,.12.56.75.75,0,0,1-1.35.3A52.4,52.4,0,1,1,104.8,52.4Z"/></svg>