<svg version="1.1" class="times" xmlns="http://www.w3.org/2000/svg"  x="0px" y="0px"
	viewBox="0 0 29.7 29.7" style="enable-background:new 0 0 29.7 29.7;" >
<g  transform="translate(2.122 2.121)">
	<g transform="translate(0 0) rotate(45)">
		<path fill="#f7f7f7" d="M37.1,1.1c-0.3,0.3-0.6,0.4-1.1,0.4H0c-0.8,0-1.5-0.7-1.5-1.5c0-0.8,0.7-1.5,1.5-1.5h36
			c0.8,0,1.5,0.7,1.5,1.5C37.5,0.4,37.3,0.8,37.1,1.1z"/>
	</g>
	<g  transform="translate(0 25.456) rotate(-45)">
		<path  fill="#f7f7f7" d="M-1.1,1.1C-1.3,0.8-1.5,0.4-1.5,0c0-0.8,0.7-1.5,1.5-1.5h36c0.8,0,1.5,0.7,1.5,1.5c0,0.8-0.7,1.5-1.5,1.5H0
			C-0.4,1.5-0.8,1.3-1.1,1.1z"/>
	</g>
</g>
</svg>